<svg width="99" height="22" viewBox="0 0 99 22" fill="none" xmlns="http://www.w3.org/2000/svg">
<rect width="99" height="22" rx="10" fill="#200660"/>
<path d="M23.0583 13.512H19.9143L19.4103 15H17.2623L20.3103 6.576H22.6863L25.7343 15H23.5623L23.0583 13.512ZM22.5303 11.928L21.4863 8.844L20.4543 11.928H22.5303ZM28.714 9.252C28.914 8.94 29.19 8.688 29.542 8.496C29.894 8.304 30.306 8.208 30.778 8.208C31.33 8.208 31.83 8.348 32.278 8.628C32.726 8.908 33.078 9.308 33.334 9.828C33.598 10.348 33.73 10.952 33.73 11.64C33.73 12.328 33.598 12.936 33.334 13.464C33.078 13.984 32.726 14.388 32.278 14.676C31.83 14.956 31.33 15.096 30.778 15.096C30.314 15.096 29.902 15 29.542 14.808C29.19 14.616 28.914 14.368 28.714 14.064V18.192H26.662V8.304H28.714V9.252ZM31.642 11.64C31.642 11.128 31.498 10.728 31.21 10.44C30.93 10.144 30.582 9.996 30.166 9.996C29.758 9.996 29.41 10.144 29.122 10.44C28.842 10.736 28.702 11.14 28.702 11.652C28.702 12.164 28.842 12.568 29.122 12.864C29.41 13.16 29.758 13.308 30.166 13.308C30.574 13.308 30.922 13.16 31.21 12.864C31.498 12.56 31.642 12.152 31.642 11.64ZM36.8585 9.252C37.0585 8.94 37.3345 8.688 37.6865 8.496C38.0385 8.304 38.4505 8.208 38.9225 8.208C39.4745 8.208 39.9745 8.348 40.4225 8.628C40.8705 8.908 41.2225 9.308 41.4785 9.828C41.7425 10.348 41.8745 10.952 41.8745 11.64C41.8745 12.328 41.7425 12.936 41.4785 13.464C41.2225 13.984 40.8705 14.388 40.4225 14.676C39.9745 14.956 39.4745 15.096 38.9225 15.096C38.4585 15.096 38.0465 15 37.6865 14.808C37.3345 14.616 37.0585 14.368 36.8585 14.064V18.192H34.8065V8.304H36.8585V9.252ZM39.7865 11.64C39.7865 11.128 39.6425 10.728 39.3545 10.44C39.0745 10.144 38.7265 9.996 38.3105 9.996C37.9025 9.996 37.5545 10.144 37.2665 10.44C36.9865 10.736 36.8465 11.14 36.8465 11.652C36.8465 12.164 36.9865 12.568 37.2665 12.864C37.5545 13.16 37.9025 13.308 38.3105 13.308C38.7185 13.308 39.0665 13.16 39.3545 12.864C39.6425 12.56 39.7865 12.152 39.7865 11.64ZM45.003 6.12V15H42.951V6.12H45.003ZM53.3301 8.304L49.1301 18.18H46.9221L48.4581 14.772L45.7341 8.304H48.0261L49.5741 12.492L51.1101 8.304H53.3301ZM64.1511 15H62.0991L58.6671 9.804V15H56.6151V6.576H58.6671L62.0991 11.796V6.576H64.1511V15ZM68.6865 15.096C68.0305 15.096 67.4385 14.956 66.9105 14.676C66.3905 14.396 65.9785 13.996 65.6745 13.476C65.3785 12.956 65.2305 12.348 65.2305 11.652C65.2305 10.964 65.3825 10.36 65.6865 9.84C65.9905 9.312 66.4065 8.908 66.9345 8.628C67.4625 8.348 68.0545 8.208 68.7105 8.208C69.3665 8.208 69.9585 8.348 70.4865 8.628C71.0145 8.908 71.4305 9.312 71.7345 9.84C72.0385 10.36 72.1905 10.964 72.1905 11.652C72.1905 12.34 72.0345 12.948 71.7225 13.476C71.4185 13.996 70.9985 14.396 70.4625 14.676C69.9345 14.956 69.3425 15.096 68.6865 15.096ZM68.6865 13.32C69.0785 13.32 69.4105 13.176 69.6825 12.888C69.9625 12.6 70.1025 12.188 70.1025 11.652C70.1025 11.116 69.9665 10.704 69.6945 10.416C69.4305 10.128 69.1025 9.984 68.7105 9.984C68.3105 9.984 67.9785 10.128 67.7145 10.416C67.4505 10.696 67.3185 11.108 67.3185 11.652C67.3185 12.188 67.4465 12.6 67.7025 12.888C67.9665 13.176 68.2945 13.32 68.6865 13.32ZM82.8912 8.304L81.0792 15H78.8112L77.7552 10.656L76.6632 15H74.4072L72.5832 8.304H74.6352L75.5832 13.092L76.7112 8.304H78.8832L80.0232 13.068L80.9592 8.304H82.8912Z" fill="white"/>
</svg>
