<svg width="360" height="228" viewBox="0 0 360 228" fill="none" xmlns="http://www.w3.org/2000/svg">
<path d="M177.986 74.4401C175.658 74.434 173.342 74.7827 171.114 75.4747C169.601 71.8942 167.086 68.8517 163.885 66.7301C160.685 64.6085 156.942 63.5026 153.129 63.5516C148.892 63.476 144.751 64.843 141.357 67.4376C137.962 70.0322 135.508 73.7072 134.379 77.8845C132.764 77.2727 131.055 76.9607 129.333 76.9635C125.789 76.8753 122.356 78.2287 119.787 80.7265C117.217 83.2244 115.722 86.6627 115.628 90.2871H197.328C197.291 81.5056 188.644 74.4401 177.986 74.4401Z" fill="#EDEDED"/>
<path d="M331.85 122.384C329.222 120.77 336.957 116.076 342.064 117.224C347.171 118.372 350.329 120.921 353.918 120.732C353.918 120.744 344.753 130.371 331.85 122.384Z" fill="#869135"/>
<path d="M343.976 87.6372C343.976 87.6372 352.463 97.7308 341.225 111.862C329.987 125.993 331.776 133.386 331.776 133.386C331.776 133.386 315.937 109.01 343.976 87.6372Z" fill="#97A43C"/>
<path d="M333.577 123.381C328.334 124.492 332.849 109.099 340.707 104.304C348.565 99.5098 355.608 99.0051 360 94.3999C360.012 94.3999 359.433 117.918 333.577 123.381Z" fill="#48753A"/>
<path d="M202.077 52.3853H174.926V177.495H202.077V52.3853Z" fill="#FFC654"/>
<path d="M202.114 99.9385V178.832C189.384 181.659 180.625 184.371 174.976 187.046V99.9889L202.114 99.9385Z" fill="#4DA8F2"/>
<path d="M202.114 107.736V177.899C189.384 180.423 180.625 185.469 174.976 187.841V107.736H202.114Z" fill="#216DAD"/>
<path d="M235.1 18.3448V163.44C224.689 166.746 215.684 169.975 207.962 173.142V18.3448H235.1Z" fill="#FFC654"/>
<path d="M235.1 65.2294H207.949V167.212H235.1V65.2294Z" fill="#4DA8F2"/>
<path d="M235.1 166.973L207.949 173.193V73.4558H235.1V166.973Z" fill="#216DAD"/>
<path d="M268.493 0V155.592C258.082 159.289 249.077 163.667 241.354 167.213V0H268.493Z" fill="#FFC654"/>
<path d="M268.493 153.763L241.342 158.645V32.8921H268.493V153.763Z" fill="#4DA8F2"/>
<path d="M268.493 153.46L241.342 160.222V49.9882H268.493V153.46Z" fill="#216DAD"/>
<path d="M169.017 94.0088V200.269C166.809 202.54 166.094 204.786 166.55 207.032H141.879V94.0088H169.017Z" fill="#FFC654"/>
<path d="M169.017 141.865H141.866V200.332H169.017V141.865Z" fill="#4DA8F2"/>
<path d="M169.017 199.676L141.866 202.048V149.851H169.017V199.676Z" fill="#216DAD"/>
<path d="M135.649 120.845V211.624C133.441 213.567 132.726 215.497 133.182 217.403H108.51V120.845H135.649Z" fill="#FFC654"/>
<path d="M135.649 164.916H108.498V223.383H135.649V164.916Z" fill="#4DA8F2"/>
<path d="M135.649 222.727L108.498 225.086V172.89H135.649V222.727Z" fill="#216DAD"/>
<path d="M337.906 139.165C337.906 175.414 329.703 204.773 319.576 204.773C309.448 204.773 301.245 175.376 301.245 139.165C301.245 102.954 309.448 73.5569 319.576 73.5569C329.703 73.5569 337.906 102.904 337.906 139.165Z" fill="#4DA8F2"/>
<path d="M327.939 139.165C327.939 160.21 323.178 177.281 317.294 177.281C311.409 177.281 306.648 160.21 306.648 139.165C306.648 118.12 311.409 101.037 317.294 101.037C323.178 101.037 327.939 118.107 327.939 139.165Z" fill="#2783CF"/>
<path d="M292.733 10.4088C291.086 10.402 289.448 10.6487 287.873 11.1405C286.724 8.48864 284.807 6.26086 282.382 4.7576C279.956 3.25435 277.139 2.54791 274.309 2.73355C271.478 2.91919 268.772 3.98799 266.554 5.79581C264.337 7.60364 262.714 10.0636 261.906 12.8438C260.763 12.4006 259.551 12.174 258.328 12.1751C255.824 12.1107 253.397 13.066 251.582 14.831C249.766 16.5959 248.709 19.0261 248.645 21.5874H306.376C306.376 15.4177 300.27 10.4088 292.733 10.4088Z" fill="#EDEDED"/>
<path d="M212.18 31.3655C211.173 31.3607 210.171 31.5096 209.207 31.8071C208.505 30.1817 207.332 28.8159 205.846 27.8944C204.36 26.9729 202.634 26.54 200.9 26.6542C199.166 26.7684 197.508 27.4242 196.15 28.533C194.792 29.6418 193.8 31.1501 193.307 32.8543C192.606 32.58 191.861 32.4389 191.111 32.4379C189.578 32.4007 188.094 32.9869 186.984 34.068C185.874 35.1491 185.228 36.6366 185.19 38.2039H220.532C220.532 34.4314 216.794 31.3655 212.18 31.3655Z" fill="#EDEDED"/>
<path d="M321.019 135.922L319.07 131.279L316.233 138.017L313.408 131.279L311.459 135.922L314.284 142.66L311.459 149.397L313.408 154.028L316.233 147.29L319.07 154.028L321.019 149.397L318.182 142.66L321.019 135.922Z" fill="#DB164A"/>
<path d="M297.26 159.819L291.092 161.409L291.919 162.986C280.385 172.625 275.081 186.769 275.081 186.769L278.572 191.488C278.572 191.488 281.767 174.379 292.758 164.626L293.819 166.657L297.26 159.819Z" fill="#4DA8F2"/>
<path d="M296.828 133.172L293.535 126.232L292.425 128.251C281.569 118.158 278.695 100.961 278.695 100.961L275.093 105.629C275.093 105.629 280.138 119.949 291.536 129.879L290.673 131.456L296.828 133.172Z" fill="#4DA8F2"/>
<path d="M316.233 140.843C316.233 140.843 280.595 127.898 232.744 152.841C184.894 177.785 198.475 200.786 57.6747 185.646L22.7028 224.38C22.7028 224.38 201.966 241.791 234.878 191.954C267.79 142.117 311.434 145.145 316.208 147.252C320.982 149.359 316.233 140.843 316.233 140.843Z" fill="#DB164A"/>
<path d="M64.188 150.268L65.8286 148.741C66.4815 148.483 67.1959 148.435 67.8764 148.603C68.6524 148.651 69.4236 148.761 70.1831 148.931C70.2644 149.016 70.3282 149.116 70.3706 149.227C70.413 149.337 70.4331 149.455 70.4298 149.574C70.4202 149.855 70.3394 150.129 70.1954 150.369C70.2732 150.516 70.3139 150.681 70.3139 150.848C70.3139 151.016 70.2732 151.181 70.1954 151.328C70.2521 151.489 70.2613 151.663 70.2218 151.829C70.1823 151.995 70.0959 152.145 69.9734 152.262C70.0285 152.392 70.0439 152.537 70.0175 152.676C69.9911 152.816 69.9241 152.944 69.8254 153.044C69.4494 153.085 69.0778 153.161 68.7152 153.271C67.3333 153.419 65.94 153.419 64.5581 153.271C64.5581 153.271 63.4479 152.665 64.188 150.268Z" fill="#EEA886"/>
<path d="M66.9266 150.495C66.7585 150.891 66.5431 151.264 66.2851 151.605C66.0384 151.795 67.8148 153.044 67.8148 153.044C67.8148 153.044 67.9875 151.025 66.9266 150.495Z" fill="#CF8C6C"/>
<path d="M69.9241 148.88C69.9241 148.88 67.457 149.019 67.457 149.422C67.441 149.526 67.452 149.631 67.4888 149.729C67.5257 149.826 67.587 149.912 67.6667 149.978L66.6922 150.495C66.6922 150.495 66.2481 151.214 67.1363 151.504C67.1363 151.504 66.6429 152.122 67.5434 152.299C67.5434 152.299 67.3953 152.854 67.7901 153.018C68.4375 153.096 69.0916 153.096 69.7391 153.018C69.7391 153.018 70.0598 152.842 69.8995 152.236C70.0262 152.123 70.1157 151.972 70.1554 151.805C70.1952 151.638 70.1833 151.462 70.1215 151.302C70.2331 151.129 70.3054 150.933 70.3332 150.728C70.3609 150.523 70.3434 150.314 70.2819 150.116C70.3799 149.915 70.4193 149.689 70.3952 149.465C70.3712 149.241 70.2847 149.03 70.1462 148.855L69.9241 148.88Z" fill="#DB9C7C"/>
<path d="M65.9026 148.729C66.6993 149.078 67.4363 149.555 68.0861 150.142C68.2341 150.318 68.3451 150.507 68.2588 150.709C68.1724 150.911 67.7407 151.037 67.0252 150.772C66.4903 150.596 65.9338 150.499 65.3722 150.482C65.3722 150.482 64.8047 150.028 65.9026 148.729Z" fill="#EEA886"/>
<path d="M70.3065 150.142C69.3577 150.077 68.4058 150.077 67.457 150.142C67.2226 150.268 67.2843 149.284 67.457 149.195C68.3365 149.024 69.227 148.919 70.1215 148.88C70.2229 148.943 70.3095 149.029 70.3751 149.13C70.4408 149.232 70.484 149.346 70.5016 149.467C70.5193 149.587 70.5109 149.71 70.4772 149.826C70.4435 149.943 70.3852 150.051 70.3065 150.142Z" fill="#EEA886"/>
<path d="M69.6281 148.791C69.6281 148.791 73.8839 149.107 73.8839 149.624C73.8839 150.142 72.897 150.444 69.6281 150.066C66.3591 149.687 69.6281 148.791 69.6281 148.791Z" fill="#EEA886"/>
<path d="M47.4976 212.773C47.4976 212.773 49.7921 214.11 50.8283 214.602C51.8645 215.094 55.8737 215.195 56.2807 215.573C56.6878 215.952 56.5521 217.176 55.886 217.314C53.5228 217.679 51.1276 217.776 48.7436 217.605C47.1029 217.239 44.0806 217.933 43.4021 217.706C42.7237 217.478 43.1061 213.769 43.4021 212.937C43.6982 212.104 47.4976 212.773 47.4976 212.773Z" fill="#292C47"/>
<path d="M47.3743 211.195L47.4976 212.772C47.4976 212.772 44.463 213.39 43.3528 212.936L43.5625 211.359L47.3743 211.195Z" fill="#3D416B"/>
<path d="M6.9253 221.655C6.9253 221.655 9.10873 223.181 10.1079 223.762C11.1071 224.342 15.0422 224.758 15.4617 225.175C15.8811 225.591 15.6097 226.79 14.9312 226.865C12.5473 227.043 10.1515 226.945 7.7888 226.575C6.18515 226.071 3.11353 226.575 2.45974 226.247C1.80594 225.919 2.45974 222.286 2.7928 221.478C3.12587 220.671 6.9253 221.655 6.9253 221.655Z" fill="#292C47"/>
<path d="M7.20892 220.153L6.91287 221.655C6.91287 221.655 3.84129 222.021 2.95312 221.491L3.28619 219.926L7.20892 220.153Z" fill="#3D416B"/>
<path d="M32.2013 173.61C31.9052 174.619 31.1528 176.764 30.3386 179.022L29.7835 180.524C28.6856 183.564 27.6371 186.353 27.6371 186.353C26.0334 190.138 22.2957 198.049 20.4823 199.436C18.0152 201.329 7.22136 221.163 7.22136 221.163L2.28705 220.57C2.28705 220.57 7.57909 205.745 9.7872 202.465C12.2544 198.793 16.1154 194.011 16.5349 189.949C16.7939 187.425 18.3359 179.464 18.3359 179.464C18.3359 179.464 20.1369 170.569 24.0597 164.765C25.0959 163.314 32.2013 173.61 32.2013 173.61Z" fill="#292C47"/>
<path d="M37.407 172.713C37.407 172.713 50.9763 183.072 52.4936 185.204C54.0109 187.336 53.0857 190.73 52.8514 191.765C52.617 192.8 48.3118 209.896 48.2008 211.687C48.2008 211.687 44.0189 212.747 42.9457 211.347C42.9457 211.347 44.4013 195.121 45.4129 191.778C46.4244 188.434 41.7121 186.213 39.1093 185.002C36.5064 183.791 23.0728 177.18 23.2455 174.505C23.4059 172.65 23.6526 170.909 23.6526 170.909C23.6526 170.909 26.2431 168.726 37.407 172.713Z" fill="#292C47"/>
<path d="M37.5427 146.356C37.5427 146.356 46.3504 148.06 50.4459 148.577C51.6795 148.741 63.8302 149.687 64.3236 149.763C64.817 149.839 64.447 153.851 64.447 153.851C64.447 153.851 50.8776 152.93 50.1128 152.993C49.348 153.056 36.7409 152.173 35.5813 151.315C34.4217 150.457 33.5829 149.044 34.3477 147.669C34.6704 147.126 35.156 146.706 35.7319 146.469C36.3077 146.233 36.943 146.193 37.5427 146.356Z" fill="#292C47"/>
<path d="M37.1109 145.094C37.896 147.404 38.4095 149.802 38.6406 152.236C38.6406 154.835 36.2721 162.645 36.1734 164.096C36.0234 167.044 36.4426 169.994 37.407 172.776L23.4059 175.527C23.1416 172.515 23.0304 169.491 23.0728 166.468C23.0728 161.534 24.5408 157.472 24.8862 154.646C25.0916 152.007 26.0431 149.487 27.6245 147.393C29.206 145.298 31.3491 143.719 33.7926 142.849L37.1109 145.094Z" fill="#CFBEB6"/>
<path d="M43.5378 133.74C43.5378 133.74 44.7714 136.137 44.1793 136.503C43.5871 136.869 44.7837 139.165 44.9317 139.556C45.0798 139.947 43.9942 140.212 43.7722 140.464C43.5501 140.717 42.847 143.833 41.9588 143.833C39.7809 143.507 37.7141 142.641 35.939 141.31C34.8534 140.136 33.9529 134.875 34.7054 132.655C35.4579 130.434 41.3174 129.589 43.5378 133.74Z" fill="#EEA886"/>
<path d="M39.282 143.228L39.0229 143.858C38.9489 144.01 38.8749 144.199 38.8009 144.388C38.7269 144.578 38.6652 144.704 38.6035 144.868C38.1945 145.808 37.8804 146.789 37.666 147.795C37.5426 148.968 34.323 142.824 34.323 142.824C35.3571 140.368 36.2146 137.838 36.8888 135.254C37.9374 131.103 39.282 143.228 39.282 143.228Z" fill="#EEA886"/>
<path d="M43.7969 134.295C44.152 133.535 44.2417 132.673 44.0508 131.853C43.86 131.034 43.4003 130.306 42.7483 129.791C40.4045 127.873 36.0747 131.242 35.5936 131.368C35.1125 131.494 32.411 131.67 33.7309 136.654C34.9645 141.158 35.1248 140.805 35.1248 140.805C35.463 139.9 35.9284 139.05 36.5064 138.282C37.277 137.917 38.1276 137.764 38.9736 137.84C38.9736 137.84 38.1471 135.594 39.4423 135.317C40.7376 135.039 42.4893 133.803 43.7969 134.295Z" fill="#D88A51"/>
<path d="M37.6537 136.515C37.5426 136.213 37.1726 134.888 36.0623 135.657C34.9521 136.427 36.7531 138.938 36.9382 138.963C37.1232 138.988 38.6158 139.102 37.6537 136.515Z" fill="#EEA886"/>
<path d="M34.5451 142.269C35.6158 143.943 36.7858 145.548 38.0485 147.076L37.6414 149.423L33.7926 142.786L34.5451 142.269Z" fill="#EDDAD3"/>
<path d="M39.282 143.228L39.0229 143.859C38.9489 144.01 38.8749 144.199 38.8009 144.389C37.6984 143.671 36.7804 142.693 36.124 141.537C37.1299 142.188 38.186 142.753 39.282 143.228Z" fill="#A77860"/>
<path d="M38.0484 147.214C38.2397 147.908 38.3352 148.626 38.3321 149.347C38.3321 149.574 37.6907 149.284 37.6907 149.284L38.0484 147.214Z" fill="#FAA146"/>
<path d="M37.407 172.713C37.407 172.713 37.0122 171.452 36.9259 171.149L23.2455 173.748L23.3812 175.464C23.3812 175.464 33.3855 173.622 37.407 172.713Z" fill="#23263D"/>
<path d="M14.0553 181.684L8.34387 180.952C8.20046 180.935 8.06189 180.889 7.93666 180.815C7.81143 180.742 7.70217 180.643 7.61556 180.525C7.52895 180.407 7.46682 180.272 7.43297 180.129C7.39911 179.985 7.39426 179.836 7.41869 179.69L7.87511 176.006C7.89029 175.866 7.93291 175.729 8.00044 175.606C8.06798 175.482 8.15906 175.373 8.26831 175.286C8.37756 175.199 8.50275 175.136 8.6365 175.099C8.77025 175.062 8.90984 175.053 9.04701 175.073L14.7585 175.792C14.9019 175.809 15.0405 175.855 15.1657 175.929C15.2909 176.002 15.4002 176.101 15.4868 176.219C15.5734 176.337 15.6355 176.472 15.6694 176.615C15.7032 176.759 15.7081 176.908 15.6837 177.054L15.2272 180.738C15.1932 181.021 15.0511 181.28 14.8316 181.457C14.6122 181.634 14.3332 181.716 14.0553 181.684ZM8.96066 175.842C8.91526 175.837 8.86929 175.841 8.82541 175.854C8.78154 175.867 8.74063 175.889 8.70507 175.918C8.6695 175.948 8.63998 175.984 8.61821 176.025C8.59644 176.066 8.58286 176.111 8.57825 176.158L8.12183 179.829C8.11439 179.924 8.14197 180.018 8.19908 180.093C8.2562 180.167 8.33869 180.217 8.43022 180.233L14.1417 180.952C14.2315 180.963 14.3219 180.937 14.3934 180.881C14.4649 180.824 14.5118 180.741 14.5241 180.649L14.9805 176.965C14.9877 176.872 14.9597 176.78 14.9024 176.707C14.845 176.634 14.7626 176.587 14.6721 176.574L8.96066 175.842Z" fill="#6E4629"/>
<path d="M21.5352 179.71L1.59344 177.176L1.43654e-05 190.298L19.9418 192.831L21.5352 179.71Z" fill="#D88A51"/>
<path d="M21.5288 179.702L1.58704 177.169L0.880028 182.991L20.8218 185.524L21.5288 179.702Z" fill="#B57343"/>
<path d="M12.3864 183.064L9.63196 182.714L9.53455 183.516L12.289 183.866L12.3864 183.064Z" fill="#6E4629"/>
<path d="M9.04706 175.842C9.00995 175.595 9.00995 175.344 9.04706 175.098C9.04706 175.098 9.21976 174.669 9.33078 174.366C9.35969 174.287 9.3844 174.207 9.40479 174.126C9.46191 173.688 9.58683 173.262 9.77487 172.865C10.0586 172.335 11.2305 170.531 11.2305 170.531L12.9081 171.275L14.4748 171.489C14.5829 172.896 14.5829 174.309 14.4748 175.716C14.4596 175.769 14.4389 175.819 14.4131 175.867C14.2131 176.181 13.9815 176.473 13.7223 176.738C13.7223 176.826 13.1179 177.571 12.8341 177.583C12.6823 177.598 12.5293 177.573 12.3892 177.511C12.2492 177.449 12.1265 177.353 12.0323 177.23C11.6308 177.224 11.2384 177.106 10.8974 176.889C10.6934 176.897 10.4908 176.852 10.3078 176.76C10.1248 176.667 9.96714 176.53 9.84888 176.359C9.84888 176.359 9.19508 176.246 9.04706 175.842Z" fill="#EFAA88"/>
<path d="M33.1141 149.132C33.1141 149.132 25.0589 155.529 22.1723 159.062C21.2595 160.172 15.733 171.174 15.3753 171.591C15.0175 172.007 10.9221 170.695 10.9221 170.695C10.9221 170.695 17.4724 156.93 17.8794 156.122C18.2865 155.315 29.9562 144.212 31.4488 143.631C32.9414 143.051 33.0895 143.821 33.916 145.322C34.2083 145.959 34.2882 146.677 34.1434 147.365C33.9985 148.054 33.637 148.674 33.1141 149.132Z" fill="#323657"/>
<path d="M37.6167 154.053C37.3083 154.923 37.0246 155.794 36.7532 156.677C36.1611 158.607 35.6553 160.563 35.2359 162.468C35.0756 163.137 34.9399 163.818 34.8042 164.474C33.7794 169.379 31.8402 174.035 29.0927 178.189C29.0927 178.189 22.9248 177.684 21.4322 176.637C21.7658 170.622 22.5661 164.644 23.8253 158.759C23.9734 158.077 24.1337 157.396 24.3064 156.727C26.1321 149.662 29.0804 143.29 33.7926 142.849C33.879 142.899 39.2821 149.523 37.6167 154.053Z" fill="#323657"/>
<path d="M23.6773 159.377C22.9673 165.157 20.9021 170.676 17.6574 175.464C16.9913 176.436 25.1329 177.697 25.1329 177.697L23.6773 159.377Z" fill="#323657"/>
<path d="M29.8945 151.744C28.0194 153.813 23.8253 158.759 23.8253 158.759C23.9733 158.078 24.1337 157.396 24.3064 156.728C25.7866 155.189 29.8328 151.795 29.8945 151.744Z" fill="#1D2133"/>
<path d="M38.3198 149.309C38.3198 149.309 37.4933 154.999 32.6947 155.39C28.4018 155.731 22.1723 157.914 20.1616 159.63L17.6944 161.863L18.2988 158.898C18.2988 158.898 20.0999 154.217 32.6824 154.81C32.6824 154.81 36.5435 155.542 37.8017 148.691C37.7647 148.691 38.3938 149.019 38.3198 149.309Z" fill="#FAA146"/>
<path d="M270.405 90.4629C269.917 90.7436 269.41 90.9882 268.888 91.1947C268.32 91.3839 268.888 89.2012 268.888 89.2012L270.405 90.4629Z" fill="#EEA886"/>
<path d="M268.518 88.8106C268.518 88.8106 268.654 87.1199 268.691 86.8549C268.939 86.3171 269.301 85.8429 269.751 85.467C270.252 84.9768 270.855 84.61 271.515 84.3945C271.618 84.394 271.719 84.4177 271.811 84.4636C271.903 84.5096 271.983 84.5766 272.046 84.6595C272.201 84.8385 272.307 85.056 272.354 85.2904C272.485 85.3444 272.601 85.432 272.689 85.5447C272.778 85.6573 272.837 85.7913 272.86 85.9338C272.988 86.0006 273.093 86.1044 273.164 86.2324C273.234 86.3604 273.266 86.5067 273.255 86.653C273.255 86.653 273.662 86.8549 273.6 87.2334C273.389 87.4853 273.199 87.7555 273.033 88.0409C272.244 88.9416 271.363 89.7537 270.405 90.4634C270.405 90.4634 269.394 90.7158 268.518 88.8106Z" fill="#EEA886"/>
<path d="M270.368 87.3217C270.487 87.668 270.562 88.0285 270.59 88.3944C270.59 88.6594 272.428 88.6215 272.428 88.6215C272.428 88.6215 271.343 87.0567 270.368 87.3217Z" fill="#CF8C6C"/>
<path d="M271.355 84.5333C271.355 84.5333 269.924 86.0599 270.122 86.3248C270.17 86.3986 270.237 86.4582 270.315 86.498C270.392 86.5377 270.479 86.5563 270.566 86.5519L270.245 87.4603C270.245 87.4603 270.368 88.1668 271.096 87.8262C271.096 87.8262 271.096 88.5075 271.799 88.0911C271.799 88.0911 272.034 88.5201 272.367 88.3813C272.826 88.0563 273.241 87.6702 273.6 87.2332C273.6 87.2332 273.711 86.8926 273.267 86.6403C273.278 86.4939 273.246 86.3476 273.176 86.2197C273.106 86.0917 273 85.9879 272.873 85.9211C272.855 85.7768 272.799 85.6401 272.713 85.5248C272.626 85.4095 272.511 85.3199 272.379 85.2651C272.379 85.2651 272.256 84.3693 271.516 84.3946L271.355 84.5333Z" fill="#DB9C7C"/>
<path d="M268.728 86.8044C269.43 86.5564 270.167 86.4244 270.911 86.4133C271.096 86.4133 271.281 86.4764 271.343 86.6657C271.404 86.8549 271.207 87.1829 270.627 87.41C270.182 87.6195 269.766 87.8913 269.394 88.2175C269.394 88.2175 268.728 88.3184 268.728 86.8044Z" fill="#EEA886"/>
<path d="M251.026 88.7852C253.614 90.8202 256.366 92.6268 259.254 94.1853C260.277 94.6521 268.16 88.9366 268.518 88.8104C268.875 88.6842 269.751 90.8165 269.751 90.8165C269.751 90.8165 260.179 99.3583 259.5 99.2069C258.822 99.0555 248.904 93.3904 248.151 92.3684C247.73 91.9235 247.483 91.3357 247.458 90.7168C247.433 90.0979 247.632 89.4912 248.016 89.0123C248.422 88.639 248.938 88.4142 249.483 88.3731C250.027 88.332 250.57 88.4769 251.026 88.7852Z" fill="#EEA886"/>
<path d="M253.74 96.406L255.43 91.6495L253.012 89.6182L251.482 95.1443L253.74 96.406Z" fill="#323657"/>
<path d="M221.198 121.993L220.149 121.35L218.743 124.176L219.754 124.807L221.198 121.993Z" fill="#EEA886"/>
<path d="M267.876 146.533L268.456 147.593L270.948 145.915L270.393 144.881L267.876 146.533Z" fill="#EEA886"/>
<path d="M250.508 118.599C250.064 119.015 249.348 119.861 248.546 120.718L248.263 121.047C248.028 121.311 247.781 121.589 247.547 121.879C247.313 122.169 247.313 122.132 247.202 122.27C245.684 124.049 244.278 125.753 244.278 125.753C244.278 125.753 237.691 132.314 235.581 131.708C230.993 130.446 219.089 124.97 219.089 124.97L221.383 120.882C221.383 120.882 225.824 122.901 228.784 123.81C232.14 124.844 231.116 124.693 234.237 125.5C236.149 125.992 239.171 118.081 239.171 118.018C240.405 114.965 242.132 111.054 243.427 110.057C244.525 109.161 250.508 118.599 250.508 118.599Z" fill="#FFC654"/>
<path d="M263.793 127.721C263.559 126.131 261.005 122.006 259.204 119.545C256.367 115.622 254.467 112.518 254.467 112.518C254.467 112.518 241.539 113.78 241.799 115.041C242.28 117.565 247.966 120.58 249.04 121.501L251.778 123.255C251.778 123.255 254.245 124.945 255.911 126.447C258.193 128.453 257.786 129.172 259.229 132.188C260.463 134.875 266.865 147.467 266.865 147.467L270.714 145.158C270.714 145.158 264.188 130.194 263.793 127.721Z" fill="#FFC654"/>
<path d="M253.234 101.781C253.333 103.042 254.467 112.518 254.467 112.518L239.899 115.331C239.899 115.331 242.156 110.284 241.762 105.982C241.658 104.833 241.633 103.678 241.687 102.525C241.687 101.453 241.811 100.443 241.91 99.497C242.07 98.0082 242.243 96.6961 242.255 95.611C242.183 93.3035 242.773 91.0248 243.952 89.0562C245.131 87.0877 246.849 85.5154 248.892 84.5334L251.951 86.1484C252.84 88.0671 253.503 90.0874 253.925 92.1666C254.171 94.4629 253.135 100.532 253.234 101.781Z" fill="#323657"/>
<path d="M256.49 75.8782C256.49 75.8782 257.798 77.8338 257.292 78.2123C256.786 78.5908 258.057 80.4455 258.217 80.7357C258.378 81.0258 257.465 81.4043 257.292 81.6441C257.119 81.8838 256.799 84.5585 256.059 84.7225C254.153 84.6586 252.292 84.1124 250.643 83.1328C249.595 82.237 248.336 77.7833 248.768 75.7899C249.2 73.7965 254.184 72.4843 256.49 75.8782Z" fill="#EEA886"/>
<path d="M253.666 84.4454C253.666 84.4454 253.592 84.6599 253.493 85.0006C253.444 85.152 253.394 85.316 253.345 85.4926C253.345 85.6314 253.259 85.7702 253.222 85.9216C252.955 86.7712 252.773 87.6463 252.679 88.5334C252.679 89.5554 248.892 84.5842 248.892 84.5842C250.038 82.4873 250.712 80.1553 250.865 77.7582C251.174 74.0739 253.666 84.4454 253.666 84.4454Z" fill="#EEA886"/>
<path d="M256.75 76.3073C256.75 76.3073 256.75 74.2508 255.701 73.5316C252.963 71.74 249.977 74.4148 249.533 74.5662C249.089 74.7176 246.918 76.1433 248.3 79.2976C249.348 81.821 249.965 82.1995 249.965 82.1995C250.204 81.4482 250.545 80.7348 250.977 80.0798C251.499 79.6523 252.076 79.3 252.691 79.0326C252.691 79.0326 252.469 77.7709 253.135 77.5312C254.184 77.0517 255.578 76.0045 256.75 76.3073Z" fill="#16202E"/>
<path d="M251.655 78.8054C251.531 78.5531 251.087 77.4428 250.199 78.2251C249.311 79.0073 251.1 80.9756 251.26 80.9882C251.42 81.0008 252.691 80.9504 251.655 78.8054Z" fill="#EEA886"/>
<path d="M223.628 110.07C223.637 109.853 223.683 109.64 223.764 109.439L224.134 108.872L224.232 108.682C224.353 108.303 224.532 107.945 224.763 107.622C225.096 107.206 226.391 105.881 226.391 105.881L227.699 106.815L229.006 107.282C228.869 108.497 228.638 109.7 228.315 110.878L228.241 110.991C228.015 111.225 227.767 111.436 227.501 111.622C227.44 111.622 226.848 112.215 226.613 112.177C226.481 112.161 226.355 112.112 226.246 112.035C226.136 111.958 226.046 111.856 225.984 111.736C225.644 111.662 225.332 111.491 225.084 111.244C224.909 111.21 224.745 111.135 224.604 111.026C224.463 110.916 224.348 110.775 224.269 110.613C224.269 110.613 223.677 110.436 223.628 110.07Z" fill="#EFAA88"/>
<path d="M253.666 84.4449C253.666 84.4449 253.592 84.6593 253.493 85C253.443 85.1514 253.394 85.3154 253.345 85.4921C252.325 84.9779 251.444 84.2154 250.779 83.2715C251.71 83.7389 252.675 84.1312 253.666 84.4449Z" fill="#A77860"/>
<path d="M220.137 121.35C220.137 121.35 219.409 122.864 219.125 123.507C218.842 124.151 219.125 124.656 218.694 124.529C217.731 124.376 216.746 124.458 215.819 124.769C215.178 125.135 211.268 127.759 210.503 127.027C209.738 126.296 211.095 124.504 213.254 122.334C215.412 120.164 214.944 119.495 216.806 118.549C217.386 118.196 220.137 121.35 220.137 121.35Z" fill="#343A5C"/>
<path d="M268.37 147.416L270.294 146.155C270.862 145.776 270.849 145.171 271.17 145.511C271.903 146.132 272.77 146.564 273.699 146.773C274.414 146.773 279.003 146.634 279.275 147.656C279.546 148.678 277.548 149.423 274.636 150.18C271.725 150.937 271.799 151.694 269.702 151.555C269.11 151.492 268.37 147.416 268.37 147.416Z" fill="#343A5C"/>
<path d="M256.75 76.3071C256.75 76.3071 257.847 74.8309 256.75 72.1183C256.75 72.1183 256.355 73.2917 253.826 72.9132L256.75 76.3071Z" fill="#16202E"/>
<path d="M248.694 91.7124C247.43 93.4493 245.804 94.876 243.933 95.8887L243.711 94.8414L248.694 91.7124Z" fill="#23344A"/>
<path d="M248.559 91.599C248.559 91.599 240.627 95.6238 237.568 98.1094C236.618 98.8916 229.377 106.941 229.006 107.282C228.636 107.623 226.243 106.02 226.243 106.02C226.243 106.02 233.941 95.4346 234.422 94.8289C234.903 94.2233 244.944 87.3723 247.202 86.9811C248.546 86.754 249.829 86.9811 250.261 88.3312C250.865 90.3373 248.559 91.599 248.559 91.599Z" fill="#EEA886"/>
<path d="M250.36 87.1954C250.36 87.1954 248.892 83.2841 242.144 89.189L243.711 94.7784C243.711 94.7784 252.309 91.1068 250.36 87.1954Z" fill="#323657"/>
<path d="M248.263 120.984C248.028 121.249 247.781 121.527 247.547 121.817C247.313 122.107 247.313 122.069 247.202 122.208C245.771 120.655 244.448 119.002 243.242 117.262C244.834 118.614 246.511 119.858 248.263 120.984Z" fill="#B0573A"/>
<path d="M98.4074 146.874L89.8464 155.706C89.8464 155.706 88.6128 156.665 89.6983 159.302C90.9319 162.229 95.2124 166.582 95.2124 166.582C95.2124 166.582 96.7791 166.191 96.9148 165.434C97.0505 164.676 93.0907 158.33 93.214 157.712C94.7826 155.721 96.4544 153.817 98.2224 152.009C98.2224 152.009 99.604 147.479 98.4074 146.874Z" fill="#E55353"/>
<path d="M104.032 143.43C103.826 144.527 103.743 145.644 103.786 146.761C103.946 147.669 100.085 144.3 100.085 144.3C100.407 142.789 100.531 141.24 100.455 139.695C100.171 138.093 104.032 143.43 104.032 143.43Z" fill="#EEA886"/>
<path d="M110.83 186.024C111.654 187.296 112.178 188.748 112.359 190.263C112.458 192.332 117.293 207.927 117.293 207.927L113.593 209.403C113.593 209.403 109.806 199.613 108.955 197.114C108.264 195.108 108.251 193.695 106.882 191.21C106.297 190.264 105.601 189.396 104.81 188.623L110.83 186.024Z" fill="#292C47"/>
<path d="M93.3004 187.4C92.4181 188.404 91.4523 189.329 90.4138 190.163C88.8842 191.425 75.3025 200.799 75.1175 200.938L72.3789 197.91C72.3789 197.91 81.2237 192.775 82.4572 190.415C83.6908 188.056 86.4911 186.781 87.3916 185.722C87.9093 185.201 88.2801 184.547 88.4648 183.829L93.3004 187.4Z" fill="#292C47"/>
<path d="M104.896 174.505C104.896 174.505 109.83 182.832 110.99 186.378L105.624 189.544C105.624 189.544 100.838 184.498 99.2093 182.302C97.5809 180.107 100.406 168.323 104.896 174.505Z" fill="#292C47"/>
<path d="M103.292 174.026C103.292 174.026 97.0011 185.179 92.6095 188.156C90.9772 187.223 89.4577 186.096 88.0823 184.8C88.0823 184.8 91.3513 174.833 91.9434 172.537C92.5355 170.241 103.292 174.026 103.292 174.026Z" fill="#292C47"/>
<path d="M100.011 144.275C100.011 144.275 103.712 146.306 103.897 146.394C104.082 146.483 106.746 151.441 106.241 155.567C105.735 159.693 104.427 162.002 103.909 166.594C103.755 168.883 104.079 171.18 104.859 173.332C105.019 173.761 105.242 174.417 104.859 174.366L91.7338 172.499C91.7338 172.499 94.8301 162.607 94.2009 157.459C93.6211 153.245 96.9272 146.495 100.011 144.275Z" fill="#E55353"/>
<path d="M117.676 208.861C118.254 209.11 118.852 209.304 119.465 209.442C120.698 209.694 123.165 208.445 124.14 209.088C125.114 209.732 125.053 210.931 122.511 211.713C119.97 212.495 115.937 214.047 115.554 213.757C115.019 212.605 114.777 211.333 114.851 210.06C114.913 209.038 117.676 208.861 117.676 208.861Z" fill="#326691"/>
<path d="M117.232 207.965L117.676 208.861L114.802 210.022L114.728 209.101L117.232 207.965Z" fill="#343A57"/>
<path d="M74.5746 201.594C74.5516 202.209 74.5847 202.826 74.6733 203.436C74.846 204.697 76.8691 206.703 76.5977 207.814C76.3263 208.924 75.2161 209.328 73.6371 207.158C72.0582 204.988 69.2333 201.631 69.3813 201.165C70.2708 200.248 71.3749 199.579 72.5886 199.222C73.4768 198.994 74.5746 201.594 74.5746 201.594Z" fill="#326691"/>
<path d="M75.2532 200.862L74.5747 201.594L72.527 199.234L73.3535 198.831L75.2532 200.862Z" fill="#3D476E"/>
<path d="M114.172 160.677C114.651 160.471 115.074 160.151 115.406 159.743C115.693 159.484 116.049 159.317 116.428 159.263C116.808 159.209 117.195 159.271 117.54 159.441C118.058 159.769 118.774 159.542 118.934 159.971C119.095 160.4 118.354 160.803 118.367 161.169C118.379 161.535 118.576 163.289 117.195 163.478C115.813 163.667 114.728 162.923 114.037 163.024C113.346 163.125 114.172 160.677 114.172 160.677Z" fill="#EEA886"/>
<path d="M106.672 135.317C106.981 136.025 107.213 136.765 107.363 137.525C107.363 138.068 106.796 138.08 107.079 138.648C107.363 139.216 108.017 140.414 107.721 140.768C107.425 141.121 106.87 140.932 106.709 141.676C106.549 142.42 105.476 143.998 104.563 144.01C103.65 144.023 100.862 142.875 100.628 142.155C100.393 141.436 99.3943 137.424 99.0365 136.654C98.6788 135.885 104.662 133.74 105.895 134.434C106.233 134.644 106.503 134.951 106.672 135.317Z" fill="#EEA886"/>
<path d="M98.0497 152.779C98.0497 152.779 97.0259 148.83 99.2833 148.704C101.923 148.565 101.75 151.871 101.75 151.871L98.0497 152.779Z" fill="#E55353"/>
<path d="M106.771 135.556C106.771 135.556 106.13 131.859 101.195 133.033C96.261 134.206 100.159 140.414 100.159 140.414L106.771 135.556Z" fill="#EEA886"/>
<path d="M102.33 137.525C102.274 137.361 102.177 137.215 102.05 137.1C101.922 136.986 101.767 136.907 101.601 136.871C101.435 136.836 101.263 136.845 101.101 136.897C100.939 136.95 100.793 137.044 100.677 137.171C99.8878 137.84 100.887 140.035 101.689 139.972C102.491 139.909 102.75 138.647 102.33 137.525Z" fill="#EEA886"/>
<path d="M106.611 135.001C105.592 135.769 104.36 136.185 103.095 136.187C100.986 136.187 100.134 136.187 99.2091 138.345C99.2091 138.345 96.3472 133.5 102.034 132.402C102.034 132.478 106.463 130.522 106.611 135.001Z" fill="#323657"/>
<path d="M101.751 151.87L103.292 161.143C103.292 161.143 103.761 161.837 106.315 161.585C108.868 161.333 114.308 160.576 114.308 160.576C114.356 161.391 114.356 162.208 114.308 163.023C114.308 163.339 103.206 165.547 101.232 164.361C99.2587 163.175 98.0745 152.779 98.0745 152.779L101.751 151.87Z" fill="#E55353"/>
<path d="M168.166 124.138C168.166 124.138 165.255 122.031 163.232 124.782C161.209 127.532 164.663 132.806 162.961 134.371C161.258 135.935 154.326 135.064 155.177 139.569C155.487 138.701 156.086 137.973 156.869 137.512C157.651 137.05 158.568 136.885 159.457 137.045C162.628 137.638 166.624 136.49 165.958 132.15C165.292 127.81 167.463 128.933 167.661 127.658C167.858 126.384 168.166 124.138 168.166 124.138Z" fill="#985E44"/>
<path d="M167.883 124.138C167.883 124.138 166.846 125.122 167.414 127.81C167.414 127.81 165.65 125.349 167.883 124.138Z" fill="#FAB46C"/>
<path d="M189.162 151.403C189.408 151.403 190.519 151.227 190.889 151.201C191.215 151.175 191.533 151.085 191.826 150.936C191.937 150.861 192.677 150.836 193.344 150.722C194.01 150.608 194.306 150.394 194.306 150.28C194.306 150.167 193.208 150.129 193.208 150.129C193.208 150.129 192.258 150.217 192.258 150.129C192.258 150.041 193.134 149.776 193.245 149.751C193.905 149.567 194.528 149.264 195.083 148.855C195.161 148.774 195.205 148.665 195.205 148.552C195.205 148.438 195.161 148.329 195.083 148.249C195.083 148.249 195.367 147.984 195.354 147.757C195.342 147.53 195.046 147.454 195.046 147.454C195.063 147.379 195.056 147.299 195.024 147.229C194.993 147.158 194.94 147.1 194.873 147.063C194.228 147.148 193.598 147.322 192.998 147.58C192.662 147.747 192.305 147.866 191.937 147.934C191.481 147.934 191.777 147.53 191.777 147.53C192.406 146.773 192.677 146.571 192.628 145.852C192.628 145.536 191.974 146.357 191.851 146.508C191.728 146.659 190.864 147.164 190.716 147.492C190.568 147.82 189.482 148.514 189.186 148.855C189.047 148.987 188.87 149.071 188.681 149.094L189.162 151.403Z" fill="#F9CDBA"/>
<path d="M160.197 191.803L159.667 192.346L157.804 190.478L158.322 189.936L160.197 191.803Z" fill="#F9CDBA"/>
<path d="M157.792 190.415C157.792 190.415 159.025 191.677 159.433 191.942C159.84 192.207 160.407 192.068 160.395 192.522C160.382 192.976 159.729 195.159 160.086 196.029C160.444 196.9 161.813 199.31 160.752 200.344C159.692 201.379 154.819 194.036 154.079 193.519C153.339 193.001 157.792 190.415 157.792 190.415Z" fill="#E55353"/>
<path d="M195.28 190.566L195.515 191.298L193.084 192.106L192.788 191.412L195.28 190.566Z" fill="#F9CDBA"/>
<path d="M176.419 174.845C176.419 174.845 173.656 180.511 172.718 181.457C171.781 182.403 160.518 192.219 160.518 192.219L157.224 189.519C159.324 187.304 161.281 184.952 163.084 182.479C164.266 181.153 165.289 179.687 166.131 178.113C166.661 176.968 167.05 175.76 167.29 174.517C167.315 174.202 176.419 174.845 176.419 174.845Z" fill="#4B5182"/>
<path d="M168.906 160.361C168.906 160.361 168.413 166.998 168.216 169.193C168.07 170.986 167.739 172.758 167.229 174.48L175.654 176.082C175.654 176.082 178.689 171.263 178.368 170.001C178.047 168.739 168.906 160.361 168.906 160.361Z" fill="#4B5182"/>
<path d="M173.89 143.404C173.89 143.404 167.722 150.508 168.092 151.315C168.672 152.438 174.161 156.362 174.161 156.362L172.509 158.166C172.509 158.166 161.813 153.523 163.22 150.293C164.626 147.063 169.733 140.111 169.733 140.111L173.89 143.404Z" fill="#E8734D"/>
<path d="M194.022 179.022C193.731 176.517 193.061 174.074 192.036 171.779C191 169.874 184.98 163.528 184.98 163.528C183.985 162.338 182.918 161.213 181.785 160.159C181.423 159.715 181.238 159.147 181.267 158.569C181.267 158.569 168.808 158.519 168.808 160.235C168.761 162.464 169.358 164.658 170.522 166.543C172.447 169.168 179.774 171.376 179.774 171.376C182.146 172.619 184.44 174.009 186.645 175.539C187.868 176.719 188.766 178.207 189.248 179.854C190.359 183.779 191.277 187.759 191.999 191.777L196.933 189.86C195.784 186.3 194.812 182.682 194.022 179.022Z" fill="#4B5182"/>
<path d="M170.041 131.62C170.041 131.62 170.868 134.56 170.325 135.645C169.782 136.73 175.013 137.121 175.013 137.121C175.013 137.121 173.952 134.673 174.445 133.449C174.852 132.478 170.041 131.62 170.041 131.62Z" fill="#F9CDBA"/>
<path d="M174.803 123.532C175.684 124.643 176.148 126.039 176.111 127.469C176.527 128.236 177.023 128.956 177.591 129.614C178.023 129.904 176.838 130.383 176.777 130.699C176.782 131.637 176.566 132.563 176.148 133.399C175.494 134.421 170.646 133.159 170.091 131.872C169.535 130.585 164.7 125.097 169.301 123.595C173.902 122.094 174.803 123.532 174.803 123.532Z" fill="#F9CDBA"/>
<path d="M170.128 135.582C170.128 135.582 169.647 137.398 169.005 139.367C168.073 141.962 167.872 144.773 168.425 147.479C169.079 151.353 170.041 156.147 168.586 160.285C168.586 160.285 176.986 160.904 181.6 159.756C181.6 159.756 182.241 155.075 181.6 153.056C179.75 146.874 181.995 147.706 180.576 144.905C179.158 142.104 176.012 138.345 175.444 137.335L170.128 135.582Z" fill="#E8734D"/>
<path d="M188.656 149.044L188.89 150.167L188.952 150.457L189.31 152.148C189.31 152.148 178.763 156.097 176.542 153.41C174.209 150.129 172.071 146.708 170.14 143.164L172.385 142.029L172.644 141.903L174.84 140.792C174.84 140.792 178.75 149.801 179.639 149.763C180.884 149.7 188.656 149.044 188.656 149.044Z" fill="#E8734D"/>
<path d="M175.481 137.272C175.373 136.72 175.344 136.155 175.395 135.594L169.943 134.219L170.103 135.67C171.834 136.4 173.637 136.937 175.481 137.272Z" fill="#E8734D"/>
<path d="M175.642 142.572L173.582 143.644L173.323 143.783L171.139 144.906C168.438 141.461 170.498 139.733 171.053 139.367L171.164 139.291H171.3C174.532 138.067 175.642 142.572 175.642 142.572Z" fill="#E8734D"/>
<path d="M192.949 192.106C192.949 192.106 194.627 191.525 195.034 191.324C195.441 191.122 195.613 190.503 195.996 190.718C196.378 190.932 197.957 192.56 198.882 192.636C199.808 192.711 202.583 192.636 202.929 194.036C203.274 195.437 194.713 196.484 193.923 196.913C193.134 197.342 192.949 192.106 192.949 192.106Z" fill="#E55353"/>
<path d="M175.444 124.554C175.444 124.554 175.333 125.892 171.016 127.974C171.016 127.974 170.128 130.182 169.363 130.648C169.363 130.648 165.378 127.078 167.624 124.163C169.869 121.249 174.186 121.123 175.444 124.554Z" fill="#985E44"/>
<path d="M171.016 127.974C170.621 127.444 169.56 127.911 169.782 128.769C170.004 129.627 171.016 130.346 171.275 129.879C171.424 129.572 171.48 129.225 171.433 128.885C171.387 128.545 171.242 128.228 171.016 127.974Z" fill="#F9CDBA"/>
</svg>
