<svg width="381" height="259" viewBox="0 0 381 259" fill="none" xmlns="http://www.w3.org/2000/svg">
<g clip-path="url(#clip0)">
<path d="M186.24 140.583C186.24 140.49 186.769 129.549 181.49 127.035L181.861 126.678C183.363 127.324 184.698 128.302 185.766 129.54C186.835 130.778 187.607 132.242 188.026 133.822C188.833 136.561 188.224 137.169 188.224 137.275L186.24 140.583Z" fill="#599DAD"/>
<path d="M159.343 33.4455C159.329 41.1998 162.024 48.7154 166.964 54.6931C171.069 59.6891 173.313 65.955 173.314 72.4214V81.7618C173.311 83.1863 173.588 84.5975 174.132 85.9145C174.675 87.2314 175.472 88.4282 176.479 89.4361C177.486 90.444 178.682 91.2432 179.998 91.788C181.314 92.3327 182.725 92.6122 184.15 92.6105H201.428C204.285 92.6 207.021 91.4607 209.041 89.4408C211.061 87.421 212.2 84.6844 212.211 81.828V72.4081C212.24 65.9228 214.517 59.6482 218.654 54.6534C222.997 49.3575 225.61 42.8556 226.139 36.0267C226.668 29.1978 225.088 22.3712 221.612 16.4694C218.136 10.5677 212.931 5.87549 206.702 3.02706C200.473 0.178624 193.52 -0.688699 186.782 0.542324L185.459 0.793695C178.046 2.46362 171.422 6.60615 166.676 12.5402C161.93 18.4743 159.344 25.8468 159.343 33.4455Z" fill="#FCEBD9"/>
<path d="M159.343 33.4456C159.329 41.1998 162.024 48.7154 166.964 54.6931C171.069 59.6891 173.313 65.955 173.314 72.4214V81.7618C173.311 83.1864 173.588 84.5976 174.132 85.9145C174.675 87.2314 175.472 88.4282 176.479 89.4361C177.486 90.444 178.682 91.2432 179.998 91.788C181.314 92.3327 182.725 92.6122 184.15 92.6105H186.796C189.654 92.6035 192.394 91.4657 194.417 89.4455C196.44 87.4252 197.581 84.6867 197.591 81.828V72.4082C197.616 65.9242 199.888 59.6495 204.021 54.6534C207.645 50.2408 210.078 44.974 211.09 39.3546C212.102 33.7351 211.659 27.9502 209.802 22.5508C207.945 17.1513 204.737 12.3171 200.483 8.50866C196.229 4.70017 191.07 2.0442 185.499 0.793701C178.079 2.4558 171.445 6.59498 166.691 12.5298C161.937 18.4646 159.346 25.8414 159.343 33.4456Z" fill="#FAE2C9"/>
<path d="M185.367 62.9222C186.195 63.645 187.08 64.2998 188.013 64.8803C189.336 65.7799 191.982 66.362 192.458 72.9109C192.458 78.7322 192.458 93.3646 192.458 93.5234H193.12C193.12 93.3646 193.12 79.3672 193.12 73.3078C193.12 73.3078 193.12 73.1623 193.12 72.9109C193.12 72.2759 193.12 71.7334 193.12 71.3365C193.12 67.566 197.287 64.9596 197.327 64.9332C199.973 63.2794 203.016 60.1306 203.016 56.1749C203.016 53.4625 201.938 50.8613 200.02 48.9434C198.102 47.0255 195.501 45.948 192.789 45.948C190.076 45.948 187.475 47.0255 185.557 48.9434C183.639 50.8613 182.562 53.4625 182.562 56.1749C182.562 57.4288 182.81 58.6703 183.292 59.8282C183.773 60.986 184.478 62.0375 185.367 62.9222ZM185.803 62.7502C184.094 60.9735 183.145 58.6005 183.157 56.1352C183.286 53.6818 184.352 51.3715 186.134 49.6806C187.916 47.9896 190.279 47.047 192.736 47.047C195.193 47.047 197.556 47.9896 199.338 49.6806C201.12 51.3715 202.185 53.6818 202.314 56.1352C202.235 57.8836 201.718 59.5842 200.813 61.0818C199.907 62.5793 198.64 63.8261 197.128 64.7083C196.322 65.1771 195.572 65.7364 194.892 66.3752C193.779 67.3746 192.98 68.6751 192.59 70.1194C192.345 68.9559 191.837 67.8637 191.106 66.9261C190.374 65.9884 189.439 65.2299 188.37 64.7083C187.422 64.1859 186.557 63.5261 185.803 62.7502Z" fill="#EE9849"/>
<path d="M201.362 92.6106V92.9017L200.886 96.5399L200.767 97.4925L200.634 98.4583L200.171 102.097L200.039 103.049L199.92 104.015L199.774 104.518C199.536 106.357 197.433 107.772 194.906 107.772H189.23C188.649 107.773 188.071 107.697 187.51 107.547C187.046 107.422 186.601 107.235 186.187 106.992C185.874 106.808 185.585 106.586 185.327 106.33C184.822 105.863 184.49 105.238 184.388 104.557L184.176 103.195L184.057 102.308L183.925 101.435L183.448 98.0746L183.316 97.1882L183.184 96.315L182.668 92.6106H201.362Z" fill="#AFCDFB"/>
<path d="M199.1 92.6104H195.898L183.184 96.2619L183.316 97.1351L183.448 98.0215C185.38 97.4791 190.063 96.1561 201.322 92.875V92.584L199.1 92.6104Z" fill="#9ABCEF"/>
<path d="M184.057 102.215L184.176 103.102C186.412 102.467 191.016 101.157 200.595 98.3787L200.727 97.4129L200.846 96.4603L183.898 101.342L184.057 102.215Z" fill="#9ABCEF"/>
<path d="M186.187 106.965C186.601 107.209 187.046 107.395 187.51 107.521L199.854 103.962L199.973 102.996L200.105 102.043L185.301 106.304C185.567 106.561 185.865 106.783 186.187 106.965Z" fill="#9ABCEF"/>
<path d="M172.441 118.938C172.441 118.938 171.846 124.561 174.783 126.876C177.72 129.192 183.118 127.525 183.118 127.525C183.118 127.525 183.713 121.902 180.776 119.507C177.839 117.113 172.441 118.938 172.441 118.938Z" fill="#599DAD"/>
<path d="M185.34 161.089C184.223 151.731 185.199 142.241 188.198 133.306C191.014 125.084 191.728 116.288 190.275 107.719H193.715C193.808 108.222 194.046 119.626 190.381 135.41C187.073 149.553 193.239 161.076 191.929 161.076L185.34 161.089Z" fill="#599DAD"/>
<path d="M192.564 123.04C192.564 123.04 194.231 113.54 198.65 112.456C197.402 112.67 196.221 113.172 195.199 113.92C194.177 114.668 193.343 115.643 192.762 116.769C191.717 118.727 192.074 119.282 192.061 119.415L192.564 123.04Z" fill="#599DAD"/>
<path d="M104.954 193.133H59.2972C57.4998 193.133 56.0426 194.59 56.0426 196.387C56.0426 198.185 57.4998 199.642 59.2972 199.642H104.954C106.752 199.642 108.209 198.185 108.209 196.387C108.209 194.59 106.752 193.133 104.954 193.133Z" fill="#F99746"/>
<path d="M68.6774 199.642L68.0555 203.452L59.0855 258.595C59.0634 258.699 59.0042 258.791 58.9189 258.854C58.8337 258.918 58.7283 258.948 58.6225 258.939C58.1594 258.939 57.8022 258.622 57.8552 258.251L64.9597 201.772L65.2375 199.642H68.6774Z" fill="#EFCBAB"/>
<path d="M68.6774 199.642L68.0555 203.452C67.6322 201.931 64.9597 201.772 64.9597 201.772L65.2375 199.642H68.6774Z" fill="#CCA07F"/>
<path d="M105.616 258.939C105.51 258.948 105.405 258.918 105.319 258.854C105.234 258.791 105.175 258.699 105.153 258.595L96.1827 203.452L95.799 201.071L95.5609 199.642H99.0007L99.2785 201.772L99.4902 203.452L106.396 258.251C106.395 258.349 106.373 258.446 106.332 258.535C106.292 258.624 106.232 258.704 106.159 258.768C106.085 258.833 105.999 258.882 105.905 258.911C105.812 258.941 105.713 258.95 105.616 258.939Z" fill="#EFCBAB"/>
<path d="M99.4902 203.452C98.6038 201.64 95.799 201.084 95.799 201.084L95.5609 199.655H99.0007L99.2785 201.785L99.4902 203.452Z" fill="#CCA07F"/>
<path d="M90.6658 65.0522C90.6658 64.7347 90.4144 61.361 85.2679 61.1758C85.2679 61.1758 87.7948 61.4801 88.2314 62.5914C88.2314 62.5914 86.5115 61.2684 85.1091 61.6653C83.7067 62.0622 82.8732 64.5627 82.8732 65.3697C82.8732 66.1768 83.6406 68.7831 84.527 69.008C84.885 69.0807 85.2539 69.0807 85.6119 69.008C85.3531 69.4055 85.1232 69.8211 84.9239 70.2516C82.86 74.4588 84.9239 78.5866 86.7232 78.1235C87.8345 77.8325 88.152 79.7376 88.152 79.7376L98.9875 70.966C98.9875 70.966 95.0052 62.7369 90.6658 65.0522Z" fill="#2C3A64"/>
<path d="M117.245 113.369C117.245 113.369 119.402 112.945 119.891 113.369C120.381 113.792 122.709 116.147 122.206 116.927C121.704 117.708 119.322 116.279 118.819 116.147C118.317 116.015 116.941 115.472 116.941 115.472L117.245 113.369Z" fill="#FFB27D"/>
<path d="M94.4363 189.27L92.1343 190.13C92.1343 190.13 82.1456 176.264 80.902 164.066C80.6623 161.981 80.7741 159.87 81.2327 157.822C81.2327 157.822 81.1401 157.266 80.9681 156.287C80.8887 155.824 80.7961 155.268 80.6771 154.633C80.3595 152.768 79.9097 150.228 79.354 147.317C78.1766 140.702 76.708 132.116 75.4776 125.831L76.0994 125.633L82.8071 123.476L84.2359 119.071L89.2237 117.748C89.2237 117.748 90.3482 119.931 91.3405 130.25C91.5257 131.573 91.6977 133.095 91.8168 134.709C92.2597 140.735 92.0824 146.791 91.2876 152.781C91.0627 154.567 90.7716 156.419 90.4144 158.324C90.1468 160.137 90.0802 161.974 90.216 163.802C90.7716 173.777 94.4363 189.27 94.4363 189.27Z" fill="#200660"/>
<path d="M91.8168 134.709L80.9681 156.287C80.8887 155.824 80.7961 155.268 80.6771 154.633C80.3595 152.768 79.9097 150.228 79.354 147.317C78.1766 140.702 76.708 132.116 75.4776 125.831L76.0994 125.633L82.8071 123.476L84.2359 119.071L89.2237 117.748C89.2237 117.748 90.3482 119.931 91.3405 130.25C91.5257 131.6 91.6977 133.095 91.8168 134.709Z" fill="#233862"/>
<path d="M87.0407 120.526L86.7893 118.369C82.5822 119.481 71.3498 115.247 71.3498 115.247C71.3498 115.247 67.2617 118.832 67.8042 127.419C68.0688 131.613 68.5451 149.42 69.0346 154.699C69.2198 156.604 69.3786 157.967 69.4447 158.509C69.4529 158.676 69.4115 158.842 69.3256 158.986C68.5915 160.214 67.9715 161.507 67.4734 162.849C62.5783 175.881 68.2275 191.955 68.2275 191.955L69.6828 191.36C69.6828 191.36 72.8978 173.499 75.5041 165.601C75.842 164.553 76.2853 163.543 76.8271 162.584C78.2423 159.94 79.3011 157.119 79.9758 154.196C81.7918 146.866 83.2051 139.442 84.2095 131.957C84.2889 131.957 87.0407 120.526 87.0407 120.526Z" fill="#200660"/>
<path d="M117.245 113.369L116.941 115.472H116.557C115.79 115.472 113.911 115.313 111.821 115.089C108.645 114.771 104.888 114.215 103.393 113.289C101.104 111.9 97.3602 107.627 94.9258 103.367C94.8584 103.267 94.8008 103.16 94.7539 103.049C93.546 101.139 92.7819 98.9827 92.518 96.7384C92.4656 95.7939 92.5639 94.8472 92.809 93.9336C93.0745 92.9944 93.5243 92.1174 94.132 91.3537C94.1961 91.2412 94.2763 91.1387 94.3702 91.0494C94.8292 90.483 95.3901 90.0073 96.0239 89.6471C96.4473 89.4751 96.8971 89.6471 97.347 90.1763C97.8246 90.7116 98.2294 91.3077 98.5509 91.9491C98.6435 92.1078 98.7229 92.2798 98.8287 92.4783C98.9346 92.6767 98.8287 92.5577 98.9081 92.5974L99.477 93.8542C101.62 98.5112 103.896 105.589 105.801 107.693C106.621 108.606 110.365 110.339 113.342 111.662C115.512 112.667 117.245 113.369 117.245 113.369Z" fill="#FFB27D"/>
<path d="M95.0846 94.3966C93.557 95.0786 91.9139 95.4647 90.2424 95.5344C83.0055 95.9313 81.365 89.5941 81.0607 85.3737C81.8605 85.1042 82.7068 85.0006 83.548 85.0694C84.0639 85.0694 84.5931 85.1488 85.0297 85.2017C85.9162 84.7386 87.5038 82.4895 88.4299 78.7322L88.7342 78.8777L94.0262 81.3385C94.0262 81.3385 93.4705 83.032 93.0604 84.6593C92.7079 85.5641 92.5545 86.5343 92.6106 87.5037L93.2721 87.7816C94.087 89.9233 94.694 92.1386 95.0846 94.3966Z" fill="#FFB27D"/>
<path d="M93.9336 81.3384C93.9336 81.3384 93.3779 83.0318 92.9678 84.6591C89.9249 83.8124 88.9988 80.5975 88.7077 78.8776L93.9336 81.3384Z" fill="#ED985F"/>
<path d="M94.6083 83.1378C94.6083 83.1378 87.3053 81.4444 88.4299 76.9197C89.5544 72.395 89.356 69.1139 94.0659 70.0004C98.7758 70.8868 99.2256 72.8448 99.2256 74.4457C99.2256 76.0465 96.5796 83.4554 94.6083 83.1378Z" fill="#FFB27D"/>
<path d="M99.649 71.8789C98.8684 70.2384 97.9423 70.3178 97.3734 70.5559C96.4909 69.6719 95.3242 69.1286 94.0797 69.0221C92.8352 68.9156 91.5931 69.2527 90.5732 69.9738C89.7608 71.8751 88.3103 73.4333 86.4718 74.3794C86.4718 74.3794 87.5964 75.5304 90.8378 75.5039C91.8946 75.4416 92.9085 75.0637 93.7484 74.4191C92.623 75.5467 91.3501 76.5169 89.9646 77.3032C94.0262 76.5227 96.7648 71.8128 97.0427 71.3232C97.5885 72.0612 97.9513 72.9182 98.1011 73.8237C98.1805 75.0674 97.7439 77.4885 98.4583 77.5678C98.4318 77.5678 100.826 74.3397 99.649 71.8789Z" fill="#2C3A64"/>
<path d="M99.5167 93.9336C99.2256 93.0736 97.5057 89.9645 97.5057 89.9645C96.237 88.9911 94.8152 88.2355 93.2985 87.7286C93.2985 87.9139 94.6216 92.6767 94.185 93.6954C93.7484 94.7141 84.4476 91.3934 83.9449 90.626C83.4421 89.8587 83.5215 86.7761 83.5347 85.5192C83.5347 85.2017 83.5347 85.0165 83.5347 85.0165C81.7325 84.7552 79.896 84.8632 78.1369 85.334C78.6275 86.4509 78.9785 87.624 79.1821 88.8267C79.1821 88.9987 79.1821 89.184 79.1821 89.3559C79.2149 89.7212 79.2149 90.0888 79.1821 90.454C79.1338 90.962 78.898 91.4337 78.5205 91.7771C78.1112 92.1997 77.6688 92.589 77.1975 92.9413L76.0598 93.7616C76.1255 96.9353 76.0284 100.11 75.7687 103.274C75.6677 104.216 75.3508 105.121 74.8426 105.92C74.6447 106.243 74.4189 106.549 74.1679 106.833C72.1304 109.122 68.5054 113.686 69.2992 116.517C69.3653 119.163 91.9359 122.709 91.4463 119.772C91.4463 119.772 94.8465 103.433 96.6722 99.477C96.7384 99.3314 96.8045 99.1991 96.8574 99.0536C97.339 97.5722 97.4391 95.9932 97.1485 94.4628C97.8676 94.0546 98.6922 93.8703 99.5167 93.9336Z" fill="#FCBC00"/>
<path d="M85.4134 114.374C80.9549 114.374 77.1975 109.704 74.8293 106.013C75.3376 105.214 75.6545 104.308 75.7554 103.367C76.0151 100.203 76.1123 97.0278 76.0465 93.8541L77.1843 93.0339C77.6556 92.6816 78.098 92.2923 78.5073 91.8696C82.2779 97.9819 91.4463 114.44 85.4134 114.374Z" fill="#ED7D2B"/>
<path d="M102.242 116.795L101.634 119.071L99.6358 118.714L99.0669 118.594C98.0878 118.396 96.9236 118.131 95.6535 117.854C93.4705 117.338 91.0362 116.703 89.0385 116.015C87.7973 115.618 86.6037 115.086 85.4796 114.427C85.395 114.377 85.3152 114.32 85.2414 114.255C83.1908 112.773 80.7829 108.421 78.891 103.75C78.6396 103.102 78.3882 102.427 78.1501 101.832C77.3241 99.6797 76.6607 97.4685 76.1656 95.2169C75.9191 94.1825 75.7598 93.1292 75.6893 92.0681C75.6697 91.773 75.6697 91.4769 75.6893 91.1817C75.6893 86.1278 78.2295 85.4266 78.2295 85.4266H78.4015C78.8381 85.4266 79.2879 85.6515 79.7245 86.2337C80.4764 87.2528 81.1028 88.3589 81.5899 89.528C82.5822 91.7638 83.6274 94.6745 84.5932 97.5719C85.1356 99.1595 85.6648 100.734 86.1808 102.202C86.4851 103.089 86.7761 103.922 87.054 104.69C87.4556 105.859 87.9466 106.996 88.5225 108.09C89.118 108.854 89.8435 109.508 90.6658 110.021C92.8868 111.57 95.1876 113.001 97.5586 114.308L100.205 115.79L102.242 116.795Z" fill="#FFB27D"/>
<path d="M81.537 89.4219C80.4838 89.1996 79.3922 89.2376 78.357 89.5327C77.3219 89.8278 76.3743 90.3711 75.5967 91.1154C75.5967 86.0747 78.1501 85.3867 78.1501 85.3867C79.1688 84.9634 80.3331 86.7097 81.537 89.4219Z" fill="#FCBC00"/>
<path d="M76.7345 193.159H65.1582C65.0076 192.111 65.1213 191.043 65.4889 190.05C66.071 188.727 66.9707 188.185 66.8119 186.624C67.2581 187.128 67.8193 187.518 68.448 187.76C69.0767 188.001 69.7544 188.088 70.4237 188.013C70.9802 188.976 71.6558 189.865 72.4347 190.659C73.1359 191.135 76.5228 190.937 76.7345 193.159Z" fill="#233862"/>
<path d="M101.634 193.159H90.044C89.8104 192.115 89.9266 191.022 90.3747 190.05C90.643 189.657 90.7798 189.19 90.7655 188.714C90.7513 188.239 90.5866 187.78 90.2953 187.404C90.9067 187.675 91.5721 187.802 92.2402 187.775C92.8575 187.71 93.4511 187.502 93.9733 187.166C95.0053 188.387 96.1052 189.548 97.2676 190.646C98.0349 191.135 101.409 190.937 101.634 193.159Z" fill="#233862"/>
<path d="M105.841 134.087L107.442 134.735L115.102 137.897C116.571 138.493 118.216 138.483 119.678 137.871C121.14 137.259 122.301 136.094 122.907 134.629L123.662 132.79C124.156 132.473 124.658 132.129 125.17 131.758C133.571 125.712 142.647 131.586 142.647 131.586C142.733 131.391 142.774 131.178 142.766 130.965C142.754 130.61 142.623 130.27 142.395 129.999C136.746 126.03 128.676 125.606 125.196 125.606C124.072 125.606 123.41 125.606 123.41 125.606L123.185 125.514C124.627 120.658 122.868 115.71 118.952 114.109C118.113 113.761 117.213 113.586 116.306 113.594C114.562 113.623 112.869 114.182 111.45 115.194C109.939 116.247 108.704 117.65 107.852 119.282C107.414 119.161 106.948 119.205 106.541 119.405C106.133 119.605 105.814 119.947 105.642 120.367L102.93 127.128C102.658 127.775 102.518 128.47 102.518 129.172C102.518 129.874 102.657 130.569 102.928 131.217C103.199 131.865 103.596 132.452 104.096 132.945C104.596 133.437 105.189 133.826 105.841 134.087ZM116.994 119.666L116.557 119.481C116.377 119.404 116.184 119.363 115.988 119.362C115.679 119.36 115.376 119.451 115.119 119.624C114.862 119.796 114.662 120.041 114.546 120.328L111.411 119.005C111.002 118.841 110.549 118.829 110.132 118.97C109.715 119.11 109.361 119.395 109.135 119.772L108.672 119.587C109.522 117.972 110.776 116.605 112.31 115.618C113.724 114.687 115.416 114.276 117.099 114.453C117.617 114.52 118.124 114.654 118.608 114.85C122.114 116.279 123.662 120.751 122.392 125.183L122.061 125.038C122.164 124.61 122.112 124.159 121.913 123.766C121.714 123.373 121.382 123.064 120.976 122.894L117.84 121.571C117.965 121.205 117.947 120.806 117.79 120.453C117.633 120.1 117.349 119.819 116.994 119.666Z" fill="#C94C43"/>
<path d="M123.701 132.79C124.195 132.473 124.698 132.129 125.21 131.758C133.611 125.712 142.686 131.586 142.686 131.586C142.773 131.391 142.814 131.178 142.806 130.964C139.284 128.679 135.057 127.739 130.898 128.318C123.953 129.403 122.696 130.369 123.701 132.79Z" fill="#B23B38"/>
<path d="M105.841 134.087L107.442 134.735C105.047 133.412 108.01 127.882 109.757 124.23C111.503 120.579 114.136 122.246 114.136 122.246C114.309 121.893 114.578 121.596 114.913 121.39C115.248 121.183 115.635 121.077 116.028 121.082C116.016 120.773 116.104 120.47 116.278 120.215C116.451 119.96 116.702 119.768 116.994 119.666L116.557 119.481C116.377 119.404 116.184 119.363 115.988 119.362C115.679 119.36 115.376 119.451 115.119 119.623C114.862 119.796 114.662 120.041 114.546 120.327L111.411 119.004C111.002 118.841 110.549 118.829 110.132 118.969C109.715 119.11 109.361 119.394 109.135 119.772L108.672 119.587C109.522 117.972 110.776 116.605 112.31 115.618C113.724 114.687 115.416 114.276 117.099 114.453C116.797 114.206 116.541 113.905 116.345 113.567C114.602 113.597 112.909 114.155 111.49 115.168C109.979 116.221 108.744 117.623 107.891 119.256C107.454 119.135 106.988 119.178 106.58 119.378C106.173 119.578 105.853 119.921 105.682 120.341L102.93 127.128C102.658 127.775 102.518 128.47 102.518 129.172C102.518 129.874 102.657 130.569 102.928 131.217C103.199 131.864 103.596 132.452 104.096 132.944C104.596 133.437 105.189 133.826 105.841 134.087Z" fill="#B23B38"/>
<path d="M109.452 118.952C108.328 119.428 106.806 121.068 104.253 120.063C102.744 119.501 101.202 119.033 99.6358 118.661L99.0669 118.541L100.059 115.644H100.178C101.959 116.085 103.798 116.25 105.629 116.134C107.362 115.723 110.246 117.801 110.246 117.801C110.246 117.801 110.564 118.502 109.452 118.952Z" fill="#FFB27D"/>
<path d="M140.914 136.442C141.343 134.937 141.98 133.498 142.806 132.168C143.631 133.498 144.268 134.937 144.697 136.442C144.697 136.944 144.498 137.425 144.143 137.78C143.789 138.134 143.307 138.334 142.806 138.334C142.304 138.334 141.823 138.134 141.468 137.78C141.113 137.425 140.914 136.944 140.914 136.442Z" fill="#AFCDFB"/>
<path d="M174.862 98.0745C174.862 98.0745 170.099 91.3271 164.675 89.3559C164.675 89.3559 166.699 105.153 163.736 105.351C160.772 105.549 162.73 87.583 162.73 87.583C162.73 87.583 148.614 79.7508 142.885 79.9625C142.885 79.9625 150.995 95.746 148.071 95.2036C145.147 94.6611 135.952 78.6395 135.952 78.6395C135.952 78.6395 121.214 75.0012 118.317 83.6934C115.419 92.3855 119.071 97.0161 121.214 97.6908C123.357 98.3655 137.553 99.0138 137.09 100.84C136.627 102.665 126.877 105.034 121.637 103.062C121.637 103.062 126.678 117.933 134.444 117.615C142.21 117.298 144.869 112.694 149.672 112.601C154.474 112.509 157.901 114.004 155.427 115.155C152.953 116.306 144.922 114.956 140.874 118.012C136.826 121.068 133.571 122.907 140.662 124.799C147.754 126.691 158.43 124.561 163.511 121.174C163.511 121.174 167.665 120.843 170.919 140.001C172.176 147.383 171.211 158.351 171.211 158.351L173.857 157.941C174.603 144.53 172.455 131.115 167.559 118.608C167.559 118.608 180.683 108.923 174.862 98.0745Z" fill="#6BB7BF"/>
<path d="M217.886 126.413C217.886 126.413 202.01 119.798 207.712 107.64C207.712 107.64 212.488 100.059 218.296 97.5983C218.296 97.5983 216.973 114.797 220.254 114.89C223.536 114.983 220.254 95.5608 220.254 95.5608C220.254 95.5608 235.099 86.2998 241.317 86.141C241.317 86.141 233.458 103.724 236.594 102.97C239.729 102.216 248.726 84.2888 248.726 84.2888C248.726 84.2888 264.483 79.4863 268.147 88.7341C271.812 97.9819 268.147 103.287 265.859 104.081C263.57 104.875 248.223 106.476 248.845 108.487C249.466 110.498 260.17 112.456 265.726 109.995C265.726 109.995 261.149 126.413 252.708 126.572C244.267 126.731 241.105 121.849 235.892 122.034C230.68 122.219 227.068 124.032 229.807 125.13C232.545 126.228 241.184 124.31 245.762 127.379C250.34 130.449 253.951 132.261 246.384 134.735C238.816 137.209 224.792 137.778 221.339 132.089L217.886 126.413Z" fill="#86D1CD"/>
<path d="M261.135 92.6106C261.135 92.6106 220.942 110.776 217.886 126.413C218.32 131.517 217.517 136.65 215.545 141.377L215.889 144.353C215.889 144.353 219.117 133.769 221.339 132.063C221.339 132.063 210.517 120.01 261.135 92.6106Z" fill="#6BB7BF"/>
<path d="M215.545 141.377C213.997 144.825 213.172 148.554 213.12 152.333C213.068 156.112 213.789 159.862 215.24 163.352L216.841 162.717C216.841 162.717 213.745 149.804 216.378 142.872C219.011 135.939 215.545 141.377 215.545 141.377Z" fill="#6BB7BF"/>
<path d="M157.438 54.2434C163.934 61.1627 160.547 74.8823 160.547 74.8823C160.547 74.8823 146.669 77.449 140.239 70.5296C133.809 63.6103 137.117 49.9039 137.117 49.9039C137.117 49.9039 150.968 47.377 157.438 54.2434Z" fill="#6BB7BF"/>
<path d="M157.438 54.2434C163.934 61.1627 160.547 74.8823 160.547 74.8823L137.05 49.9039C137.05 49.9039 150.969 47.377 157.438 54.2434Z" fill="#86D1CD"/>
<path d="M232.201 76.2448C228.814 80.2138 221.154 79.1157 221.154 79.1157C221.154 79.1157 218.984 71.6937 222.385 67.7643C225.785 63.835 233.432 64.8934 233.432 64.8934C233.432 64.8934 235.588 72.3155 232.201 76.2448Z" fill="#6BB7BF"/>
<path d="M232.201 76.245C228.814 80.214 221.154 79.1159 221.154 79.1159L233.432 64.8936C233.432 64.8936 235.588 72.3156 232.201 76.245Z" fill="#86D1CD"/>
<path d="M252.523 143.004V143.07L250.988 166.659L245.286 254.269H138.678L132.407 167.863L130.674 144.049L130.594 143.004H252.523Z" fill="#FCBC00"/>
<path d="M252.523 143.07L250.988 166.699C231.822 160.341 211.752 157.128 191.558 157.186C154.845 157.186 132.407 167.903 132.407 167.903L130.674 144.089L252.523 143.07Z" fill="#E58638"/>
<path d="M256.227 155.48H126.731L125.249 140.424H257.868L256.227 155.48Z" fill="#FCBC00"/>
<path d="M246.926 258.939H136.389L135.132 253.7H248.329L246.926 258.939Z" fill="#E58638"/>
<path d="M192.643 256.928V256.015C190.635 253.826 188.804 251.482 187.166 249.003L183.62 242.468L178.99 243.619L184.877 251.94L192.643 256.928Z" fill="#FFB27D"/>
<path d="M166.792 137.064C167.599 133.743 166.434 132.195 165.376 131.361C165.079 130.4 164.498 129.552 163.709 128.927C162.709 128.419 161.585 128.203 160.468 128.305C160.667 128.141 160.903 128.028 161.156 127.975C160.532 128.021 159.922 128.183 159.356 128.451C151.643 125.474 150.426 136.839 150.585 139.485C150.744 142.131 150.73 145.24 146.708 147.317C139.048 151.286 149.262 166.249 149.262 166.249C149.063 164.119 158.907 152.847 164.053 149.473C164.956 147.834 165.54 146.038 165.773 144.181C165.716 145.845 165.362 147.485 164.728 149.024C167.07 146.854 167.413 141.641 166.792 137.064Z" fill="#A9453D"/>
<path d="M163.749 149.645C162.415 150.368 160.886 150.646 159.383 150.439C158.105 149.9 157.07 148.912 156.472 147.661C157.226 147.502 157.438 146.47 157.425 142.038H157.756L163.471 143.176C163.471 143.176 163.339 144.962 163.339 146.655C163.339 148.177 163.418 149.5 163.749 149.645Z" fill="#FFB27D"/>
<path d="M163.471 143.242C163.471 143.242 163.339 145.028 163.339 146.722C160.137 146.642 158.457 143.718 157.756 142.104L163.471 143.242Z" fill="#ED975D"/>
<path d="M186.227 246.715L183.197 246.807L179.929 246.913C174.607 240.435 170.595 232.986 168.115 224.977C168.026 224.66 167.921 224.342 167.797 224.025C165.482 217.251 160.666 208.757 158.126 201.057C157.716 199.827 157.359 198.676 157.028 197.578C156.922 197.234 156.829 196.89 156.724 196.546C155.27 191.543 154.295 186.413 153.813 181.226L172.15 181.371C174.692 203.561 179.407 225.447 186.227 246.715Z" fill="#200660"/>
<path d="M169.583 170.84C169.583 179.572 170.906 183.303 170.906 183.303C165.488 185.718 159.38 186.094 153.707 184.361C153.601 184.361 145.994 182.588 145.994 182.588C146.153 182.231 147.542 176.357 147.687 176.039C149.659 171.806 151.154 169.953 151.379 168.657C151.78 166.239 151.86 163.779 151.617 161.341C151.246 157.451 150.488 153.609 149.354 149.87C151.935 149.163 154.463 148.279 156.922 147.224C158.037 148.23 159.496 148.77 160.997 148.732C162.849 148.732 163.458 147.899 163.365 147.026C165.336 148.137 166.924 149.169 166.924 149.169C168.604 152.093 172.018 154.937 172.216 159.409C172.295 160.586 169.583 170.668 169.583 170.84Z" fill="#E7F1FD"/>
<path d="M164.543 144.843C164.543 144.843 156.975 144.962 156.975 140.252C156.975 135.542 155.996 132.393 160.812 132.115C165.627 131.838 166.58 133.624 166.964 135.198C167.347 136.772 166.501 144.684 164.543 144.843Z" fill="#FFB27D"/>
<path d="M164.265 131.996C164.265 131.996 162.188 137.527 158.973 138.334C155.758 139.141 154.422 138.334 154.422 138.334C155.981 136.96 157.018 135.091 157.359 133.042C157.359 133.042 162.73 129.364 164.265 131.996Z" fill="#A9453D"/>
<path d="M163.749 132.446C164.572 133.094 165.229 133.929 165.667 134.881C166.051 136.071 166.21 138.545 166.99 138.466C166.99 138.466 168.551 134.709 166.792 132.579C165.032 130.449 163.749 132.446 163.749 132.446Z" fill="#A9453D"/>
<path d="M158.88 255.79C158.615 254.375 158.126 251.927 158.126 251.927L158.245 243.248H152.953L154.924 251.557C155.037 252.727 154.902 253.908 154.527 255.023C154.527 255.023 154.011 257.325 156.287 257.378C158.563 257.431 159.131 257.206 158.88 255.79Z" fill="#FFB27D"/>
<path d="M154.541 255.023C154.314 256.333 154.256 257.667 154.369 258.992C154.369 258.992 155.03 258.992 156.684 258.992C158.338 258.992 159.092 258.992 159.092 258.992C159.13 257.659 159.006 256.326 158.721 255.023C158.721 255.023 157.107 257.378 154.541 255.023Z" fill="#1E3D70"/>
<path d="M176.436 176.899L180.009 187.788L177.971 188.595L172.07 178.977L176.436 176.899Z" fill="#FFB27D"/>
<path d="M195.329 258.939C195.329 258.939 190.778 259.032 190.037 258.939C189.296 258.846 188.714 257.457 187.841 255.777C187.636 255.433 187.36 255.137 187.031 254.909C186.703 254.681 186.329 254.526 185.936 254.454V258.873H184.785L183.581 254.203C183.32 253.613 183.215 252.967 183.275 252.325C183.335 251.684 183.559 251.068 183.925 250.538C184.533 250.538 186.293 250.948 189.375 254.427C189.765 254.917 190.263 255.309 190.83 255.573C191.397 255.837 192.018 255.966 192.643 255.949C195.25 257.193 195.329 258.939 195.329 258.939Z" fill="#1E3D70"/>
<path d="M177.283 177.958C177.283 177.958 176.727 176.542 175.96 174.743C175.193 172.944 173.38 155.48 172.15 152.874C170.919 150.267 166.726 148.6 166.726 148.6L163.259 147.092C163.259 147.092 167.625 157.901 167.757 160.084C167.89 162.267 168.273 195.805 168.273 195.805C168.273 195.805 168.009 197.353 170.919 196.705C172.241 196.524 173.51 196.074 174.65 195.382C174.65 195.382 173.579 187.523 172.93 179.797C174.521 179.59 176.026 178.955 177.283 177.958Z" fill="#200660"/>
<path d="M183.197 246.807L179.929 246.913C174.607 240.436 170.595 232.986 168.115 224.978C168.026 224.66 167.921 224.343 167.797 224.025C165.482 217.251 160.666 208.758 158.126 201.058C157.716 199.827 157.359 198.676 157.028 197.578C156.922 197.234 156.829 196.89 156.724 196.546L159.37 194.509C159.37 194.509 167.48 207.62 169.954 219.977C172.216 230.693 180.948 243.606 183.197 246.807Z" fill="#1E3D70"/>
<path d="M159.714 221.114C159.714 227.121 159.449 240.959 158.668 246.648H155.771C154.17 246.648 153.363 246.648 153.363 246.648C151.405 236.712 150.003 228.483 148.997 221.405C148.164 215.584 147.423 210.609 146.854 206.31C146.285 202.01 145.875 198.372 145.729 195.329C145.729 194.839 145.729 194.376 145.729 193.926C145.729 193.477 145.729 193.027 145.729 192.603L161.605 191.055C161.314 201.547 159.687 217.635 159.714 221.114Z" fill="#200660"/>
<path d="M155.771 246.648C154.17 246.648 153.363 246.648 153.363 246.648C151.405 236.713 150.003 228.483 148.997 221.405C148.164 215.584 147.423 210.61 146.854 206.31C146.285 202.01 145.875 198.372 145.729 195.329L151.537 198.742C151.537 198.742 147.833 200.065 149.249 209.961C150.664 219.857 153.8 245.246 155.771 246.648Z" fill="#1E3D70"/>
<path d="M156.512 195.196C156.512 195.196 155.401 199.232 151.537 198.716C148.334 198.101 145.203 197.152 142.197 195.884C142.197 195.884 143.851 190.672 145.901 183.832C148.375 175.55 151.458 164.86 152.9 158.126C153.254 156.608 153.514 155.071 153.681 153.522L156.882 147.317C156.882 147.317 161.658 158.033 161.923 160.732C162.188 163.431 156.512 195.196 156.512 195.196Z" fill="#200660"/>
<path d="M152.662 160.335L156.896 147.317C154.161 148.117 151.483 149.098 148.878 150.254C147.511 152.426 146.61 154.859 146.232 157.398C146.232 157.398 145.134 169.305 147.555 173.724C147.555 173.724 155.268 175.272 167.612 171.078V168.247C167.612 168.247 154.117 168.948 151.352 169.279L152.662 160.335Z" fill="#FFB27D"/>
<path d="M156.34 166.395C156.168 170.761 155.149 179.254 145.968 183.792C148.442 175.51 151.524 164.82 152.966 158.086C154.58 160.64 156.446 164.053 156.34 166.395Z" fill="#1E3D70"/>
<path d="M156.896 147.317C156.896 147.317 149.05 147.872 147.171 152.066C145.293 156.26 144.684 170.244 147.079 174.359C150.106 174.962 153.227 174.913 156.234 174.213H156.459C156.459 174.213 158.311 169.649 156.644 168.749C156.644 168.749 151.709 169.001 152.225 167.426C152.741 165.852 156.896 147.317 156.896 147.317Z" fill="#200660"/>
<path d="M176.529 169.94L176.291 170.681L163.444 166.712C163.393 166.648 163.358 166.572 163.342 166.492C163.326 166.411 163.329 166.328 163.352 166.249C163.368 166.175 163.408 166.108 163.465 166.058C163.522 166.008 163.594 165.978 163.669 165.971L176.529 169.94Z" fill="#A9453D"/>
<path d="M177.455 170.642L176.529 169.94L176.291 170.681L177.455 170.642Z" fill="#A9453D"/>
<path d="M179.493 187.483C179.493 187.483 182.76 189.283 183.184 190.659C183.607 192.035 183.316 194.905 182.8 194.866C182.284 194.826 181.477 191.77 181.08 191.558C180.683 191.347 180.048 190.698 180.048 191.175C180.048 191.651 180.485 192.498 180.273 192.63C180.061 192.762 179.374 191.439 178.95 191.175C178.527 190.91 178.275 188.793 177.826 188.224C177.376 187.655 179.493 187.483 179.493 187.483Z" fill="#FFB27D"/>
<path d="M167.572 168.194C167.572 168.194 170.496 166.395 171.713 166.673C172.93 166.951 176.053 169.213 174.558 169.689C173.063 170.165 171.846 169.689 171.263 170.02C170.681 170.351 170.271 171.025 167.572 171.025C164.873 171.025 167.572 168.194 167.572 168.194Z" fill="#FFB27D"/>
<path d="M294.039 175.96C294.039 175.96 290.321 178.077 289.289 178.077C288.257 178.077 284.169 177.283 283.031 177.865C281.61 178.848 280.393 180.097 279.446 181.543C278.745 182.866 282.237 182.31 283.891 181.146C284.008 181.061 284.141 181.002 284.283 180.972C284.424 180.942 284.57 180.943 284.711 180.974C285.848 181.29 287.039 181.358 288.204 181.173C290.591 180.723 293.004 180.418 295.428 180.26L294.039 175.96Z" fill="#ED975D"/>
<path d="M322.298 147.237C322.298 147.237 318.448 174.61 312.071 177.058C308.936 178.275 295.031 181.027 290.903 181.292C290.903 181.292 289.898 180.471 290.136 177.151C290.136 177.151 304.689 171.792 306.779 168.895C309.849 164.556 304.861 151.206 308.724 147.145C312.587 143.083 319.11 141.324 322.298 147.237Z" fill="#FCBC00"/>
<path d="M321.002 204.908C319.871 206.785 318.616 208.584 317.244 210.292C313.103 215.584 308.605 219.818 307.811 223.893C307.642 224.793 307.398 225.678 307.084 226.539C306.766 227.465 306.356 228.457 305.893 229.463C303.868 233.629 301.524 237.632 298.881 241.436C294.343 248.157 290.083 253.766 290.083 253.766L282.264 253.435C282.581 252.642 285.995 243.367 290.559 232.042C292.411 227.438 294.369 222.543 296.275 217.82L297.029 215.941C297.611 214.499 298.18 213.07 298.749 211.695C303.022 201.11 306.435 192.577 306.435 192.577C306.435 192.577 323.555 186.094 325.328 190.288C326.783 193.715 325.606 197.128 321.002 204.908Z" fill="#599DAD"/>
<path d="M289.845 252.298C289.845 252.298 289.448 258.754 288.191 258.913H281.867H273.929C273.99 258.315 274.259 257.758 274.69 257.34C275.12 256.921 275.685 256.668 276.284 256.624C278.586 256.227 282.436 254.6 283.825 251.57C285.214 248.54 289.845 252.298 289.845 252.298Z" fill="#163560"/>
<path d="M298.365 234.503C298.365 234.503 303.802 237.996 303.273 239.134C303.273 239.279 300.204 244.664 300.204 244.664L296.354 251.517C295.859 251.174 295.502 250.667 295.344 250.086C295.187 249.505 295.24 248.888 295.494 248.342C296.261 246.132 296.738 241.991 294.753 239.292C292.769 236.594 298.365 234.503 298.365 234.503Z" fill="#163560"/>
<path d="M294.277 240.959C294.277 240.959 298.881 241.396 300.217 235.786C300.217 235.786 295.282 218.045 292.279 214.287C292.147 214.115 292.173 213.917 292.358 213.705C294.66 211.125 320.142 205.873 323.462 200.687C324.456 199.167 325.185 197.489 325.619 195.726C326.074 193.997 326.128 192.187 325.778 190.434L300.323 189.653C300.323 189.653 279.155 202.883 276.747 211.84C275.186 217.172 294.277 240.959 294.277 240.959Z" fill="#6BB7BF"/>
<path d="M292.385 213.705C294.687 211.126 320.168 205.873 323.489 200.687C324.483 199.167 325.212 197.489 325.645 195.726V192.511L314.823 190.804C314.823 190.804 311.754 200.25 302.678 203.783C294.105 207.104 292.491 213.004 292.385 213.705Z" fill="#5AA9AD"/>
<path d="M307.255 145.531C312.402 146.854 320.935 142.091 320.935 142.091C318.645 140.313 317.038 137.799 316.384 134.973C316.384 134.722 316.265 134.471 316.225 134.219L313.579 133.65L309.61 137.183C309.719 138.517 309.914 139.843 310.193 141.152C310.272 141.588 310.365 142.065 310.484 142.567C309.235 143.349 308.14 144.353 307.255 145.531Z" fill="#FFB27D"/>
<path d="M326.386 166.858C325.645 176.767 326.611 191.849 325.778 194.469C325.05 196.718 316.834 195.382 313.553 194.628C312.336 194.35 310.907 193.953 309.346 193.477C305.099 192.154 300.482 190.288 299.979 188.899V188.74C299.926 188.55 299.926 188.349 299.979 188.158C300.443 187.137 300.738 186.046 300.852 184.93C300.932 182.959 300.918 180.657 300.998 178.17C300.978 177.883 300.978 177.596 300.998 177.31V177.045C300.998 174.28 301.209 171.369 301.381 168.472C301.487 166.659 301.606 164.873 301.752 163.18C301.982 159.516 302.495 155.876 303.286 152.291C304.243 148.905 306.198 145.885 308.896 143.626L310.47 142.303C312.394 142.675 314.387 142.41 316.146 141.549C318.17 140.596 318.858 139.908 319.215 140.226C323.899 143.692 327.246 154.792 326.386 166.858Z" fill="#FCBC00"/>
<path d="M309.346 193.477C305.099 192.154 300.482 190.288 299.979 188.899V188.74C299.979 188.542 299.979 188.357 299.979 188.158C300.443 187.137 300.738 186.046 300.852 184.93C300.931 182.959 300.918 180.657 300.998 178.17C300.978 177.883 300.978 177.596 300.998 177.31V177.045L318.197 155.202C318.197 155.202 329.68 179.202 309.346 193.477Z" fill="#ED7D2B"/>
<path d="M309.65 137.169C309.759 138.504 309.953 139.829 310.232 141.138C311.643 140.614 312.923 139.79 313.985 138.723C315.047 137.657 315.866 136.373 316.384 134.96C316.384 134.709 316.265 134.457 316.226 134.206L313.579 133.637L309.65 137.169Z" fill="#ED975D"/>
<path d="M309.134 139.379C309.134 139.379 317.496 138.056 316.556 132.764C315.617 127.472 316.04 123.886 310.656 124.561C305.271 125.236 304.596 127.406 304.49 129.218C304.385 131.031 306.938 139.617 309.134 139.379Z" fill="#FFB27D"/>
<path d="M296.738 182.39L275.834 182.84L270.013 164.913C269.98 164.816 269.91 164.735 269.819 164.689C269.727 164.642 269.622 164.632 269.523 164.662C269.474 164.677 269.429 164.701 269.389 164.734C269.35 164.767 269.318 164.808 269.294 164.853C269.271 164.899 269.257 164.949 269.253 165C269.249 165.051 269.256 165.102 269.272 165.151L275.318 183.779C275.352 183.878 275.416 183.963 275.502 184.022C275.588 184.082 275.69 184.113 275.794 184.11L296.764 183.66L296.738 182.39Z" fill="#4A75CB"/>
<path d="M296.354 184.679C296.354 184.679 289.501 186.491 286.934 186.306C284.367 186.121 282.224 184.89 281.907 184.255C281.589 183.62 280.901 182.482 282.648 182.694C284.394 182.906 286.789 183.276 286.868 182.932C286.947 182.588 285.439 182.628 285.439 182.628C285.439 182.628 284.989 181.966 285.558 181.94C286.127 181.914 287.794 181.477 288.416 181.781C289.038 182.086 289.607 183.237 290.056 183.184C290.506 183.131 295.785 180.802 295.785 180.802L296.354 184.679Z" fill="#FFB27D"/>
<path d="M320.605 148.362C320.605 148.362 319.798 176 313.725 179.135C307.045 181.838 300.167 184.023 293.152 185.671C293.152 185.671 292.067 184.97 291.948 181.636C291.948 181.636 305.84 174.716 307.573 171.594C310.219 166.95 303.723 154.223 307.11 149.751C310.497 145.28 316.781 142.885 320.605 148.362Z" fill="#FCBC00"/>
<path d="M316.384 134.947C316.426 133.917 316.065 132.911 315.379 132.142C315.379 132.142 315.762 130.356 315.061 130.052C314.36 129.747 314.201 131.269 313.884 131.031C312.831 130.263 312.003 129.225 311.489 128.027C310.867 126.374 305.205 128.371 304.543 128.662C303.882 128.954 301.765 127.869 301.342 126.995C301.966 126.499 302.541 125.946 303.062 125.342C303.591 124.627 307.308 119.851 312.495 121.214C317.681 122.577 318.395 125.051 318.091 127.167C317.787 129.284 318.514 134.246 316.384 134.947Z" fill="#2B478B"/>
<path d="M339.669 202.261H308.446C305.392 202.261 302.916 204.737 302.916 207.791C302.916 210.846 305.392 213.322 308.446 213.322H339.669C342.723 213.322 345.199 210.846 345.199 207.791C345.199 204.737 342.723 202.261 339.669 202.261Z" fill="#F99746"/>
<path d="M310.814 213.322L310.193 216.246L301.223 258.582C301.223 258.728 300.998 258.847 300.76 258.847C300.296 258.847 299.939 258.595 299.979 258.317L307.097 214.936L307.361 213.295L310.814 213.322Z" fill="#EFCBAB"/>
<path d="M310.814 213.322L310.193 216.246C309.769 215.081 307.097 214.922 307.097 214.922L307.361 213.282L310.814 213.322Z" fill="#CCA07F"/>
<path d="M347.753 258.873C347.515 258.873 347.303 258.754 347.29 258.609L338.306 216.272L337.923 214.446L337.698 213.348H341.138L341.402 214.989L341.614 216.312L348.52 258.41C348.573 258.622 348.216 258.873 347.753 258.873Z" fill="#EFCBAB"/>
<path d="M341.614 216.246C340.741 214.923 337.923 214.42 337.923 214.42L337.698 213.322H341.138L341.402 214.962L341.614 216.246Z" fill="#CCA07F"/>
<path d="M265.422 258.846C265.331 258.87 265.236 258.876 265.142 258.863C265.049 258.85 264.959 258.818 264.878 258.77C264.797 258.722 264.726 258.659 264.669 258.583C264.613 258.508 264.572 258.422 264.549 258.33L255.976 223.773L254.322 217.158L251.067 204.034L246.08 183.991L250.737 183.686L253.475 197.221L257.444 216.695L259.429 226.512L265.845 258.185C265.87 258.328 265.84 258.475 265.762 258.598C265.684 258.72 265.562 258.809 265.422 258.846Z" fill="#F9DDBF"/>
<path d="M253.502 197.221C253.502 197.353 253.436 197.419 253.436 197.419C252.119 199.374 251.306 201.623 251.067 203.968L246.08 183.991L250.737 183.686L253.502 197.221Z" fill="#EAC8A9"/>
<path d="M249.427 183.991L241.211 217.066L239.557 223.681L230.984 258.238C230.934 258.421 230.815 258.577 230.652 258.673C230.489 258.769 230.295 258.798 230.111 258.754C229.969 258.719 229.846 258.631 229.767 258.508C229.688 258.385 229.66 258.236 229.688 258.092L236.104 226.42L238.089 216.603L244.704 183.594L249.427 183.991Z" fill="#F9DDBF"/>
<path d="M241.211 217.093L239.557 223.708C237.599 223.84 236.104 226.446 236.104 226.446L238.089 216.63L241.198 216.325C241.198 216.325 241.211 216.656 241.211 217.093Z" fill="#EAC8A9"/>
<path d="M221.948 183.991L213.732 217.066L212.078 223.681L203.492 258.238C203.47 258.329 203.431 258.414 203.376 258.49C203.32 258.565 203.251 258.629 203.171 258.677C203.09 258.725 203.002 258.756 202.909 258.77C202.817 258.783 202.722 258.778 202.632 258.754C202.488 258.722 202.363 258.635 202.283 258.511C202.204 258.387 202.177 258.236 202.209 258.092L208.612 226.42L210.61 216.603L217.291 183.594L221.948 183.991Z" fill="#F9DDBF"/>
<path d="M213.732 217.093L212.078 223.708C210.12 223.84 208.612 226.446 208.612 226.446L210.61 216.63L213.719 216.325C213.719 216.325 213.732 216.656 213.732 217.093Z" fill="#EAC8A9"/>
<path d="M242.944 222.067H203.373L217.384 170.311H255.976L242.944 222.067Z" fill="#F9DDBF"/>
<path d="M241.767 222.067H202.195L216.206 170.311H254.798L241.767 222.067Z" fill="#FCECDB"/>
<path d="M242.574 188.926C241.6 191.903 239.834 194.56 237.467 196.612C235.485 198.317 234.008 200.532 233.193 203.016L232.162 206.389C231.796 207.472 231.116 208.421 230.209 209.117C229.302 209.812 228.209 210.221 227.068 210.292H220.823C220.353 210.307 219.887 210.202 219.468 209.988C219.049 209.774 218.691 209.458 218.427 209.068C218.163 208.679 218.002 208.229 217.958 207.761C217.914 207.293 217.99 206.821 218.177 206.389L219.209 203.016C219.93 200.912 219.801 198.61 218.852 196.599C217.706 194.167 217.568 191.38 218.468 188.846C220.546 182.231 227.571 176.833 234.239 176.833C234.949 176.831 235.658 176.897 236.355 177.032L236.792 177.124C241.767 178.328 244.333 183.157 242.574 188.926Z" fill="#FCEBD9"/>
<path d="M242.574 188.925C241.6 191.903 239.834 194.56 237.467 196.612C235.485 198.317 234.008 200.532 233.193 203.016L232.162 206.389C231.796 207.472 231.116 208.421 230.209 209.116C229.302 209.812 228.209 210.221 227.068 210.292H226.102C225.628 210.315 225.155 210.216 224.729 210.006C224.303 209.796 223.937 209.481 223.666 209.091C223.395 208.701 223.228 208.248 223.179 207.776C223.131 207.303 223.203 206.826 223.39 206.389L224.435 203.016C225.158 200.911 225.025 198.606 224.065 196.599C223.497 195.394 223.171 194.09 223.108 192.759C223.044 191.429 223.244 190.099 223.694 188.846C224.691 185.946 226.411 183.348 228.691 181.297C230.971 179.246 233.737 177.81 236.726 177.124C241.767 178.328 244.333 183.157 242.574 188.925Z" fill="#FAE2C9"/>
<path d="M231.672 197.128C231.85 196.715 231.92 196.263 231.876 195.815C231.831 195.367 231.672 194.938 231.415 194.569C231.158 194.199 230.811 193.901 230.407 193.703C230.003 193.505 229.555 193.414 229.105 193.437C228.024 193.501 226.987 193.887 226.127 194.545C225.267 195.202 224.622 196.102 224.276 197.128C224.1 197.702 224.11 198.317 224.305 198.885C224.5 199.453 224.87 199.945 225.361 200.29C225.701 200.56 225.959 200.921 226.104 201.33C226.249 201.739 226.276 202.181 226.182 202.605C226.182 202.751 226.076 202.949 226.01 203.187C226.012 203.232 226.012 203.276 226.01 203.32C225.348 205.516 223.787 210.57 223.76 210.636H223.999C223.999 210.57 225.652 205.278 226.287 203.187C226.444 202.541 226.751 201.941 227.183 201.435C227.615 200.929 228.161 200.533 228.775 200.277C229.179 200.066 229.568 199.827 229.939 199.562C230.75 198.945 231.354 198.096 231.672 197.128ZM228.616 200.211C227.712 200.603 226.967 201.288 226.499 202.156C226.517 201.679 226.367 201.21 226.076 200.833C225.894 200.6 225.68 200.395 225.441 200.224C224.982 199.872 224.646 199.385 224.48 198.832C224.314 198.279 224.326 197.687 224.515 197.141C224.834 196.199 225.433 195.376 226.232 194.783C227.031 194.19 227.992 193.854 228.986 193.821C229.401 193.778 229.819 193.844 230.2 194.013C230.581 194.182 230.911 194.447 231.158 194.782C231.406 195.117 231.561 195.511 231.609 195.925C231.658 196.339 231.597 196.758 231.434 197.141C231.129 198.084 230.548 198.914 229.767 199.523C229.408 199.795 229.022 200.03 228.616 200.224V200.211Z" fill="#EE9849"/>
<path d="M227.041 210.358V210.464L226.459 211.787L226.314 212.144L226.155 212.488L225.586 213.811L225.441 214.169L225.295 214.513L225.216 214.711C224.998 215.08 224.686 215.384 224.311 215.591C223.937 215.798 223.514 215.901 223.086 215.889H220.942C220.741 215.891 220.541 215.864 220.347 215.809C220.198 215.762 220.056 215.695 219.924 215.611C219.832 215.545 219.751 215.465 219.686 215.373C219.619 215.282 219.572 215.179 219.547 215.07C219.522 214.961 219.52 214.848 219.54 214.738L219.619 214.222V213.904V213.6L219.818 212.383V212.052V211.734L220.03 210.411L227.041 210.358Z" fill="#AFCDFB"/>
<path d="M226.234 210.358H225.083L220.082 211.681V211.999V212.33L227.121 210.464V210.358H226.234Z" fill="#9ABCEF"/>
<path d="M219.712 213.785V214.102L226.168 212.396L226.327 212.052L226.473 211.695L219.858 213.467L219.712 213.785Z" fill="#9ABCEF"/>
<path d="M219.963 215.505C220.095 215.589 220.238 215.656 220.387 215.703L225.242 214.38L225.388 214.036L225.533 213.679L219.712 215.227C219.778 215.334 219.863 215.428 219.963 215.505Z" fill="#9ABCEF"/>
<path d="M240.88 213.798H240.602C240.581 213.798 240.561 213.79 240.546 213.775C240.531 213.76 240.523 213.74 240.523 213.719C240.535 213.712 240.549 213.708 240.563 213.708C240.577 213.708 240.59 213.712 240.602 213.719H240.88C240.892 213.712 240.906 213.708 240.92 213.708C240.934 213.708 240.947 213.712 240.96 213.719C240.96 213.74 240.951 213.76 240.936 213.775C240.921 213.79 240.901 213.798 240.88 213.798ZM239.822 213.798H239.028C239.007 213.798 238.987 213.79 238.972 213.775C238.957 213.76 238.949 213.74 238.949 213.719C238.961 213.712 238.974 213.708 238.988 213.708C239.002 213.708 239.016 213.712 239.028 213.719H239.822C239.834 213.712 239.848 213.708 239.861 213.708C239.875 213.708 239.889 213.712 239.901 213.719C239.901 213.74 239.893 213.76 239.878 213.775C239.863 213.79 239.843 213.798 239.822 213.798ZM238.234 213.798H237.454C237.443 213.801 237.431 213.8 237.42 213.797C237.41 213.794 237.4 213.788 237.392 213.78C237.384 213.772 237.378 213.763 237.375 213.752C237.372 213.741 237.372 213.73 237.374 213.719C237.374 213.719 237.374 213.719 237.454 213.719H238.234H238.314C238.316 213.73 238.316 213.741 238.313 213.752C238.31 213.763 238.304 213.772 238.296 213.78C238.288 213.788 238.278 213.794 238.267 213.797C238.256 213.8 238.245 213.801 238.234 213.798ZM236.66 213.798H235.866C235.845 213.798 235.825 213.79 235.81 213.775C235.795 213.76 235.787 213.74 235.787 213.719C235.799 213.712 235.812 213.708 235.826 213.708C235.84 213.708 235.854 213.712 235.866 213.719H236.66C236.672 213.712 236.686 213.708 236.699 213.708C236.713 213.708 236.727 213.712 236.739 213.719C236.739 213.74 236.731 213.76 236.716 213.775C236.701 213.79 236.681 213.798 236.66 213.798ZM235.085 213.798H234.292C234.271 213.798 234.25 213.79 234.235 213.775C234.221 213.76 234.212 213.74 234.212 213.719C234.224 213.712 234.238 213.708 234.252 213.708C234.266 213.708 234.28 213.712 234.292 213.719H235.085C235.097 213.712 235.111 213.708 235.125 213.708C235.139 213.708 235.153 213.712 235.165 213.719C235.165 213.74 235.156 213.76 235.142 213.775C235.127 213.79 235.106 213.798 235.085 213.798ZM233.511 213.798H232.717C232.696 213.798 232.676 213.79 232.661 213.775C232.646 213.76 232.638 213.74 232.638 213.719C232.65 213.712 232.664 213.708 232.678 213.708C232.691 213.708 232.705 213.712 232.717 213.719H233.511H233.577C233.577 213.719 233.551 213.798 233.511 213.798ZM231.923 213.798H231.143C231.132 213.801 231.12 213.8 231.11 213.797C231.099 213.794 231.089 213.788 231.081 213.78C231.073 213.772 231.067 213.763 231.064 213.752C231.061 213.741 231.061 213.73 231.063 213.719C231.063 213.719 231.063 213.719 231.143 213.719H231.923H232.003C232.005 213.73 232.005 213.741 232.002 213.752C231.999 213.763 231.993 213.772 231.985 213.78C231.977 213.788 231.967 213.794 231.957 213.797C231.946 213.8 231.934 213.801 231.923 213.798ZM230.349 213.798H229.555C229.534 213.798 229.514 213.79 229.499 213.775C229.484 213.76 229.476 213.74 229.476 213.719C229.488 213.712 229.502 213.708 229.516 213.708C229.529 213.708 229.543 213.712 229.555 213.719H230.349C230.361 213.712 230.375 213.708 230.389 213.708C230.403 213.708 230.416 213.712 230.428 213.719C230.428 213.74 230.42 213.76 230.405 213.775C230.39 213.79 230.37 213.798 230.349 213.798ZM228.775 213.798H227.981C227.96 213.798 227.94 213.79 227.925 213.775C227.91 213.76 227.901 213.74 227.901 213.719C227.914 213.712 227.927 213.708 227.941 213.708C227.955 213.708 227.969 213.712 227.981 213.719H228.775C228.787 213.712 228.8 213.708 228.814 213.708C228.828 213.708 228.842 213.712 228.854 213.719C228.854 213.74 228.846 213.76 228.831 213.775C228.816 213.79 228.796 213.798 228.775 213.798Z" fill="#EAC8A9"/>
<path d="M238.658 175.96V175.854L239.213 175.285C239.228 175.272 239.247 175.265 239.266 175.265C239.286 175.265 239.304 175.272 239.319 175.285C239.327 175.293 239.334 175.302 239.339 175.312C239.343 175.322 239.346 175.333 239.346 175.345C239.346 175.356 239.343 175.367 239.339 175.377C239.334 175.388 239.327 175.397 239.319 175.404L238.763 175.96H238.658ZM239.769 174.835C239.757 174.818 239.75 174.797 239.75 174.776C239.75 174.755 239.757 174.734 239.769 174.716L240.324 174.161C240.332 174.153 240.342 174.147 240.352 174.142C240.362 174.138 240.373 174.136 240.384 174.136C240.395 174.136 240.406 174.138 240.416 174.142C240.426 174.147 240.436 174.153 240.444 174.161C240.451 174.168 240.458 174.178 240.462 174.188C240.466 174.198 240.468 174.209 240.468 174.22C240.468 174.231 240.466 174.242 240.462 174.252C240.458 174.263 240.451 174.272 240.444 174.28L239.875 174.835H239.769ZM240.893 173.724C240.893 173.724 240.893 173.724 240.827 173.724C240.814 173.709 240.807 173.691 240.807 173.671C240.807 173.652 240.814 173.633 240.827 173.618L240.92 173.526H241.581C241.602 173.526 241.623 173.534 241.637 173.549C241.652 173.564 241.661 173.584 241.661 173.605C241.663 173.616 241.663 173.627 241.66 173.638C241.657 173.649 241.651 173.659 241.643 173.667C241.635 173.675 241.625 173.68 241.614 173.683C241.604 173.687 241.592 173.687 241.581 173.684H240.96V173.75L240.893 173.777V173.724ZM250.485 173.631H250.313C250.313 173.631 250.313 173.631 250.313 173.552C250.306 173.54 250.303 173.526 250.303 173.512C250.303 173.498 250.306 173.485 250.313 173.473H250.485C250.506 173.473 250.526 173.481 250.541 173.496C250.556 173.511 250.565 173.531 250.565 173.552C250.577 173.565 250.585 173.581 250.588 173.599C250.59 173.616 250.586 173.634 250.577 173.649C250.568 173.665 250.554 173.676 250.537 173.683C250.52 173.689 250.502 173.69 250.485 173.684V173.631ZM249.533 173.631H248.726C248.705 173.631 248.684 173.623 248.669 173.608C248.655 173.593 248.646 173.573 248.646 173.552C248.646 173.531 248.655 173.511 248.669 173.496C248.684 173.481 248.705 173.473 248.726 173.473H249.519C249.54 173.473 249.561 173.481 249.576 173.496C249.59 173.511 249.599 173.531 249.599 173.552C249.61 173.564 249.616 173.579 249.619 173.595C249.621 173.61 249.618 173.627 249.611 173.641C249.604 173.655 249.592 173.667 249.578 173.675C249.565 173.682 249.549 173.686 249.533 173.684V173.631ZM247.958 173.631H247.164C247.143 173.631 247.123 173.623 247.108 173.608C247.093 173.593 247.085 173.573 247.085 173.552C247.085 173.531 247.093 173.511 247.108 173.496C247.123 173.481 247.143 173.473 247.164 173.473H247.958C247.979 173.473 248 173.481 248.014 173.496C248.029 173.511 248.038 173.531 248.038 173.552C248.05 173.565 248.058 173.581 248.061 173.599C248.063 173.616 248.059 173.634 248.05 173.649C248.041 173.665 248.027 173.676 248.01 173.683C247.994 173.689 247.975 173.69 247.958 173.684V173.631ZM246.371 173.631H245.59C245.579 173.634 245.568 173.634 245.557 173.631C245.546 173.627 245.536 173.622 245.528 173.614C245.52 173.606 245.515 173.596 245.512 173.585C245.508 173.574 245.508 173.563 245.511 173.552C245.511 173.531 245.519 173.511 245.534 173.496C245.549 173.481 245.569 173.473 245.59 173.473H246.371C246.392 173.473 246.412 173.481 246.427 173.496C246.442 173.511 246.45 173.531 246.45 173.552C246.468 173.563 246.48 173.58 246.485 173.599C246.49 173.619 246.487 173.64 246.476 173.658C246.466 173.675 246.449 173.688 246.429 173.693C246.409 173.698 246.388 173.695 246.371 173.684V173.631ZM244.796 173.631H244.002C243.981 173.631 243.961 173.623 243.946 173.608C243.931 173.593 243.923 173.573 243.923 173.552C243.923 173.531 243.931 173.511 243.946 173.496C243.961 173.481 243.981 173.473 244.002 173.473H244.796C244.817 173.473 244.838 173.481 244.852 173.496C244.867 173.511 244.876 173.531 244.876 173.552C244.893 173.568 244.904 173.59 244.905 173.614C244.906 173.637 244.898 173.66 244.882 173.678C244.866 173.695 244.844 173.706 244.821 173.707C244.797 173.708 244.774 173.7 244.757 173.684L244.796 173.631ZM243.222 173.631H242.428C242.407 173.631 242.387 173.623 242.372 173.608C242.357 173.593 242.349 173.573 242.349 173.552C242.349 173.531 242.357 173.511 242.372 173.496C242.387 173.481 242.407 173.473 242.428 173.473H243.222C243.243 173.473 243.263 173.481 243.278 173.496C243.293 173.511 243.301 173.531 243.301 173.552C243.314 173.565 243.322 173.581 243.324 173.599C243.327 173.616 243.323 173.634 243.314 173.649C243.304 173.665 243.29 173.676 243.274 173.683C243.257 173.689 243.239 173.69 243.222 173.684V173.631Z" fill="#EAC8A9"/>
<path d="M249.453 175.457H242.984C242.893 175.457 242.805 175.421 242.741 175.356C242.676 175.292 242.64 175.204 242.64 175.113C242.64 175.022 242.676 174.934 242.741 174.87C242.805 174.805 242.893 174.769 242.984 174.769H249.453C249.545 174.769 249.632 174.805 249.696 174.87C249.761 174.934 249.797 175.022 249.797 175.113C249.797 175.204 249.761 175.292 249.696 175.356C249.632 175.421 249.545 175.457 249.453 175.457Z" fill="#EAC8A9"/>
<path d="M239.928 216.061H233.458C233.367 216.061 233.279 216.024 233.215 215.96C233.15 215.895 233.114 215.808 233.114 215.717C233.114 215.625 233.15 215.538 233.215 215.473C233.279 215.409 233.367 215.373 233.458 215.373H239.928C239.973 215.371 240.019 215.378 240.061 215.395C240.104 215.412 240.143 215.437 240.175 215.469C240.207 215.502 240.233 215.54 240.249 215.583C240.266 215.625 240.273 215.671 240.272 215.717C240.272 215.808 240.235 215.895 240.171 215.96C240.106 216.024 240.019 216.061 239.928 216.061Z" fill="#EAC8A9"/>
<path d="M215.399 199.629H210.491C210.301 199.629 210.147 199.783 210.147 199.973C210.147 200.163 210.301 200.317 210.491 200.317H215.399C215.589 200.317 215.743 200.163 215.743 199.973C215.743 199.783 215.589 199.629 215.399 199.629Z" fill="#EAC8A9"/>
<path d="M217.516 201.402L217.092 200.74C217.078 200.723 217.071 200.702 217.071 200.68C217.071 200.659 217.078 200.638 217.092 200.621C217.107 200.608 217.126 200.601 217.145 200.601C217.165 200.601 217.184 200.608 217.198 200.621L217.622 201.282C217.636 201.299 217.643 201.32 217.643 201.342C217.643 201.364 217.636 201.385 217.622 201.402H217.516ZM216.669 200.079H216.603L216.166 199.417C216.152 199.4 216.145 199.379 216.145 199.357C216.145 199.336 216.152 199.315 216.166 199.298C216.181 199.285 216.2 199.278 216.219 199.278C216.239 199.278 216.258 199.285 216.272 199.298L216.709 199.959C216.709 199.959 216.709 200.052 216.709 200.065L216.669 200.079ZM215.809 198.756H215.743H215.029C215.01 198.752 214.993 198.743 214.981 198.728C214.969 198.713 214.962 198.695 214.962 198.676C214.962 198.676 214.962 198.597 215.029 198.597H215.783C215.793 198.591 215.804 198.588 215.816 198.588C215.827 198.588 215.839 198.591 215.849 198.597C215.857 198.603 215.864 198.611 215.868 198.62C215.873 198.629 215.875 198.639 215.875 198.65C215.875 198.66 215.873 198.67 215.868 198.679C215.864 198.688 215.857 198.696 215.849 198.703L215.809 198.756ZM214.248 198.756H213.454C213.444 198.756 213.433 198.753 213.424 198.749C213.414 198.745 213.405 198.74 213.398 198.732C213.391 198.725 213.385 198.716 213.381 198.707C213.377 198.697 213.375 198.687 213.375 198.676C213.375 198.666 213.377 198.655 213.381 198.646C213.385 198.636 213.391 198.627 213.398 198.62C213.405 198.613 213.414 198.607 213.424 198.603C213.433 198.599 213.444 198.597 213.454 198.597H214.248C214.269 198.597 214.289 198.605 214.304 198.62C214.319 198.635 214.327 198.655 214.327 198.676C214.32 198.69 214.308 198.701 214.294 198.708C214.28 198.715 214.264 198.718 214.248 198.716V198.756ZM212.674 198.756H211.88C211.859 198.756 211.839 198.747 211.824 198.732C211.809 198.717 211.8 198.697 211.8 198.676C211.8 198.655 211.809 198.635 211.824 198.62C211.839 198.605 211.859 198.597 211.88 198.597H212.674C212.674 198.597 212.74 198.597 212.74 198.676C212.733 198.688 212.723 198.698 212.712 198.705C212.7 198.711 212.687 198.715 212.674 198.716V198.756Z" fill="#EAC8A9"/>
</g>
<defs>
<clipPath id="clip0">
<rect width="381" height="258.979" fill="white" transform="translate(0 -0.00012207)"/>
</clipPath>
</defs>
</svg>
