<svg width="267" height="364" viewBox="0 0 267 364" fill="none" xmlns="http://www.w3.org/2000/svg">
<g clip-path="url(#clip0)">
<path d="M53.1685 316.246C43.7502 301.385 52.2371 280.884 65.7952 269.672C79.3534 258.46 96.8445 253.38 112.369 245.203C131.025 235.406 147.938 220.761 168.767 217.561C185.577 214.973 203.266 220.666 216.065 231.861C228.864 243.056 236.765 259.46 238.533 276.339C242.026 309.881 219.558 344.345 187.508 354.73C155.459 365.114 117.052 350.331 100.234 321.093" fill="#EDEDEB"/>
<path d="M72.8072 309.329C72.8072 309.329 87.547 250.395 148.076 258.442C208.605 266.489 205.681 318.471 205.681 318.471L173.062 320.894L174.071 357.653C155.959 359.697 128.291 353.841 95.3179 348.83L96.5082 322.18L72.8072 309.329Z" fill="#200660"/>
<path d="M205.733 317.341C205.733 317.341 205.733 317.729 205.681 318.436C205.301 325.508 202.731 364.398 192.106 363.535C180.41 362.578 172.398 357.162 173.062 320.86L205.715 317.729" fill="#F5AC8E"/>
<path d="M179.168 355.325C179.168 355.325 201.429 305.146 213.185 291.803L226.812 303.809C226.812 303.809 206.112 365.476 192.52 363.544C178.927 361.612 179.168 355.325 179.168 355.325Z" fill="#F5AC8E"/>
<path d="M74.3855 310.191L66.33 334.159L92.9634 350.236L96.5081 322.145L74.3855 310.191Z" fill="#F5AC8E"/>
<path d="M131.585 250.223L129.438 265.86C129.438 265.86 149.059 277.52 160.659 262.41L169.396 203.761C157.675 191.522 145.1 189.556 131.585 198.655C131.585 198.69 112.059 244.065 131.585 250.223Z" fill="#F5AD8C"/>
<path d="M131.051 213.973C131.579 212.808 132.444 211.829 133.535 211.161C133.877 210.947 134.267 210.822 134.67 210.798C135.073 210.774 135.476 210.851 135.842 211.022C136.207 211.194 136.524 211.455 136.763 211.78C137.001 212.106 137.155 212.486 137.209 212.886C137.26 213.128 137.674 213.145 137.718 212.886C137.994 211.161 136.243 209.902 134.664 210.014C132.56 210.169 131.214 211.963 130.576 213.783C130.464 214.059 130.913 214.24 131.051 213.981V213.973Z" fill="#222221"/>
<path d="M141.987 223.71C142.064 223.779 141.987 224.09 141.642 224.573C141.174 225.342 140.477 225.945 139.649 226.298C138.997 226.529 138.284 226.529 137.631 226.298C137.228 226.149 136.871 225.896 136.596 225.565C136.312 225.203 136.133 224.77 136.079 224.314C136.038 223.519 136.158 222.724 136.432 221.977C136.639 221.269 136.872 220.554 137.131 219.82C139.192 213.938 142.151 209.798 142.513 210.031C142.875 210.264 140.641 214.654 138.649 220.381C138.399 221.097 138.157 221.796 137.933 222.468C137.707 223.017 137.579 223.601 137.554 224.193C137.558 224.377 137.614 224.556 137.717 224.709C137.819 224.862 137.963 224.982 138.131 225.056C138.508 225.222 138.927 225.267 139.33 225.185C140.012 224.979 140.641 224.629 141.176 224.159C141.616 223.814 141.901 223.641 141.987 223.71Z" fill="#F18474"/>
<path d="M137.743 231.231C140.331 231.697 143.902 230.955 145.264 228.411C145.301 228.346 145.314 228.27 145.299 228.197C145.285 228.124 145.245 228.059 145.186 228.013C145.128 227.967 145.055 227.943 144.98 227.947C144.906 227.95 144.835 227.98 144.781 228.031C143.914 228.888 142.919 229.603 141.832 230.153C140.592 230.669 139.235 230.836 137.907 230.636C137.519 230.575 137.347 231.153 137.743 231.231Z" fill="#F18474"/>
<path d="M144.039 227.617C144.289 227.597 144.54 227.636 144.772 227.73C145.005 227.825 145.211 227.972 145.376 228.161C145.665 228.544 145.868 228.986 145.971 229.454C145.989 229.501 146.02 229.542 146.059 229.573C146.098 229.604 146.145 229.623 146.195 229.629C146.244 229.636 146.295 229.628 146.34 229.608C146.386 229.588 146.426 229.556 146.454 229.515C146.591 229.182 146.616 228.814 146.526 228.466C146.436 228.117 146.235 227.808 145.954 227.583C145.696 227.329 145.379 227.143 145.031 227.041C144.684 226.939 144.317 226.923 143.962 226.996C143.617 227.065 143.686 227.652 144.039 227.617Z" fill="#F18474"/>
<path d="M152.035 216.215C152.361 215.56 152.887 215.026 153.536 214.69C154.186 214.353 154.925 214.232 155.648 214.343C156.351 214.525 156.981 214.916 157.456 215.464C157.93 216.013 158.226 216.693 158.305 217.414C158.383 217.768 158.909 217.673 158.917 217.328C158.915 216.437 158.604 215.574 158.038 214.885C157.473 214.197 156.686 213.725 155.812 213.55C154.93 213.401 154.024 213.556 153.241 213.988C152.458 214.42 151.844 215.105 151.5 215.93C151.345 216.258 151.836 216.551 152 216.215H152.035Z" fill="#222221"/>
<path d="M132.198 199.086C135.229 197.45 138.405 196.096 141.685 195.041C144.98 193.98 148.502 193.839 151.871 194.636C155.649 195.662 158.822 198.198 161.703 200.855C163.523 202.579 165.343 204.425 166.016 206.823C166.783 209.669 165.757 212.645 164.912 215.448C164.029 218.409 163.343 221.426 162.859 224.478C162.645 225.467 162.616 226.488 162.773 227.488C162.86 227.986 163.069 228.455 163.382 228.853C163.695 229.25 164.102 229.564 164.567 229.765L166.55 229.152C170.853 223.831 174.262 217.845 176.641 211.429C177.702 208.574 178.565 205.503 178.047 202.493C177.53 199.483 175.244 196.585 172.208 196.266C170.25 196.05 168.249 196.904 166.326 196.464C164.204 195.981 162.764 194.084 161.306 192.463C158.743 189.632 155.644 187.336 152.189 185.708C148.734 184.079 144.991 183.151 141.176 182.975C138.211 182.772 135.243 183.327 132.551 184.588C131.208 185.229 130.027 186.164 129.095 187.324C128.164 188.485 127.505 189.84 127.169 191.29C126.609 194.213 127.972 197.525 130.619 198.81L132.198 199.086Z" fill="#2A2A8C"/>
<path d="M165.834 223.779C166.346 223.107 167.084 222.642 167.911 222.471C168.739 222.3 169.6 222.434 170.337 222.848C171.05 223.296 171.616 223.943 171.965 224.71C172.315 225.476 172.432 226.328 172.303 227.16C172.149 227.992 171.811 228.779 171.312 229.463C170.814 230.147 170.168 230.71 169.422 231.11C168.657 231.587 167.772 231.835 166.87 231.826C165.969 231.817 165.089 231.551 164.334 231.058" fill="#F5AD8C"/>
<path d="M131.861 205.348C133.112 205.452 134.337 204.943 135.57 204.779C136.93 204.658 138.298 204.658 139.658 204.779C139.923 204.776 140.178 204.678 140.377 204.502C140.576 204.327 140.704 204.086 140.74 203.823C140.776 203.56 140.715 203.294 140.571 203.072C140.426 202.85 140.206 202.687 139.951 202.614C137.51 202.071 133.155 202.157 131.43 204.339C131.35 204.427 131.296 204.536 131.276 204.653C131.255 204.77 131.268 204.891 131.313 205.001C131.358 205.111 131.434 205.206 131.531 205.276C131.628 205.345 131.742 205.385 131.861 205.391V205.348Z" fill="#2A2A8C"/>
<path d="M155.053 206.417C156.151 206.763 157.179 207.3 158.089 208.004C158.965 208.703 159.8 209.452 160.59 210.247C160.794 210.433 161.058 210.542 161.334 210.553C161.61 210.565 161.882 210.478 162.1 210.309C162.319 210.14 162.471 209.899 162.529 209.629C162.587 209.359 162.548 209.076 162.419 208.832C161.627 207.637 160.511 206.692 159.202 206.107C158.598 205.821 157.968 205.593 157.322 205.425C156.618 205.335 155.909 205.292 155.2 205.296C154.562 205.21 154.415 206.296 155.053 206.417Z" fill="#2A2A8C"/>
<path d="M170.578 226.125C170.626 225.851 170.606 225.57 170.522 225.305C170.437 225.041 170.29 224.8 170.093 224.604C169.896 224.409 169.654 224.264 169.389 224.182C169.123 224.099 168.842 224.083 168.568 224.133C167.102 224.262 166.317 225.625 166.05 226.927C166.029 227.006 166.032 227.089 166.059 227.166C166.085 227.243 166.133 227.31 166.198 227.36C166.262 227.41 166.34 227.439 166.421 227.445C166.502 227.451 166.583 227.433 166.654 227.393C166.834 227.249 167.045 227.148 167.269 227.096C167.494 227.045 167.728 227.044 167.953 227.095C168.178 227.145 168.388 227.245 168.57 227.388C168.751 227.531 168.898 227.712 169 227.919C169.44 228.962 168.543 229.687 167.542 229.523C167.137 229.454 166.809 230.032 167.24 230.248C167.562 230.385 167.914 230.434 168.261 230.389C168.607 230.345 168.936 230.209 169.213 229.996C169.489 229.782 169.704 229.499 169.835 229.175C169.966 228.851 170.008 228.498 169.957 228.152C169.698 226.323 167.663 225.84 166.24 226.677L166.843 227.143C166.888 226.762 167.011 226.395 167.204 226.064C167.397 225.733 167.656 225.446 167.965 225.219C168.153 225.098 168.368 225.025 168.591 225.006C168.814 224.988 169.038 225.026 169.243 225.116C169.448 225.205 169.628 225.344 169.766 225.521C169.904 225.697 169.996 225.904 170.035 226.125C170.104 226.375 170.526 226.401 170.578 226.125Z" fill="#F18474"/>
<path d="M133.767 210.16C133.315 210.606 133.013 211.182 132.905 211.808C132.86 212.116 132.883 212.43 132.972 212.728C133.062 213.026 133.215 213.3 133.422 213.533C133.638 213.763 133.915 213.926 134.221 214.004C134.526 214.082 134.848 214.071 135.147 213.973C135.37 213.884 135.571 213.75 135.739 213.579C135.907 213.408 136.037 213.205 136.122 212.981C136.269 212.637 136.321 212.261 136.273 211.891C136.224 211.52 136.077 211.17 135.846 210.876C135.606 210.589 135.28 210.388 134.916 210.302C134.552 210.216 134.17 210.252 133.828 210.402" fill="#222221"/>
<path d="M154.363 213.645C153.908 214.089 153.606 214.666 153.501 215.292C153.454 215.6 153.476 215.913 153.564 216.211C153.651 216.509 153.804 216.785 154.01 217.017C154.225 217.248 154.502 217.412 154.808 217.49C155.113 217.568 155.435 217.557 155.735 217.457C155.957 217.366 156.158 217.231 156.327 217.061C156.496 216.89 156.629 216.688 156.718 216.465C156.863 216.121 156.913 215.744 156.863 215.374C156.813 215.004 156.665 214.654 156.433 214.361C156.194 214.076 155.87 213.875 155.507 213.79C155.145 213.704 154.765 213.738 154.424 213.887" fill="#222221"/>
<path d="M201.955 310.088C202.352 310.347 197.073 318.713 191.51 329.511C185.947 340.309 182.135 349.434 181.695 349.262C181.497 349.184 182.187 346.804 183.619 343.052C187.425 333.305 192.244 323.986 197.996 315.245C200.23 311.908 201.774 309.967 201.955 310.088Z" fill="#F18474"/>
<path d="M186.913 336.031C187.034 336.471 185.697 337.212 184.145 338.178C182.592 339.144 181.307 339.972 180.971 339.662C180.635 339.351 181.532 337.885 183.3 336.807C185.068 335.729 186.801 335.608 186.913 336.031Z" fill="#F18474"/>
<path d="M231.038 296.392C229.606 298.53 226.812 303.766 226.812 303.766L207.837 299.85L214.841 286.102L213.202 272.992C215.789 271.44 218.791 281.617 218.791 281.617C218.791 281.617 230.313 276.278 231.4 279.849C231.536 280.369 231.528 280.916 231.376 281.431C231.224 281.946 230.934 282.41 230.538 282.773C230.538 282.773 233.211 281.79 233.789 283.239C234.272 284.455 232.487 285.93 232.487 285.93C233.114 285.791 233.771 285.891 234.329 286.21C234.887 286.528 235.306 287.044 235.506 287.655C236.118 289.707 231.038 296.392 231.038 296.392Z" fill="#F5AC8E"/>
<path d="M229.934 282.833C229.994 282.946 229.339 283.515 228.166 284.291C226.616 285.347 224.885 286.11 223.06 286.542C222.744 286.61 222.418 286.614 222.101 286.554C221.784 286.493 221.482 286.369 221.214 286.188C220.942 285.986 220.733 285.711 220.611 285.395C220.498 285.062 220.513 284.699 220.654 284.377C220.886 283.93 221.22 283.543 221.628 283.247C221.932 282.996 222.251 282.766 222.586 282.557C223.81 281.79 224.699 281.617 224.742 281.695C224.785 281.773 224.035 282.221 223.017 283.075C222.758 283.291 222.473 283.532 222.197 283.808C221.914 284.046 221.682 284.34 221.516 284.67C221.49 284.729 221.477 284.792 221.477 284.856C221.477 284.92 221.49 284.983 221.516 285.041C221.582 285.182 221.683 285.304 221.809 285.395C221.978 285.494 222.165 285.559 222.359 285.586C222.553 285.612 222.75 285.6 222.939 285.55C224.653 285.127 226.307 284.492 227.864 283.661C229.063 283.109 229.856 282.721 229.934 282.833Z" fill="#F18474"/>
<path d="M231.607 286.016C231.685 286.128 231.159 286.628 230.219 287.327C228.977 288.264 227.598 289.003 226.13 289.517C225.676 289.678 225.198 289.763 224.716 289.767C224.455 289.777 224.195 289.734 223.951 289.642C223.707 289.551 223.483 289.411 223.293 289.233C223.124 289.06 222.995 288.852 222.915 288.624C222.834 288.396 222.804 288.154 222.827 287.913C222.856 287.533 222.984 287.168 223.198 286.852C223.486 286.444 223.864 286.108 224.302 285.869C224.604 285.714 224.785 285.662 224.819 285.714C224.854 285.765 224.75 285.921 224.543 286.171C224.24 286.472 223.984 286.819 223.784 287.197C223.659 287.414 223.603 287.665 223.625 287.915C223.647 288.165 223.744 288.402 223.905 288.594C224.203 288.747 224.532 288.827 224.867 288.827C225.201 288.827 225.531 288.747 225.829 288.594C227.222 288.096 228.569 287.478 229.856 286.749C230.874 286.205 231.538 285.903 231.607 286.016Z" fill="#F18474"/>
<path d="M233.858 289.707C233.953 289.793 233.643 290.345 232.875 291.001C231.84 291.857 230.584 292.404 229.253 292.579C228.832 292.625 228.406 292.584 228.002 292.459C227.568 292.329 227.203 292.035 226.984 291.639C226.828 291.323 226.759 290.972 226.783 290.62C226.807 290.269 226.924 289.93 227.122 289.638C227.347 289.294 227.64 289 227.985 288.776C228.209 288.612 228.364 288.551 228.407 288.603C228.45 288.655 228.407 288.802 228.252 289.034C228.051 289.328 227.878 289.64 227.735 289.966C227.639 290.159 227.589 290.371 227.589 290.587C227.589 290.802 227.639 291.015 227.735 291.208C227.909 291.398 228.132 291.537 228.38 291.612C228.627 291.686 228.89 291.693 229.14 291.631C230.312 291.459 231.439 291.064 232.461 290.466C233.289 290.009 233.755 289.612 233.858 289.707Z" fill="#F18474"/>
<path d="M218.101 286.214C219.727 286.355 221.243 287.096 222.353 288.293C223.431 289.509 223.664 290.88 224.078 292.346C224.172 292.683 224.768 292.743 224.819 292.346C225.328 288.586 221.473 285.705 218.083 285.593C217.678 285.593 217.695 286.18 218.083 286.214H218.101Z" fill="#F18474"/>
<path d="M135.466 212.325C135.842 212.373 136.221 212.373 136.596 212.325C136.639 212.313 136.677 212.287 136.703 212.251C136.73 212.215 136.744 212.172 136.744 212.127C136.744 212.082 136.73 212.039 136.703 212.003C136.677 211.968 136.639 211.941 136.596 211.929C136.221 211.877 135.841 211.877 135.466 211.929C135.42 211.938 135.378 211.964 135.348 212.001C135.318 212.038 135.302 212.084 135.302 212.131C135.302 212.179 135.318 212.225 135.348 212.262C135.378 212.299 135.42 212.324 135.466 212.334V212.325Z" fill="#F2E7E2"/>
<path d="M156.045 215.836C156.401 215.897 156.762 215.929 157.123 215.931C157.373 215.931 157.486 215.499 157.192 215.448C156.81 215.422 156.427 215.422 156.045 215.448C155.821 215.448 155.821 215.793 156.045 215.81V215.836Z" fill="#F2E7E2"/>
<path d="M164.704 229.265C165.367 224.78 167.447 220.625 170.638 217.406C173.002 215.06 175.667 213.162 176.779 209.893C176.995 209.255 176.012 209.031 175.77 209.617C174.226 213.688 170.147 215.844 167.689 219.294C165.655 222.222 164.443 225.641 164.178 229.196C164.178 229.489 164.653 229.558 164.704 229.265Z" fill="#4444AD"/>
<path d="M134.932 184.269C131.758 190.548 139.943 193.825 144.678 194.619C145.152 194.696 145.359 194.006 144.885 193.894C140.434 192.799 132.982 190.625 135.104 184.338C135.104 184.243 134.983 184.174 134.932 184.269Z" fill="#4444AD"/>
<path d="M164.377 228.833C162.755 221.718 166.481 216.172 169.12 209.859C170.845 205.848 171.837 201.406 170.19 197.206C169.983 196.68 169.138 196.887 169.327 197.448C172.95 208.746 159.547 217.862 163.73 228.98C163.742 229.023 163.762 229.063 163.789 229.098C163.817 229.134 163.851 229.163 163.89 229.185C163.929 229.207 163.972 229.221 164.016 229.227C164.06 229.232 164.105 229.229 164.148 229.217C164.191 229.205 164.232 229.185 164.267 229.157C164.302 229.13 164.331 229.096 164.353 229.057C164.375 229.018 164.39 228.975 164.395 228.931C164.401 228.887 164.397 228.842 164.385 228.799L164.377 228.833Z" fill="#4444AD"/>
<path d="M162.057 200.673C161.633 196.764 159.733 193.164 156.744 190.608C153.397 187.667 148.119 187.434 145.368 183.95C145.083 183.588 144.505 184.053 144.738 184.433C146.592 187.495 150.422 187.745 153.363 189.323C157.822 191.755 160.332 195.964 161.643 200.734C161.712 200.967 162.108 200.932 162.083 200.673H162.057Z" fill="#4444AD"/>
<path opacity="0.39" d="M158.288 225.642C158.029 226.292 157.644 226.884 157.156 227.384C156.667 227.884 156.085 228.283 155.441 228.557C154.141 229.149 152.664 229.223 151.31 228.764C148.084 227.902 146.049 225.038 146.748 222.261C147.446 219.484 150.629 217.949 153.854 218.725C155.455 219.215 156.841 220.234 157.787 221.614C158.183 222.198 158.435 222.868 158.522 223.568C158.609 224.268 158.529 224.979 158.288 225.642Z" fill="#F18474"/>
<path d="M61.112 159.697C45.9496 175.653 32.5467 193.644 24.4738 214.111C16.401 234.577 14.0378 257.761 20.6962 278.719C28.631 303.55 48.6837 323.189 71.7119 335.401C94.7401 347.614 120.684 353.177 146.463 357.006C148.852 357.36 151.465 357.662 153.527 356.394C157.787 353.807 155.899 346.614 151.586 344.095C147.274 341.577 141.935 341.991 136.924 341.585C130.621 341.025 124.523 339.06 119.078 335.835C113.634 332.61 108.981 328.206 105.461 322.947C102.011 317.772 99.3199 311.355 93.5672 308.949C86.8657 306.137 79.2845 310.105 72.0051 309.811C59.8442 309.259 51.7714 297.4 45.7167 286.835C40.1624 277.072 34.4786 267.041 32.8658 255.941C31.6066 247.316 32.8658 238.502 34.194 229.851C37.756 206.072 45.9496 178.809 61.112 159.697Z" fill="#EDEDEB"/>
<path d="M128.291 353.833C114.491 352.108 100.234 358.585 88.306 352.039C84.3817 349.891 81.5269 346.088 77.5077 344.147C71.065 341.025 63.4579 343.336 56.2993 343.328C50.1068 343.225 44.0706 341.366 38.8931 337.968C33.7155 334.569 29.6095 329.77 27.0526 324.129C25.6123 320.817 24.8016 316.798 26.699 313.719C28.8293 310.269 33.711 309.406 37.5318 310.752C41.3526 312.097 44.3281 315.064 47.019 318.074C49.71 321.084 52.4182 324.258 55.9975 326.138C64.1738 330.451 74.972 327.07 82.8465 331.9C88.5389 335.402 91.3419 342.439 97.0947 345.855C104.089 349.995 128.187 345.286 128.273 353.833" fill="#F08299"/>
<path d="M41.4216 174.946C40.8782 179.422 36.1863 182.027 31.9343 183.639C27.6823 185.252 22.9041 187.089 21.3172 191.298C20.3081 193.955 20.8514 197.06 19.5922 199.578C17.8069 203.028 13.0373 204.46 11.8299 208.203C10.7086 211.653 13.6756 215.508 17.2462 216.12C20.8169 216.733 24.4566 214.723 26.7335 211.877C29.0105 209.031 30.08 205.46 30.9511 201.941C31.8222 198.422 32.4863 194.981 34.2716 191.936C35.574 189.711 37.4197 187.84 38.722 185.623C40.0244 183.406 42.5945 177.274 41.4474 174.971" fill="#FDE17E"/>
<path d="M1.9631 241.304C1.60085 241.658 -0.745092 245.28 0.772873 248.118C1.16873 248.811 1.69795 249.418 2.32993 249.905C2.96192 250.392 3.68414 250.749 4.45485 250.955C5.22556 251.161 6.02949 251.212 6.82015 251.106C7.61082 250.999 8.37255 250.737 9.06131 250.335C9.71346 249.875 10.2681 249.291 10.693 248.616C11.118 247.94 11.405 247.188 11.5373 246.401C11.6696 245.614 11.6447 244.809 11.464 244.032C11.2833 243.255 10.9503 242.521 10.4844 241.874C9.96631 241.271 9.33327 240.777 8.62223 240.421C7.9112 240.065 7.13642 239.855 6.34314 239.802C5.54985 239.749 4.75396 239.854 4.00193 240.112C3.2499 240.37 2.5568 240.776 1.9631 241.304Z" fill="#FDE17E"/>
<path d="M33.3574 232.861C35.7379 231.472 38.4461 233.128 39.5587 235.647C40.6713 238.165 40.1883 241.089 39.4121 243.737C38.6358 246.385 37.575 248.998 37.5663 251.749C37.5663 258.934 44.3627 264.091 47.2261 270.681C48.2266 272.983 48.7613 275.502 50.1154 277.58C51.9439 280.427 55.0229 282.169 57.6104 284.351C60.1978 286.533 62.4748 289.785 61.7158 293.079C60.8533 296.866 56.1528 298.737 52.3838 297.814C48.6147 296.891 45.665 293.993 43.1811 291.009C36.3707 283.063 31.6853 273.52 29.5625 263.272C27.5874 253.043 28.7 242.141 33.3402 232.826" fill="#59D2E5"/>
<path d="M73.8595 313.193C73.1086 313.766 72.5001 314.504 72.0812 315.351C71.6624 316.198 71.4445 317.13 71.4445 318.074C71.4711 318.827 71.6672 319.563 72.0182 320.229C72.3691 320.895 72.8658 321.474 73.4714 321.921C74.6935 322.806 76.1472 323.315 77.6544 323.387C79.7761 323.534 82.1134 322.93 83.364 321.214C83.9524 320.321 84.2559 319.271 84.2343 318.202C84.2128 317.133 83.8672 316.096 83.2433 315.228C82.5965 314.379 81.7721 313.681 80.8276 313.183C79.8831 312.686 78.8413 312.401 77.7751 312.347C76.5417 312.233 75.3006 312.46 74.1872 313.003C73.6347 313.277 73.1439 313.66 72.745 314.131C72.346 314.601 72.0473 315.147 71.8671 315.737" fill="#F08299"/>
<path d="M201.843 329.097C206.75 332.547 228.321 316.384 236.739 303.861C245.157 291.337 247.606 274.036 239.844 261.099C238.119 258.166 235.85 255.484 234.617 252.301C233.384 249.119 233.392 245.117 235.79 242.676C238.378 240.02 242.983 240.261 246.14 242.219C249.297 244.177 251.461 247.394 253.488 250.559C257.93 257.459 262.423 264.411 264.899 272.207C267.374 280.004 267.65 288.862 263.795 296.09C260.155 302.912 253.445 307.423 247.968 312.917C243.302 317.626 239.507 323.137 234.919 327.924C230.331 332.71 224.621 336.859 218.049 337.739C211.477 338.618 204.034 335.35 201.817 329.114" fill="#3C34B7"/>
<path d="M188.198 214.111C190.976 212.533 194.503 213.438 197.341 214.913C200.178 216.388 202.766 218.423 205.871 219.182C208.976 219.941 212.883 218.88 213.935 215.87C214.694 213.697 213.676 211.222 212.037 209.617C210.294 208.104 208.281 206.933 206.104 206.167C202.602 204.693 198.902 203.192 195.116 203.58C191.329 203.968 187.543 207.03 187.741 210.833" fill="#3C34B7"/>
<path d="M234.238 216.552C233.663 218.353 233.766 220.302 234.527 222.033C235.287 223.764 236.654 225.158 238.369 225.953C240.126 226.636 242.076 226.635 243.833 225.95C245.59 225.265 247.025 223.945 247.856 222.253C248.56 220.503 248.561 218.549 247.859 216.799C247.156 215.049 245.805 213.638 244.087 212.86C240.586 211.463 235.307 212.938 234.229 216.552" fill="#3C34B7"/>
<path d="M75.3429 279.332C77.6285 273.933 80.1555 268.896 81.9495 263.29C83.8038 257.476 85.1924 251.534 87.4521 245.842C91.3074 236.139 97.3965 227.919 106.918 223.279C109.083 222.227 107.565 218.553 105.271 219.363C95.4214 222.813 88.5389 231.835 84.2351 240.994C81.837 246.37 79.8505 251.921 78.2926 257.597C77.3352 260.84 76.5676 264.135 75.7051 267.421C74.8427 270.957 74.3769 274.545 72.9366 277.926C72.2466 279.556 74.6616 280.97 75.3429 279.332Z" fill="#3C34B7"/>
<path d="M86.2016 126.31C81.8569 122.833 76.8294 120.309 71.4456 118.902C66.0619 117.495 60.4423 117.236 54.9519 118.142C49.4615 119.048 44.2232 121.099 39.5771 124.161C34.9311 127.224 30.9812 131.23 27.9841 135.918L38.4719 134.987C35.5567 137.962 32.5553 141.076 31.1926 145.009C29.8298 148.942 30.6061 153.953 34.0991 156.221C36.9022 158.058 40.5936 157.679 43.8538 156.902C47.1139 156.126 50.4604 155.022 53.7637 155.635C57.067 156.247 60.1978 159.404 59.3439 162.647C57.9381 168.02 48.1834 167.821 47.4589 173.307C47.0363 176.481 50.2448 178.973 53.3066 179.913C64.2428 183.294 76.2399 175.834 81.6218 165.726C87.0037 155.617 87.2538 143.62 86.7967 132.175" fill="#FCBC00"/>
<path d="M39.8346 177.818C41.1197 175.644 38.377 173.221 36.4537 172.867C35.822 172.753 35.1737 172.767 34.5477 172.909C33.9217 173.052 33.3309 173.319 32.8107 173.695C32.2904 174.071 31.8514 174.548 31.5201 175.098C31.1887 175.648 30.9717 176.259 30.8821 176.895C30.8347 177.55 30.9313 178.207 31.1649 178.821C31.3985 179.435 31.7635 179.99 32.2344 180.448C32.7053 180.905 33.2706 181.254 33.8907 181.471C34.5108 181.687 35.1707 181.765 35.8241 181.699C36.501 181.62 37.1528 181.396 37.7346 181.042C38.3164 180.687 38.8143 180.21 39.194 179.645C39.5736 179.079 39.826 178.437 39.9336 177.765C40.0412 177.092 40.0016 176.404 39.8174 175.748C39.6708 175.377 39.4281 175.052 39.1143 174.807C38.8005 174.561 38.4269 174.404 38.032 174.35C37.6946 174.322 37.3551 174.366 37.0358 174.478C36.7166 174.591 36.4249 174.771 36.1803 175.005C35.9356 175.239 35.7435 175.522 35.6167 175.836C35.4898 176.15 35.4312 176.487 35.4446 176.826C35.4446 176.826 35.2462 177.231 35.4446 177.033C35.463 177.022 35.4838 177.017 35.505 177.017C35.5262 177.017 35.547 177.022 35.5653 177.033C35.6775 177.102 35.5653 177.033 35.3497 176.946C35.3497 176.946 35.4705 177.024 35.4618 177.041C35.5629 176.941 35.6887 176.869 35.8265 176.833C35.9643 176.796 36.1092 176.797 36.2467 176.834C37.1092 177.05 37.6957 177.973 38.5409 178.318C38.7937 178.416 39.0743 178.416 39.3269 178.317C39.5795 178.218 39.7855 178.027 39.9036 177.783L39.8346 177.818Z" fill="#FCBC00"/>
<path d="M50.1326 188.84C50.1551 189.028 50.2389 189.204 50.3711 189.339C50.5033 189.475 50.6765 189.563 50.8639 189.591C51.0514 189.618 51.2426 189.583 51.4082 189.491C51.5738 189.399 51.7044 189.255 51.78 189.081C51.7575 188.893 51.6737 188.718 51.5415 188.582C51.4093 188.446 51.2361 188.358 51.0487 188.331C50.8612 188.303 50.67 188.338 50.5044 188.43C50.3388 188.522 50.2082 188.666 50.1326 188.84Z" fill="#FCBC00"/>
<path d="M135.242 136.349C135.242 136.349 146.385 199 79.8364 194.576C79.8364 194.576 111.748 180.508 107.436 159.964L135.242 136.349Z" fill="#FCBC00"/>
<path d="M212.624 18.9401C212.624 18.9401 143.686 7.97794 53.5566 92.915L109.031 161.215C109.031 161.215 211.779 91.9577 212.624 18.9401Z" fill="#EDEDEB"/>
<path d="M109.031 161.215L52.1939 91.2418L47.6918 93.9673L105.926 165.217L109.031 161.215Z" fill="#39297F"/>
<path d="M105.737 103.256L79.6811 118.548L42.7411 155.997C42.7411 155.997 72.5484 141.257 86.305 129.26C90.5915 125.568 102.011 113.123 105.737 103.256Z" fill="#5A39B5"/>
<path d="M78.8015 71.0424C78.8015 71.0424 16.4959 52.3956 14.6329 119.065C14.6329 119.065 31.6497 88.6456 51.7196 94.9159L78.8015 71.0424Z" fill="#FCBC00"/>
<g opacity="0.1">
<path opacity="0.1" d="M105.737 103.256C105.737 103.256 69.1503 103.937 64.6827 106.62L78.8705 124.085L105.737 103.256Z" fill="#9797DB"/>
</g>
<path d="M149.085 52.1197C137.269 50.688 130.326 61.8312 130.749 72.5519C131.163 82.7809 141.254 90.8192 151.241 89.2236C161.703 87.4986 169.043 78.0114 167.292 67.3597C165.481 56.3372 153.958 47.0742 142.634 50.9726C142.009 51.1689 141.473 51.5798 141.122 52.1327C140.77 52.6856 140.626 53.3449 140.714 53.9941C140.801 54.6433 141.116 55.2406 141.601 55.6804C142.087 56.1202 142.712 56.3742 143.367 56.3976C150.465 56.6305 156.52 57.9069 160.375 64.5135C164.489 71.5773 160.099 80.5384 153.027 83.2811C133.491 90.8709 128.515 54.7158 149.085 54.2932C149.355 54.269 149.607 54.1445 149.79 53.9442C149.973 53.7439 150.075 53.4822 150.075 53.2107C150.075 52.9393 149.973 52.6776 149.79 52.4773C149.607 52.277 149.355 52.1525 149.085 52.1283V52.1197Z" fill="#3C34B7"/>
<g opacity="0.32">
<path opacity="0.32" d="M149.085 53.2064C143.168 52.4129 137.45 56.708 134.88 62.0985C132.997 66.0041 132.522 70.4404 133.535 74.6562C134.582 78.8705 137.259 82.4968 140.978 84.7386C147.188 88.3783 155.855 86.8517 160.634 81.4698C165.412 76.088 165.955 67.489 162.1 61.4517C160.089 58.4571 157.238 56.1231 153.905 54.7422C150.573 53.3613 146.907 52.995 143.367 53.6893" fill="#3C34B7"/>
</g>
<path d="M204.5 56.5L178 22.5C189.667 19.8333 213.1 15.6 213.5 20C213.9 24.4 207.667 46.1667 204.5 56.5Z" fill="#FCBC00"/>
</g>
<defs>
<clipPath id="clip0">
<rect width="266.524" height="363.553" fill="white" transform="translate(0.238159)"/>
</clipPath>
</defs>
</svg>
