<svg width="1190" height="765" viewBox="0 0 1190 765" fill="none" xmlns="http://www.w3.org/2000/svg">
<g clip-path="url(#clip0)">
<path d="M964.366 761.282C964.366 761.282 1082.13 758.481 1132.46 687.107C1223.63 557.798 1182.54 444.426 1020.24 452.842C838.664 462.28 861.056 61.4374 546.68 254.427C478.415 296.339 326.471 208.325 265.768 391.686C251.338 435.29 142.932 438.327 72.8763 473.292C-37.0186 528.138 -5.9883 762.2 97.833 763.118C201.654 764.037 964.366 761.282 964.366 761.282Z" fill="#DDE8FD"/>
<path d="M412.386 160.635H406.746V109.127L404.975 108.97V88.4995L405.486 86.8008L158.988 12.5471L56.092 81.9865L57.0627 83.4426C55.4547 83.4461 53.9135 84.0864 52.7765 85.2234C51.6395 86.3605 50.9992 87.9016 50.9957 89.5096V124.928C51.0061 126.532 51.6492 128.067 52.7853 129.199C53.9214 130.332 55.4586 130.97 57.0627 130.975H108.636C110.244 130.97 111.785 130.328 112.922 129.19C114.059 128.052 114.699 126.51 114.703 124.902V110.747H149.091V762.049H189.553V110.747H355.953L402.345 160.635H392.834C391.225 160.64 389.684 161.282 388.547 162.42C387.411 163.558 386.771 165.1 386.767 166.708V172.775C386.772 174.383 387.413 175.923 388.55 177.06C389.686 178.196 391.227 178.837 392.834 178.842H412.386C413.994 178.837 415.534 178.196 416.671 177.06C417.807 175.923 418.448 174.383 418.453 172.775V166.708C418.45 165.1 417.81 163.558 416.673 162.42C415.536 161.282 413.995 160.64 412.386 160.635ZM159.579 16.3972L398.842 88.4995H114.63C114.388 87.0885 113.656 85.808 112.564 84.8831C111.471 83.9583 110.087 83.4482 108.655 83.4426H60.2438L159.579 16.3972ZM384.885 110.747L403.204 112.368V156.365L360.794 110.747H384.885Z" fill="#BED2FA"/>
<path d="M319.787 761.918H141.817C150.39 755.595 181.171 733.531 209.013 721.62C220.557 716.688 231.602 713.494 240.365 713.887C268.155 715.133 307.109 749.896 319.787 761.918Z" fill="#A83F3F"/>
<path d="M263.216 761.918H85.2661C97.387 752.972 153.905 712.549 183.814 713.887C191.613 714.242 200.297 717.232 209.033 721.62C231.386 732.862 254.093 753.267 263.216 761.918Z" fill="#FA7269"/>
<path d="M1124.24 197.844L1124.9 196.84L1054.34 149.216L885.252 200.152L885.607 201.313V215.356L884.393 215.461V250.794H880.523C879.42 250.797 878.363 251.237 877.582 252.018C876.802 252.798 876.362 253.855 876.359 254.959V259.124C876.364 260.226 876.804 261.282 877.585 262.061C878.365 262.84 879.421 263.279 880.523 263.282H893.936C895.038 263.279 896.094 262.84 896.873 262.06C897.652 261.281 898.091 260.226 898.095 259.124V254.959C898.093 253.856 897.655 252.799 896.875 252.018C896.096 251.238 895.039 250.797 893.936 250.794H887.378L919.201 216.576H1033.33V663.318H1061.08V216.576H1084.69V226.283C1084.69 227.386 1085.13 228.444 1085.91 229.224C1086.69 230.005 1087.75 230.445 1088.85 230.448H1124.23C1125.33 230.445 1126.39 230.005 1127.17 229.224C1127.95 228.444 1128.39 227.387 1128.39 226.283V202.015C1128.39 200.913 1127.95 199.856 1127.18 199.074C1126.4 198.293 1125.34 197.851 1124.24 197.844ZM1053.94 151.872L1122.07 197.844H1088.86C1087.88 197.848 1086.93 198.198 1086.18 198.833C1085.43 199.467 1084.93 200.345 1084.76 201.313H889.811L1053.94 151.872ZM886.82 247.862V217.691L899.387 216.583H915.909L886.82 247.862Z" fill="#DDE8FD"/>
<path d="M789.531 36.1921H556.086V762.627H789.531V36.1921Z" fill="#BED2FA"/>
<path d="M725.05 136.426H556.086V242.851H725.05V136.426Z" fill="#DDE8FD"/>
<path d="M725.05 331.305H556.086V437.73H725.05V331.305Z" fill="#DDE8FD"/>
<path d="M725.05 523.659H556.086V630.084H725.05V523.659Z" fill="#DDE8FD"/>
<path d="M1080.54 629.402H1049.04V530.991H789.525V36.1921H725.05V763.033H789.525V762.627H1049.04H1080.54V629.402Z" fill="#C3D5FA"/>
<path d="M1188.83 764.345H1.16749C0.857852 764.345 0.560897 764.222 0.34195 764.003C0.123003 763.784 0 763.487 0 763.178H0C0 762.868 0.123003 762.571 0.34195 762.352C0.560897 762.133 0.857852 762.01 1.16749 762.01H1188.83C1189.14 762.01 1189.44 762.133 1189.66 762.352C1189.88 762.571 1190 762.868 1190 763.178C1190 763.487 1189.88 763.784 1189.66 764.003C1189.44 764.222 1189.14 764.345 1188.83 764.345Z" fill="#3662C1"/>
<path d="M837.779 762.03C837.779 762.03 838.245 751.975 840.94 746.584C843.636 741.192 865.208 744.898 865.208 744.898C865.208 744.898 870.18 753.89 869.504 761.951L837.779 762.03Z" fill="#060632"/>
<path d="M779.857 762.03C779.857 762.03 780.323 751.975 783.018 746.584C785.714 741.192 807.286 744.898 807.286 744.898C807.286 744.898 812.265 753.89 811.589 761.951L779.857 762.03Z" fill="#060632"/>
<path d="M851.762 335.299C849.067 337.267 824.674 349.978 824.674 349.978L798.95 331.613C798.95 331.613 806.762 330.478 806.972 330.413C809.293 329.757 809.188 323.546 809.477 316.915C809.523 315.891 809.582 314.862 809.654 313.838L834.84 312.927V313.242C834.84 313.556 834.88 313.897 834.906 314.239L834.958 314.96C834.958 315.209 834.958 315.452 835.011 315.714C835.47 321.539 836.441 329.764 838.29 330.728C839.386 331.298 846.555 331.226 851.762 335.299Z" fill="#FC9290"/>
<path d="M835.037 315.74C832.965 319.892 828.334 327.127 821.473 326.891C814.914 326.661 811.189 320.706 809.477 316.941C809.523 315.918 809.582 314.888 809.654 313.865L834.84 312.953V313.268L834.906 314.265L834.959 314.986C834.998 315.235 835.018 315.485 835.037 315.74Z" fill="#EA8888"/>
<path d="M806.663 257.714C806.663 257.714 818.81 245.612 833.142 257.956C833.142 257.956 824.622 256.192 806.663 257.714Z" fill="#0B0754"/>
<path d="M802.157 302.209C799.582 296.658 797.501 290.89 795.939 284.972C794.241 278.348 795.795 253.214 821.06 254.919C826.148 255.24 831.1 256.699 835.549 259.189C841.249 262.469 849.677 269.775 842.547 292.141L840.822 299.645L802.157 302.209Z" fill="#9E332E"/>
<path d="M837.503 312.769C830.944 319.007 822.877 327.317 805.411 311.949C801.987 308.939 802.223 304.315 802.02 297.677C801.783 289.806 799.888 285.005 800.767 280.473C801.81 275.055 806.447 272.602 816.069 271.769C833.732 270.235 842.659 274.216 841.472 282.979C838.822 302.537 844.134 306.427 837.503 312.769Z" fill="#FC9290"/>
<path d="M823.107 271.448C823.107 271.448 833.601 271.225 835.969 274.727C838.336 278.23 838.691 282.145 839.904 284.113C840.637 285.384 840.986 286.84 840.907 288.304L843.229 272.674L829.062 269.861L823.107 271.448Z" fill="#9E332E"/>
<path d="M884.177 357.652C884.177 357.652 879.704 370.829 861.575 373.242C861.089 373.308 860.584 373.361 860.073 373.413H786.245L785.852 373.288C782.986 372.383 765.349 366.336 763.492 355.035C763.492 355.035 772.767 336.014 779.844 333.633C782.432 332.863 785.083 332.328 787.767 332.033C790.837 331.639 794.07 331.377 796.779 331.206C800.511 330.97 803.253 330.911 803.253 330.911C803.253 330.911 808.998 342.566 822.988 342.396C836.979 342.225 840.199 331.082 840.199 331.082C840.199 331.082 844.134 331.193 849.342 331.738C852.222 332.046 855.488 332.492 858.708 333.128C864.165 334.217 869.478 335.857 872.522 338.323C880.635 344.921 884.177 357.652 884.177 357.652Z" fill="#93B3F4"/>
<path d="M866.612 459.565C865.831 455.203 864.644 448.559 863.739 442.715C863.739 442.636 866.481 409.723 867.491 404.168C868.501 398.613 861.627 368.343 861.627 368.343C860.033 363.712 857.318 362.296 855.239 362.296L858.735 333.154C855.514 332.499 852.248 332.072 849.368 331.764L847.696 362.296V362.735C843.872 362.952 839.097 363.207 834.65 363.391C830.203 363.575 826.124 363.739 823.559 363.739C818.404 363.739 806.585 363.148 798.734 362.722V362.283L796.779 331.226C794.07 331.397 790.837 331.659 787.767 332.053L791.106 362.315C788.902 362.315 786.377 366.251 786.029 368.389L785.688 377.86C784.028 382.622 780.585 393.215 780.008 400.646C779.254 410.484 783.359 444.65 783.386 444.886C783.235 448.965 782.946 454.173 782.395 459.211C779.306 467.567 766.149 506.435 767.493 558.703C768.74 607.488 769.461 690.859 775.226 731.334C775.907 736.736 776.983 742.08 778.447 747.325C778.751 748.306 779.33 749.18 780.114 749.843C780.898 750.507 781.856 750.932 782.874 751.07C789.466 751.988 804.328 753.693 810.723 751.345C813.786 750.224 815.97 733.21 817.538 711.277C819.02 690.249 819.919 664.708 820.411 644.29C820.811 628.024 820.962 615.051 820.962 610.243C820.962 599.375 823.533 567.479 824.379 548.714C824.392 548.612 824.441 548.519 824.518 548.451C824.595 548.384 824.693 548.346 824.795 548.346C824.898 548.346 824.996 548.384 825.073 548.451C825.15 548.519 825.199 548.612 825.212 548.714C826.524 571.014 831.003 604.76 831.076 612.263C831.24 630.471 830.184 747.423 838.14 751.352C844.22 754.356 858.558 752.086 865.405 751.155C866.616 750.991 867.753 750.479 868.678 749.68C869.603 748.881 870.275 747.83 870.613 746.656C879.139 717.226 879.927 614.979 881.37 558.71C882.701 507.156 869.931 468.649 866.612 459.565Z" fill="#0B0754"/>
<path d="M799.567 480.612C797.035 482.632 788.777 481.786 785.576 479.091C782.375 476.395 775.974 477.234 774.426 476.224C774.321 476.152 744.511 440.806 741.277 425.957C737.998 410.956 758.652 369.668 764.489 358.4C768.812 367.536 783.215 372.462 785.786 373.275L786.18 373.4H786.98C782.12 386.518 767.592 410.182 761.99 419.096C761.307 420.187 760.906 421.432 760.825 422.717C760.743 424.002 760.984 425.287 761.525 426.455C768.74 441.875 775.751 454.882 778.834 463.894C779.444 464.89 780.755 466.681 782.343 466.438C784.54 466.097 791.617 464.582 795.159 469.803C798.701 475.024 802.092 478.586 799.567 480.612Z" fill="#FC9290"/>
<path d="M844.948 258.068C843.341 256.018 841.523 254.143 839.524 252.473C838.973 251.994 838.376 251.515 837.746 251.043C831.345 246.17 821.1 241.415 808.756 246.57C805.627 247.86 802.764 249.719 800.314 252.053C799.763 252.571 799.252 253.103 798.76 253.654C788.049 265.532 788.961 284.159 788.961 284.159L850.746 283.503C850.949 266.253 844.948 258.068 844.948 258.068Z" fill="#E75755"/>
<path d="M833.391 283.687C833.214 281.063 832.033 259.773 839.524 252.48C839.19 252.17 838.84 251.878 838.474 251.607C830.485 259.983 829.947 280.978 830.007 283.746L810.251 283.956C809.667 268.824 801.318 253.785 800.314 252.073C799.911 252.439 799.53 252.829 799.173 253.24C800.622 255.792 806.08 270.379 806.598 283.995L788.961 284.179C788.961 284.179 805.417 288.436 817.82 288.285C830.223 288.134 850.759 283.523 850.759 283.523L833.391 283.687Z" fill="#A83F3F"/>
<path d="M801.902 365.49C795.579 377.624 777.633 379.919 777.633 379.919C783.451 365.759 771.73 361.299 764.516 346.797C757.301 332.295 770.019 322.699 770.019 322.699C762.095 324.221 760.58 334.833 760.58 334.833C759.924 327.756 765.827 315.812 784.514 313.432C798.215 311.707 801.521 307.089 802.308 304.734C802.616 307.784 803.358 310.172 805.404 311.949C806.853 313.228 808.237 314.33 809.556 315.301C809.556 315.852 809.503 316.403 809.477 316.947C809.392 318.816 809.346 320.646 809.254 322.332C808.125 323.702 807.404 325.362 807.172 327.122C806.94 328.883 807.207 330.672 807.942 332.288C809.732 334.646 810.863 337.437 811.222 340.376C812.088 348.391 806.637 356.393 801.902 365.49Z" fill="#9E332E"/>
<path d="M866.474 458.771L863.739 442.728C851.878 447.14 839.417 449.728 826.78 450.402C826.119 449.179 825.182 448.127 824.044 447.33C822.905 446.532 821.596 446.012 820.221 445.81L810.382 444.394C808.549 444.134 806.68 444.451 805.035 445.301C803.39 446.15 802.049 447.491 801.2 449.136C795.147 448.256 789.192 446.807 783.412 444.807V444.892L782.441 458.994V459.027C788.101 460.535 793.532 461.703 798.727 462.595L798.438 464.562C798.093 466.904 798.69 469.288 800.099 471.19C801.508 473.092 803.614 474.358 805.955 474.709L816.816 476.336C818.041 476.52 819.291 476.448 820.486 476.123C821.682 475.799 822.796 475.229 823.76 474.451C824.723 473.672 825.514 472.702 826.083 471.602C826.651 470.501 826.984 469.295 827.062 468.058L827.252 465.035C847.939 464.904 861.706 460.548 866.474 458.771Z" fill="#060632"/>
<path d="M906.202 425.957C902.968 440.826 873.158 476.152 873.053 476.224C872.692 476.428 872.296 476.559 871.885 476.611H871.826C869.367 477.038 864.559 476.861 861.929 479.084C858.728 481.78 850.464 482.626 847.932 480.606C845.4 478.586 848.778 475.044 852.32 469.81C855.862 464.576 862.939 466.104 865.13 466.445C866.441 466.642 867.556 465.468 868.252 464.477L868.291 464.418C868.422 464.228 868.547 464.044 868.639 463.887C871.656 455.072 878.477 442.452 885.462 427.478C886.156 426.005 886.469 424.381 886.373 422.755C886.277 421.129 885.774 419.553 884.911 418.171C880.222 410.681 870.705 395.123 864.579 382.635C863.87 379.027 863.155 375.63 862.611 373.065C876.063 370.901 881.632 362.715 883.429 359.226C889.778 371.583 909.389 411.304 906.202 425.957Z" fill="#FC9290"/>
<path d="M1108.01 490.044C1103.5 491.087 1083.09 491.356 1068.81 488.122C1066.08 487.549 1063.42 486.717 1060.85 485.636C1058.15 484.449 1056.12 483.013 1055.08 481.281C1053.47 478.586 1050.49 469.364 1047.03 457.269C1037.45 423.95 1023.96 368.894 1023.96 368.894C1023.96 368.894 1051.04 374.423 1056.76 379.139C1062.47 383.855 1067.54 458.692 1072.94 460.719C1073.73 461.014 1075.1 461.644 1076.87 462.51L1077.13 462.634C1078.18 463.152 1079.36 463.749 1080.63 464.405C1091.78 470.151 1110.32 480.501 1112.23 482.77C1114.75 485.833 1114.59 488.529 1108.01 490.044Z" fill="#6D89CF"/>
<path d="M1056.05 411.501C1056.05 410.218 1055.93 408.938 1055.69 407.677C1052.21 388.518 1024.51 368.894 1023.96 368.894V369.268C1023.96 372.2 1019.37 377.604 1012.23 378.07C1003.81 378.621 993.39 373.807 993.39 368.947C993.344 368.947 988.654 369.602 987.067 369.76C980.304 370.527 966.813 374.181 961.034 378.549C955.538 382.701 963.304 408.877 968.111 427.413C970.151 435.284 971.653 441.731 971.391 444.597C971.273 445.994 970.013 465.028 968.892 482.239C967.961 496.439 967.121 509.393 967.095 510.213C967.036 511.82 975.051 517.474 988.516 521.737C992.026 522.851 995.592 523.777 999.201 524.511C1006.85 526.075 1014.63 526.846 1022.43 526.813C1025.21 526.813 1027.85 526.663 1030.34 526.413C1049.58 524.557 1056.17 502.637 1056.05 411.501Z" fill="#6D89CF"/>
<path d="M993.39 368.75C993.232 361.305 993.35 352.425 994.36 344.915L1024.06 349.768C1024.06 349.768 1024.06 358.839 1023.96 368.894C1023.96 368.894 1024.77 378.227 1013.28 379.592C1001.78 380.956 993.081 375.951 993.39 368.75Z" fill="#FC9290"/>
<path d="M1018.24 762.03C1014.5 759.734 1016.7 742.701 1016.7 742.701C1016.7 742.701 1034.19 728.815 1036.55 739.507C1038.9 750.198 1053.06 755.045 1061.12 756.383C1066.69 757.307 1068.74 760.187 1069.27 762.01L1018.24 762.03Z" fill="#060632"/>
<path d="M991.055 469.147C991.055 497.633 977.281 489.952 968.918 482.265C970.04 465.055 970.827 404.083 970.827 404.083C970.827 404.083 991.055 428.357 991.055 469.147Z" fill="#3662C1"/>
<path d="M1080.62 464.405C1080.07 468.399 1073.76 480.029 1068.82 488.122C1066.09 487.549 1063.42 486.717 1060.85 485.636C1058.16 484.449 1056.13 483.013 1055.09 481.281C1053.48 478.586 1050.5 469.364 1047.04 457.269C1049.61 442.38 1052.06 427.682 1052.06 427.682L1052.81 417.843C1052.81 418.604 1064.36 461.919 1069.58 462.929C1072.74 463.546 1074.97 462.798 1076.87 462.529L1077.13 462.654C1078.17 463.152 1079.35 463.749 1080.62 464.405Z" fill="#3662C1"/>
<path d="M964.642 762.03C960.91 759.734 963.1 742.701 963.1 742.701C963.1 742.701 980.593 728.815 982.954 739.507C985.316 750.198 999.463 755.045 1007.52 756.383C1013.09 757.307 1015.11 760.187 1015.64 762.01L964.642 762.03Z" fill="#060632"/>
<path d="M990.563 336.348C990.563 336.348 970.722 305.089 1008.81 303.022C1008.81 303.022 1023.09 304.702 1026.32 301.468C1026.32 301.468 1037.4 318.305 1027.06 336.348C1016.71 354.392 990.563 336.348 990.563 336.348Z" fill="#060632"/>
<path d="M1023.19 352.667C1020.31 354.937 1011.84 357.193 1009.42 357.455C1009.42 357.455 996.866 354.654 994.59 353.277C991.055 351.139 991.31 346.803 991.1 340.776C990.884 333.646 990.163 328.045 990.963 323.932C991.907 319.013 995.029 316.213 1003.76 315.458C1019.79 314.061 1026.47 318.082 1026.72 323.454C1026.79 324.897 1026.86 326.267 1026.91 327.573C1027.54 344.344 1026.22 350.247 1023.19 352.667Z" fill="#FC9290"/>
<path d="M1027.04 333.069C1026.89 342.776 1024.27 348.522 1022.37 349.25C1019.96 350.141 1017.47 350.8 1014.94 351.218C1014.04 351.323 1013.17 351.29 1013.18 350.778C1013.18 349.25 1015.26 347.361 1013.74 346.003C1012.21 344.646 1003.58 344.101 1002.89 347.204C1002.55 348.719 1005.31 351.388 1003.42 351.454C1002.85 351.355 1002.28 351.244 1001.75 351.106C999.43 350.457 997.221 349.476 995.187 348.194C991.651 346.056 991.907 342.77 991.1 336.795C990.595 332.925 990.595 335.024 991.1 340.73C991.632 346.738 990.595 350.568 994.59 353.231C996.807 354.707 1009.6 360.446 1009.6 360.446C1009.41 357.403 1020.33 354.884 1023.21 352.615C1025.86 350.562 1027.2 345.688 1027.04 333.069Z" fill="#060632"/>
<path d="M967.101 510.232C967.042 511.846 975.064 517.5 988.529 521.763C989.609 522.108 990.729 522.443 991.887 522.767C991.887 522.767 991.887 522.767 991.887 522.799C993.147 537.537 996.551 558.355 999.614 578.445C1000.41 583.653 1001.17 588.815 1001.88 593.806C1003.76 607.009 1005.16 619.045 1005.31 627.709V627.795C1005.37 631.769 1002.03 641.687 1001.77 643.976C1001.61 645.379 1001.48 646.862 1001.4 648.416C1001.07 655.536 1001.16 662.67 1001.68 669.778C1003.88 703.937 1012.9 747.646 1016.11 749.509C1022.51 753.208 1034.16 749.509 1040.08 748.636C1041.28 748.488 1042.38 747.903 1043.17 746.994C1043.96 746.085 1044.39 744.916 1044.37 743.711C1041.48 687.022 1049.79 608.065 1055.99 559.523C1056.16 558.263 1056.32 557.024 1056.48 555.804C1057.22 550.078 1057.71 544.732 1058.02 539.918C1058.3 535.688 1058.44 531.851 1058.5 528.525C1058.5 527.489 1058.5 526.499 1058.5 525.561C1058.5 522.524 1056.09 502.604 1055.98 411.494C1055.98 410.48 1055.57 409.508 1054.86 408.792C1054.14 408.075 1053.17 407.672 1052.15 407.67H996.4C995.121 407.672 993.856 407.927 992.676 408.422C991.497 408.916 990.428 409.64 989.53 410.551C988.633 411.462 987.925 412.542 987.448 413.728C986.971 414.915 986.734 416.184 986.752 417.463C986.942 426.133 986.407 434.803 985.151 443.384C983.092 456.036 978.684 467.855 969.594 470.702C969.594 470.702 969.305 471.358 968.938 472.269C968.846 474.558 968.754 476.861 968.649 479.261C968.649 479.733 968.603 480.219 968.584 480.698C968.584 480.98 968.584 481.255 968.544 481.544C968.544 482.022 968.498 482.508 968.472 482.993C968.433 483.793 968.393 484.594 968.347 485.407C968.347 486.063 968.275 486.719 968.243 487.329C968.177 488.562 968.098 489.808 968.02 491.067C968.02 491.474 967.974 491.874 967.941 492.281C967.836 493.907 967.724 495.56 967.6 497.226C967.569 497.738 967.53 498.249 967.482 498.761C967.482 499.01 967.482 499.259 967.429 499.509L967.272 501.476C967.219 502.132 967.154 502.867 967.095 503.569C966.839 506.159 967.167 508.442 967.101 510.232Z" fill="#0B0754"/>
<path d="M1001.71 669.785C1003.9 703.944 1012.93 747.652 1016.14 749.515C1022.54 753.214 1034.19 749.515 1040.11 748.643C1041.3 748.494 1042.4 747.91 1043.2 747.001C1043.99 746.092 1044.42 744.922 1044.4 743.717C1041.51 687.028 1049.82 608.072 1056.02 559.529C1056.19 558.27 1056.35 557.03 1056.51 555.81C1057.25 550.084 1057.74 544.739 1058.05 539.925C1055.1 520.674 1038.43 519.644 1023.29 559.457C1025.19 572.66 1001.2 661.953 1001.71 669.785Z" fill="#060632"/>
<path d="M966.478 626.109C966.019 630.044 961.395 639.443 960.844 641.68C953.203 672.409 957.42 745.272 961.211 748.184C967.075 752.696 979.111 750.552 985.092 750.473C986.296 750.481 987.461 750.046 988.363 749.25C989.266 748.453 989.843 747.352 989.985 746.157C994.688 688.104 1014.16 608.367 1026.68 561.464C1032.98 537.852 1033.89 520.464 1033.89 520.464C1033.89 520.464 975.379 484.613 969.049 504.198C963.428 521.527 970.007 595.781 966.478 626.109Z" fill="#0B0754"/>
<path d="M1026.07 294.28C1025.67 293.827 1025.24 293.388 1024.76 292.968C1022.74 291.04 1020.38 289.503 1017.8 288.436C1007.59 284.179 999.129 288.108 993.842 292.128C993.324 292.522 992.832 292.922 992.373 293.309C990.723 294.691 989.222 296.241 987.893 297.933C987.893 297.933 982.941 304.695 983.105 318.922L1034.15 319.466C1034.15 319.466 1034.92 304.092 1026.07 294.28Z" fill="#E75755"/>
<path d="M997.456 319.085L1000.26 319.118C1000.32 318.305 1000.18 299.776 993.271 292.587C992.747 292.981 992.858 292.915 992.399 293.302C998.965 299.638 997.469 318.895 997.456 319.085Z" fill="#A83F3F"/>
<path d="M1019.63 319.328C1020.22 307.988 1024.56 296.07 1025.73 293.952C1025.44 293.602 1025.12 293.272 1024.79 292.961C1023.98 294.358 1017.32 306.702 1016.61 319.295L983.164 318.935C983.164 318.935 1000.13 322.739 1010.37 322.87C1020.61 323.001 1034.21 319.479 1034.21 319.479L1019.63 319.328Z" fill="#A83F3F"/>
<path d="M985.053 370.055C985.053 370.055 1002.3 390.145 1003.31 407.677L994.524 408.143C994.524 408.143 992.314 388.617 979.334 371.262C979.334 371.262 981.367 370.77 982.036 370.606L985.053 370.055Z" fill="#0B0754"/>
<path d="M1028.05 369.78C1035.54 381.294 1040.22 394.404 1041.73 408.057L1050.6 407.9C1049.87 394.126 1041.21 378.969 1036.43 371.787C1036.43 371.787 1030.3 370.239 1028.05 369.78Z" fill="#0B0754"/>
<path d="M1008.76 562.573H1001.65C998.368 561.071 980.508 553.351 963.369 553.253C950.999 553.187 936.911 562.435 936.058 562.527C933.913 562.776 943.227 562.861 943.227 562.861C943.227 562.861 957.178 556.689 963.448 556.539C969.43 556.401 982.698 560.749 987.998 562.573H948.087C946.479 562.576 944.938 563.217 943.801 564.354C942.664 565.491 942.023 567.032 942.02 568.64V614.152C942.023 615.76 942.664 617.301 943.801 618.438C944.938 619.575 946.479 620.216 948.087 620.219H1008.76C1010.37 620.216 1011.91 619.575 1013.05 618.438C1014.19 617.301 1014.83 615.76 1014.83 614.152V568.659C1014.83 567.048 1014.19 565.502 1013.06 564.361C1011.92 563.219 1010.38 562.576 1008.76 562.573Z" fill="#E75755"/>
<path d="M989.074 562.573H928.39C925.04 562.573 922.323 565.289 922.323 568.64V614.152C922.323 617.503 925.04 620.219 928.39 620.219H989.074C992.424 620.219 995.141 617.503 995.141 614.152V568.64C995.141 565.289 992.424 562.573 989.074 562.573Z" fill="#A83F3F"/>
<path d="M971.253 477.897C971.686 498.472 969.121 539.433 969.121 539.433H956.987C951.261 510.613 949.235 492.071 949.235 481.957C949.235 479.989 949.235 478.107 949.235 476.395C949.313 467.757 949.543 462.739 949.543 462.739C947.267 410.412 957.722 382.425 961.001 378.575C964.281 374.725 979.334 371.236 979.334 371.236C979.334 371.236 984.292 385.698 986.312 397.327C988.333 408.956 970.407 457.82 971.148 474.526C971.194 475.582 971.227 476.71 971.253 477.897Z" fill="#6D89CF"/>
<path d="M1128.79 491.92H1118.95C1118.48 491.923 1118.03 492.112 1117.7 492.445C1117.37 492.778 1117.18 493.228 1117.18 493.697V760.948C1117.18 761.417 1117.37 761.867 1117.7 762.2C1118.03 762.533 1118.48 762.722 1118.95 762.725H1128.79C1129.26 762.723 1129.71 762.535 1130.04 762.202C1130.38 761.869 1130.56 761.418 1130.56 760.948V493.678C1130.56 493.211 1130.37 492.766 1130.04 492.438C1129.71 492.109 1129.26 491.923 1128.79 491.92Z" fill="#FA7F76"/>
<path d="M1128.79 491.92H1118.95C1118.48 491.923 1118.03 492.112 1117.7 492.445C1117.37 492.778 1117.18 493.228 1117.18 493.697V501.981H1130.54V493.678C1130.53 493.216 1130.34 492.775 1130.02 492.447C1129.69 492.119 1129.25 491.93 1128.79 491.92Z" fill="#0B0754"/>
<path d="M1117.18 760.928C1117.18 761.398 1117.36 761.848 1117.7 762.18C1118.03 762.513 1118.48 762.702 1118.95 762.705H1128.79C1129.26 762.704 1129.71 762.516 1130.04 762.182C1130.37 761.849 1130.56 761.398 1130.56 760.928V753.785H1117.2L1117.18 760.928Z" fill="#0B0754"/>
<path d="M1123.94 509.413C1123.67 509.414 1123.42 509.521 1123.23 509.71C1123.04 509.899 1122.93 510.155 1122.93 510.423V745.665C1122.93 745.933 1123.03 746.19 1123.22 746.38C1123.41 746.569 1123.67 746.675 1123.94 746.675C1124.21 746.675 1124.46 746.569 1124.65 746.38C1124.84 746.19 1124.95 745.933 1124.95 745.665V510.423C1124.95 510.155 1124.84 509.899 1124.65 509.71C1124.46 509.521 1124.21 509.414 1123.94 509.413Z" fill="#A83F3F"/>
<path d="M969.122 539.433C969.122 539.433 971.686 498.472 971.253 477.897C961.546 474.768 953.721 475.457 949.261 476.395C949.261 478.107 949.261 479.963 949.261 481.957C949.261 492.071 951.288 510.613 957.014 539.433C954.488 550.052 954.653 561.51 959.034 563.537C963.415 565.564 977.91 557.975 977.746 554.604C977.582 551.232 969.122 539.433 969.122 539.433Z" fill="#FC9290"/>
<path d="M1135.17 492.071C1133.99 487.735 1133.11 485.328 1130.12 483.223C1125.78 480.16 1120.63 480.986 1116.79 481.662C1113.85 482.18 1110.78 481.19 1109.49 480.698C1102.69 476.165 1085.62 466.825 1077.13 462.634C1071.32 465.999 1064.2 472.65 1060.85 485.636C1073.93 491.408 1102.56 491.303 1108.01 490.044C1108.01 490.044 1113.06 493.711 1116.89 494.052C1118.6 494.083 1120.3 493.787 1121.9 493.179C1123.25 492.746 1124.7 492.743 1126.05 493.172C1127.4 493.601 1128.58 494.441 1129.43 495.573C1131.29 497.882 1133.73 499.148 1134.74 499.148C1136.3 499.135 1135.91 494.799 1135.17 492.071Z" fill="#FC9290"/>
<path d="M104.936 544.713H44.2597C40.909 544.713 38.1927 547.429 38.1927 550.78V596.292C38.1927 599.643 40.909 602.359 44.2597 602.359H104.936C108.287 602.359 111.003 599.643 111.003 596.292V550.78C111.003 547.429 108.287 544.713 104.936 544.713Z" fill="#E75755"/>
<path d="M124.653 544.713H63.9758C60.6251 544.713 57.9088 547.429 57.9088 550.78V596.292C57.9088 599.643 60.6251 602.359 63.9758 602.359H124.653C128.003 602.359 130.72 599.643 130.72 596.292V550.78C130.72 547.429 128.003 544.713 124.653 544.713Z" fill="#A83F3F"/>
<path d="M50.8317 544.962C50.8317 544.962 65.2614 534.343 67.393 534.599C69.5247 534.855 72.955 535.609 72.955 535.609L60.0601 545.342L50.8317 544.962Z" fill="#E75755"/>
<path d="M164.577 377.23C158.798 372.862 145.307 369.209 138.544 368.441C136.957 368.264 132.208 368.245 132.162 368.245C132.162 373.105 121.806 377.303 113.378 376.771C106.255 376.286 101.663 370.875 101.663 367.956C101.119 367.956 73.4141 387.187 69.9313 406.346C69.6949 407.609 69.5742 408.891 69.5706 410.176C69.4591 501.312 63.9365 515.283 65.6811 515.257C65.6811 515.257 76.0443 523.232 95.2816 525.095C97.7674 525.344 100.404 525.488 103.152 525.495C110.955 525.529 118.741 524.755 126.384 523.186C129.996 522.452 133.567 521.528 137.082 520.418C150.547 516.149 158.562 510.501 158.503 508.888C158.438 507.097 158.766 504.815 158.542 502.257C157.703 492.609 157.231 484.18 156.89 475.687C171.503 476.998 179.931 475.529 179.931 475.529C191.901 449.772 172.395 383.133 164.577 377.23ZM161.166 451.405C160.274 451.648 159.31 451.871 158.274 452.061C157.565 452.219 156.817 452.369 156.05 452.507L156.011 451.464C155.814 446.689 155.591 442.144 155.276 437.822C155.014 434.201 154.692 430.738 154.266 427.426C159.31 440.76 162.825 450.959 161.166 451.405Z" fill="#93B3F4"/>
<path d="M101.663 367.956C101.663 367.956 80.2551 371.196 71.0398 378.877C61.8245 386.557 60.88 435.454 57.8104 449.287C57.0312 453.406 56.4924 457.567 56.1969 461.749C54.5441 480.507 56.5183 506.527 58.1646 516.142C58.4324 519.223 58.0043 522.326 56.9118 525.22C54.5506 531.123 54.0456 532.802 58.263 536.173C62.4804 539.544 67.0257 544.267 70.2265 542.916C72.6992 541.879 72.2597 525.495 71.9318 518.057C75.6114 502.126 81.5997 472.296 87.2338 443.384C94.7569 404.843 101.663 367.956 101.663 367.956Z" fill="#FC9290"/>
<path d="M101.663 367.956C101.663 367.956 97.6887 389.22 92.4809 416.322C90.8346 424.92 89.0637 434.109 87.2338 443.397C79.8616 457.827 73.5453 467.665 71.5907 465.802C67.6095 462.037 60.6111 461.572 56.1904 461.716C56.4859 457.534 57.0246 453.373 57.8039 449.254C58.0465 448.159 58.2695 446.853 58.4598 445.358C61.0374 427.964 62.5001 385.921 70.9873 378.85C75.454 375.138 82.7934 372.455 89.1424 370.678C92.4219 369.773 95.3997 369.104 97.6691 368.651C100.109 368.179 101.663 367.956 101.663 367.956Z" fill="#93B3F4"/>
<path d="M71.5973 465.796C67.616 462.031 60.6242 461.565 56.1969 461.71C56.4924 457.528 57.0312 453.367 57.8104 449.248C58.0531 448.159 58.2827 446.847 58.4663 445.352L80.5502 392.041C80.5502 392.041 73.5518 467.652 71.5973 465.796Z" fill="#6D89CF"/>
<path d="M132.215 367.405C132.379 359.961 132.254 351.08 131.251 343.57L101.545 348.424C101.545 348.424 101.545 357.488 101.677 367.55C101.677 367.55 100.863 376.883 112.354 378.247C123.846 379.611 132.523 374.607 132.215 367.405Z" fill="#FC9290"/>
<path d="M107.357 762.01C111.089 759.714 108.904 742.563 108.904 742.563C108.904 742.563 91.4118 728.671 89.0572 739.362C86.7025 750.053 72.5483 754.933 64.4874 756.245C58.9189 757.169 57.207 760.259 56.6823 762.082L107.357 762.01Z" fill="#060632"/>
<path d="M158.28 452.114C158.28 452.114 152.718 459.637 151.583 459.637C150.449 459.637 136.413 454.199 140.433 442.046C144.454 429.892 154.26 427.452 154.26 427.452C154.686 430.732 155.007 434.228 155.27 437.848C155.584 442.17 155.807 446.716 156.004 451.491L156.044 452.533C156.811 452.396 157.559 452.245 158.267 452.087L158.28 452.114Z" fill="#6D89CF"/>
<path d="M160.956 762.01C164.688 759.714 162.504 742.563 162.504 742.563C162.504 742.563 145.011 728.671 142.657 739.362C140.302 750.053 126.148 754.933 118.061 756.245C112.492 757.169 110.78 760.259 110.256 762.082L160.956 762.01Z" fill="#060632"/>
<path d="M135.042 335.004C135.042 335.004 154.869 303.744 116.795 301.711C116.795 301.711 102.516 303.39 99.2825 300.156C99.2825 300.156 88.2111 316.993 98.5545 335.037C108.898 353.08 135.042 335.004 135.042 335.004Z" fill="#9E332E"/>
<path d="M102.431 351.323C105.317 353.592 113.778 355.848 116.205 356.111C116.205 356.111 128.752 353.31 131.034 351.933C134.563 349.794 134.314 345.459 134.517 339.431C134.734 332.302 135.455 326.7 134.661 322.588C133.71 317.669 130.595 314.868 121.865 314.107C105.835 312.717 99.1579 316.731 98.8759 322.109C98.8037 323.552 98.7382 324.923 98.6922 326.228C98.0691 342.986 99.394 348.935 102.431 351.323Z" fill="#FC9290"/>
<path d="M98.5611 331.725C98.7185 341.432 101.335 347.177 103.238 347.905C105.647 348.796 108.135 349.455 110.669 349.873C111.574 349.978 112.44 349.945 112.427 349.434C112.427 347.905 110.354 346.017 111.876 344.659C113.397 343.301 122.029 342.757 122.718 345.859C123.052 347.374 120.291 350.044 122.186 350.109C122.757 350.011 123.321 349.899 123.859 349.762C126.188 349.117 128.411 348.136 130.457 346.85C133.986 344.711 133.737 341.425 134.537 335.444C135.042 331.58 135.042 333.673 134.537 339.412C134.006 345.42 135.042 349.25 131.054 351.913C128.831 353.382 116.034 359.128 116.034 359.128C116.224 356.084 105.317 353.566 102.431 351.296C99.7482 349.217 98.384 344.344 98.5611 331.725Z" fill="#9E332E"/>
<path d="M158.503 508.888C158.562 510.501 150.547 516.149 137.082 520.418C135.993 520.766 134.871 521.074 133.717 521.415C132.458 536.153 129.06 556.978 125.991 577.068C125.197 582.276 124.429 587.431 123.721 592.422C121.852 605.632 120.442 617.668 120.297 626.326V626.417C120.232 630.392 123.577 640.309 123.839 642.598C123.997 644.002 124.121 645.484 124.213 647.032C124.539 654.154 124.445 661.29 123.931 668.401C121.727 702.56 112.702 746.269 109.501 748.131C103.1 751.831 91.4512 748.131 85.5285 747.259C84.3323 747.111 83.233 746.526 82.4415 745.617C81.6499 744.708 81.2217 743.539 81.2389 742.333C84.0855 685.684 75.7819 606.701 69.5706 558.165C69.4066 556.899 69.2492 555.666 69.0918 554.446C68.3441 548.72 67.8587 543.375 67.5504 538.554C67.2618 534.33 67.1307 530.493 67.0651 527.168C67.0651 526.131 67.0651 525.134 67.0651 524.203C67.0651 521.166 69.4656 501.247 69.5771 410.137C69.5806 409.122 69.9853 408.15 70.7029 407.432C71.4205 406.714 72.3927 406.31 73.4076 406.306H129.158C130.437 406.307 131.704 406.562 132.883 407.056C134.063 407.55 135.133 408.274 136.03 409.185C136.928 410.096 137.636 411.176 138.112 412.363C138.589 413.55 138.825 414.82 138.807 416.099C138.622 424.787 139.168 433.475 140.44 442.072C142.493 454.724 146.9 466.543 155.991 469.39C156.03 469.482 156.28 470.046 156.647 470.958C156.732 473.247 156.824 475.549 156.936 477.949C156.936 478.422 156.975 478.9 157.001 479.386C157.001 479.668 157.001 479.943 157.04 480.225C157.04 480.711 157.086 481.196 157.113 481.681C157.145 482.482 157.185 483.282 157.231 484.095C157.27 484.751 157.303 485.374 157.336 486.01C157.401 487.243 157.48 488.496 157.559 489.755C157.559 490.162 157.605 490.556 157.637 490.969C157.742 492.595 157.854 494.248 157.978 495.914L158.096 497.449C158.096 497.698 158.129 497.948 158.149 498.197C158.201 498.853 158.254 499.509 158.306 500.164C158.359 500.82 158.424 501.555 158.483 502.257C158.765 504.815 158.438 507.097 158.503 508.888Z" fill="#0B0754"/>
<path d="M123.905 668.44C121.701 702.599 112.676 746.308 109.475 748.171C103.074 751.87 91.4249 748.171 85.5022 747.298C84.3061 747.15 83.2068 746.565 82.4152 745.656C81.6236 744.747 81.1954 743.578 81.2127 742.373C84.0855 685.684 75.7819 606.701 69.5706 558.165C69.4066 556.899 69.2492 555.666 69.0918 554.446C68.3441 548.72 67.8587 543.375 67.5504 538.554C70.5019 519.31 87.1682 518.28 102.313 558.093C108.76 573.533 124.403 660.609 123.905 668.44Z" fill="#060632"/>
<path d="M159.126 624.758C159.585 628.693 164.209 638.099 164.76 640.335C172.402 671.064 168.184 743.927 164.393 746.839C158.536 751.352 146.494 749.207 140.512 749.122C139.308 749.133 138.142 748.699 137.238 747.902C136.335 747.105 135.758 746.003 135.619 744.806C130.923 686.753 111.449 607.023 98.9349 560.113C92.6318 536.501 91.7201 519.12 91.7201 519.12C91.7201 519.12 150.239 483.269 156.562 502.854C162.176 520.182 155.598 594.436 159.126 624.758Z" fill="#0B0754"/>
<path d="M137.685 296.582C136.356 294.889 134.855 293.34 133.205 291.958C132.753 291.564 132.261 291.171 131.736 290.777C126.45 286.756 117.962 282.828 107.789 287.084C105.206 288.15 102.843 289.685 100.817 291.61C100.365 292.043 99.9384 292.476 99.5056 292.922C90.6641 302.76 91.4118 318.121 91.4118 318.121L142.447 317.577C142.644 303.344 137.685 296.582 137.685 296.582Z" fill="#E75755"/>
<path d="M128.155 317.741C128.155 317.544 126.646 298.294 133.205 291.958C132.93 291.704 132.641 291.465 132.34 291.243C125.426 298.458 125.289 316.96 125.348 317.767L128.155 317.741Z" fill="#A83F3F"/>
<path d="M109.029 317.951C108.544 305.449 101.644 293.027 100.817 291.61C100.484 291.916 100.169 292.24 99.8729 292.581C101.073 294.686 105.579 306.735 106.005 317.984L91.4381 318.134C91.4381 318.134 105.028 321.65 115.267 321.525C125.505 321.401 142.473 317.59 142.473 317.59L109.029 317.951Z" fill="#A83F3F"/>
<path d="M140.551 368.71C140.551 368.71 123.308 388.8 122.298 406.332H131.061C133.166 393.161 138.378 380.681 146.264 369.924L140.551 368.71Z" fill="#0B0754"/>
<path d="M97.6822 368.671C85.3317 387.364 83.8625 406.326 83.8625 406.326H75.0998C75.8278 392.552 84.4003 377.873 89.1818 370.698C92.435 369.793 95.439 369.124 97.6822 368.671Z" fill="#0B0754"/>
<path d="M186.707 477.248C186.244 469.182 185.247 461.156 183.722 453.222C183.753 457.49 183.43 461.752 182.758 465.966C184.923 483.249 184.07 496.459 180.233 503.936C178.064 508.299 174.699 511.957 170.532 514.483C172.654 512.4 174.459 510.018 175.891 507.412C178.849 502.106 181.577 492.235 180.567 474.021C180.357 474.539 180.148 475.037 179.911 475.529C179.911 475.529 179.164 475.654 177.721 475.805C178.311 489.119 176.888 499.318 173.49 505.418C171.154 509.775 167.589 513.349 163.239 515.696C164.592 514.347 165.813 512.871 166.885 511.289C170.394 506.133 174.061 495.98 174.218 476.067C173.346 476.12 172.369 476.159 171.306 476.192C171.142 491.454 168.892 502.814 164.649 509.026C164.459 509.314 164.255 509.603 164.045 509.878C167.253 504.382 170.355 494.353 170.532 476.179C169.621 476.179 168.65 476.179 167.613 476.179C167.463 491.428 165.2 502.782 160.963 508.973C158.538 512.666 155.14 515.616 151.144 517.5C149.977 517.296 148.776 517.034 147.576 516.719L147.097 516.588H147.045L146.566 516.45C145.103 516.024 143.68 515.539 142.309 514.994C125.446 508.298 115.772 493.219 114.834 480.822C114.178 472.02 114.88 458.915 116.657 444.656C120.16 416.564 127.807 383.986 137.069 371.045C137.226 370.822 137.377 370.613 137.534 370.39C137.724 370.134 137.921 369.885 138.118 369.655C138.466 369.242 138.774 368.855 139.148 368.507C139.795 367.832 140.522 367.237 141.312 366.736C141.54 366.871 141.759 367.02 141.968 367.182C142.774 367.829 143.497 368.574 144.119 369.399C145.084 369.602 146.087 369.845 147.117 370.108C147.596 370.232 148.088 370.357 148.579 370.501H148.671C148.787 370.525 148.901 370.555 149.012 370.593C149.616 370.757 150.219 370.934 150.823 371.118L151.859 371.439C152.266 371.564 152.672 371.695 153.072 371.832L154.384 372.279C154.843 372.442 155.309 372.606 155.761 372.777V372.738C150.298 364.126 146.415 362.125 143.896 362.243C143.499 362.263 143.104 362.316 142.716 362.401C142.303 362.291 141.877 362.233 141.45 362.23C140.584 362.242 139.725 362.399 138.912 362.696C136.288 362.945 133.586 364.591 130.759 367.602L130.182 368.258C128.446 370.262 126.871 372.4 125.472 374.653V374.699C110.531 398.311 96.6131 450.782 95.767 475.332C95.1111 494.767 110.079 512.141 125.197 519.277C126.629 519.955 128.096 520.557 129.591 521.081C130.411 521.363 131.225 521.619 132.025 521.848H132.077C135.035 522.699 138.096 523.141 141.174 523.16C141.83 523.16 142.414 523.16 143.031 523.101C143.647 523.042 144.283 523.16 144.906 523.16C147.573 523.173 150.226 522.786 152.777 522.012C153.171 522.012 153.564 521.966 153.958 521.94C154.351 521.914 154.614 521.881 154.948 521.842C155.604 521.763 156.221 521.665 156.844 521.553C158.632 521.566 160.418 521.428 162.183 521.14C167.495 520.308 172.438 517.908 176.376 514.247C178.966 511.81 181.11 508.94 182.712 505.766C185.218 500.879 187.448 492.254 186.707 477.248ZM98.6463 475.523C99.3809 453.786 111.266 407.625 124.403 382.701C123.944 383.803 123.478 384.944 123.026 386.118C110.61 412.413 100.181 454.239 99.4728 475.378C99.171 484.22 102.096 492.628 106.812 499.843C101.139 491.868 98.384 482.954 98.6463 475.523ZM129.932 515.998C111.233 507.196 101.913 488.975 102.385 475.523C102.785 463.579 106.556 444.263 112.053 425.143C107.763 445.811 105.376 466.766 105.96 479.648C106.701 495.947 118.284 509.504 131.225 516.568C130.785 516.378 130.365 516.188 129.932 515.985V515.998ZM108.839 479.458C107.986 460.811 113.883 423.274 122.613 396.343C123.597 393.333 124.58 390.44 125.643 387.738C126.036 386.918 126.423 386.111 126.81 385.324C120.107 403.689 115.063 429.925 112.879 452.015C111.758 463.415 111.397 473.66 111.961 481.183C112.984 494.635 121.366 505.877 131.677 513.027C117.287 505.038 109.364 490.936 108.839 479.458Z" fill="#E75755"/>
<path d="M158.28 452.114C157.808 452.186 148.848 453.819 148.356 453.891C133.428 456.075 113.351 457.04 111.259 457.171C111.062 456.987 103.939 450.356 101.165 450.356C98.3905 450.356 90.2312 453.314 89.3982 455.603C88.5653 457.892 88.2373 461.972 90.5592 462.884C92.881 463.795 102.49 466.065 104.989 466.294C105.386 466.33 105.785 466.33 106.183 466.294C120.894 470.673 135.974 473.699 151.236 475.332C155.411 475.862 159.614 476.144 163.822 476.178C163.626 465.822 160.149 456.305 158.28 452.114Z" fill="#FC9290"/>
<path d="M484.318 239.401V235.466H475.739V209.617H468.636V235.498H450.645V209.617H443.548V235.498H423.982V209.617H416.886V235.498H398.895V209.617H391.791V235.498H382.386V239.434H391.798V252.034H382.386V255.969H391.798V268.569H382.386V272.504H391.798V285.104H382.386V289.039H391.798V301.639H382.386V305.574H391.798V318.108H382.386V322.044H391.798V332.21H382.386V336.145H391.798V348.745H382.386V352.68H391.798V365.28H382.386V369.215H391.798V381.815H382.386V385.75H391.798V398.35H382.386V402.286H391.798V414.885H382.386V418.821H391.798V430.843H382.386V434.779H391.798V447.378H382.386V451.314H391.798V463.907H382.386V467.842H391.798V480.311H382.386V484.246H391.798V496.846H382.386V500.781H391.798V513.374H382.386V517.31H391.798V527.469H382.386V531.405H391.798V544.004H382.386V547.94H391.798V560.539H382.386V564.475H391.798V577.068H382.386V581.003H391.798V593.603H382.386V597.538H391.798V610.138H382.386V614.073H391.798V625.309H382.386V629.244H391.798V641.844H382.386V645.779H391.798V658.379H382.386V662.314H391.798V674.914H382.386V678.849H391.798V691.311H382.386V695.247H391.798V707.84H382.386V711.775H391.798V721.974H382.386V725.91H391.798V738.51H382.386V742.445H391.798V755.045H382.386V758.98H484.318V755.045H475.739V742.445H484.318V738.51H475.739V725.91H484.318V721.974H475.739V711.775H484.318V707.84H475.739V695.247H484.318V691.311H475.739V678.712H484.318V674.776H475.739V662.177H484.318V658.241H475.739V645.668H484.318V641.732H475.739V629.146H484.318V625.211H475.739V613.988H484.318V610.053H475.739V597.466H484.318V593.531H475.739V580.944H484.318V577.009H475.739V564.416H484.318V560.48H475.739V547.907H484.318V543.972H475.739V531.385H484.318V527.45H475.739V517.27H484.318V513.335H475.739V500.742H484.318V496.806H475.739V484.233H484.318V480.298H475.739V467.711H484.318V463.776H475.739V451.182H484.318V447.247H475.739V434.674H484.318V430.738H475.739V418.729H484.318V414.793H475.739V402.207H484.318V398.271H475.739V385.665H484.318V381.73H475.739V369.169H484.318V365.234H475.739V352.648H484.318V348.712H475.739V336.132H484.318V332.197H475.739V322.044H484.318V318.108H475.739V305.495H484.318V301.56H475.739V288.973H484.318V285.038H475.739V272.458H484.318V268.523H475.739V255.936H484.318V252.001H475.739V239.401H484.318ZM443.548 239.401V252.001H423.982V239.401H443.548ZM423.982 738.444V725.844H443.548V738.444H423.982ZM443.548 742.379V754.979H423.982V742.379H443.548ZM423.982 721.942V711.743H443.548V721.942H423.982ZM423.982 707.82V695.247H443.548V707.84L423.982 707.82ZM423.982 691.305V678.705H443.548V691.311L423.982 691.305ZM423.982 674.783V662.183H443.548V674.783H423.982ZM423.982 658.268V645.668H443.548V658.268H423.982ZM423.982 641.746V629.146H443.548V641.746H423.982ZM423.982 625.224V613.988H443.548V625.224H423.982ZM423.982 610.066V597.466H443.548V610.066H423.982ZM423.982 593.544V580.944H443.548V593.544H423.982ZM423.982 577.022V564.429H443.548V577.022H423.982ZM423.982 560.507V547.907H443.548V560.507H423.982ZM423.982 543.985V531.385H443.548V543.985H423.982ZM423.982 527.469V517.27H443.548V527.469H423.982ZM423.982 513.348V500.755H443.548V513.348H423.982ZM423.982 496.833V484.233H443.548V496.833H423.982ZM423.982 480.311V467.711H443.548V480.311H423.982ZM423.982 463.789V451.195H443.548V463.789H423.982ZM423.982 447.273V434.674H443.548V447.273H423.982ZM423.982 430.751V418.729H443.548V430.751H423.982ZM423.982 414.807V402.207H443.548V414.807H423.982ZM423.982 398.291V385.665H443.548V398.265L423.982 398.291ZM423.982 381.769V369.169H443.548V381.769H423.982ZM423.982 365.247V352.648H443.548V365.247H423.982ZM423.982 348.732V336.132H443.548V348.732H423.982ZM423.982 332.21V322.044H443.548V332.21H423.982ZM423.982 318.095V305.495H443.548V318.108L423.982 318.095ZM423.982 301.573V288.973H443.548V301.573H423.982ZM423.982 285.058V272.458H443.548V285.058H423.982ZM423.982 268.536V255.936H443.548V268.536H423.982ZM398.895 239.401H416.886V252.001H398.895V239.401ZM398.895 255.923H416.886V268.523H398.895V255.923ZM398.895 272.445H416.886V285.045H398.895V272.445ZM398.895 288.96H416.886V301.56H398.895V288.96ZM398.895 305.482H416.886V318.108H398.895V305.482ZM398.895 322.004H416.886V332.21H398.895V322.004ZM398.895 336.119H416.886V348.719H398.895V336.119ZM398.895 352.634H416.886V365.234H398.895V352.634ZM398.895 369.156H416.886V381.756H398.895V369.156ZM398.895 385.678H416.886V398.278H398.895V385.678ZM398.895 402.194H416.886V414.793H398.895V402.194ZM398.895 418.716H416.886V430.738H398.895V418.716ZM398.895 434.66H416.886V447.26H398.895V434.66ZM398.895 451.182H416.886V463.776H398.895V451.182ZM398.895 467.698H416.886V480.311H398.895V467.698ZM398.895 484.22H416.886V496.819H398.895V484.22ZM398.895 500.742H416.886V513.335H398.895V500.742ZM398.895 517.257H416.886V527.469H398.895V517.257ZM398.895 531.372H416.886V543.972H398.895V531.372ZM398.895 547.894H416.886V560.494H398.895V547.894ZM398.895 564.416H416.886V577.009H398.895V564.416ZM398.895 580.931H416.886V593.531H398.895V580.931ZM398.895 597.453H416.886V610.053H398.895V597.453ZM398.895 613.975H416.886V625.211H398.895V613.975ZM398.895 629.133H416.886V641.732H398.895V629.133ZM398.895 645.655H416.886V658.254H398.895V645.655ZM398.895 662.17H416.886V674.77H398.895V662.17ZM398.895 678.692H416.886V691.311H398.895V678.692ZM398.895 695.214H416.886V707.807H398.895V695.214ZM398.895 711.729H416.886V721.929H398.895V711.729ZM398.895 725.844H416.886V738.444H398.895V725.844ZM398.895 742.366H416.886V754.966H398.895V742.366ZM468.636 754.966H450.645V742.366H468.636V754.966ZM468.636 738.444H450.645V725.844H468.636V738.444ZM468.636 721.929H450.645V711.729H468.636V721.929ZM468.636 707.807H450.645V695.247H468.636V707.807ZM468.636 691.292H450.645V678.692H468.636V691.292ZM468.636 674.77H450.645V662.17H468.636V674.77ZM468.636 658.254H450.645V645.668H468.636V658.254ZM468.636 641.732H450.645V629.146H468.636V641.732ZM468.636 625.211H450.645V613.988H468.636V625.211ZM468.636 610.053H450.645V597.466H468.636V610.053ZM468.636 593.531H450.645V580.944H468.636V593.531ZM468.636 577.009H450.645V564.416H468.636V577.009ZM468.636 560.494H450.645V547.907H468.636V560.494ZM468.636 543.972H450.645V531.385H468.636V543.972ZM468.636 527.456H450.645V517.27H468.636V527.456ZM468.636 513.335H450.645V500.742H468.636V513.335ZM468.636 496.819H450.645V484.233H468.636V496.819ZM468.636 480.298H450.645V467.711H468.636V480.298ZM468.636 463.776H450.645V451.182H468.636V463.776ZM468.636 447.26H450.645V434.674H468.636V447.26ZM468.636 430.738H450.645V418.729H468.636V430.738ZM468.636 414.793H450.645V402.207H468.636V414.793ZM468.636 398.278H450.645V385.665H468.636V398.278ZM468.636 381.756H450.645V369.169H468.636V381.756ZM468.636 365.234H450.645V352.648H468.636V365.234ZM468.636 348.719H450.645V336.132H468.636V348.719ZM468.636 332.197H450.645V322.044H468.636V332.197ZM468.636 318.082H450.645V305.495H468.636V318.082ZM468.636 301.56H450.645V288.973H468.636V301.56ZM468.636 285.045H450.645V272.458H468.636V285.045ZM468.636 268.523H450.645V255.936H468.636V268.523ZM468.636 252.001H450.645V239.401H468.636V252.001Z" fill="#BED2FA"/>
<path d="M570.68 0H568.167V44.7385H570.68V0Z" fill="#BED2FA"/>
<path d="M709.919 0H707.407V44.7385H709.919V0Z" fill="#BED2FA"/>
<path d="M588.271 0H585.758V44.7385H588.271V0Z" fill="#BED2FA"/>
<path d="M722.486 0H719.974V44.7385H722.486V0Z" fill="#BED2FA"/>
<path d="M214.746 659.448C214.36 659.361 213.955 659.431 213.62 659.641C213.285 659.851 213.046 660.185 212.955 660.57L199.392 719.816C195.725 719.928 192 723.896 190.734 729.425L189.422 735.066C189.346 735.38 189.287 735.697 189.245 736.017L204.33 739.467C204.472 739.171 204.576 738.858 204.639 738.536L205.95 732.895C207.21 727.379 205.596 722.197 202.336 720.485L215.9 661.232C215.943 661.039 215.946 660.84 215.911 660.645C215.876 660.451 215.802 660.265 215.695 660.099C215.588 659.933 215.449 659.79 215.286 659.679C215.123 659.567 214.939 659.488 214.746 659.448Z" fill="#0B0754"/>
<path d="M175.32 735.912C175.32 735.912 206.613 727.805 216.602 734.404C226.591 741.002 211.512 747.981 211.512 747.981L175.32 735.912Z" fill="#FA7269"/>
<path d="M416.971 378.614C410.989 396.927 378.391 428.574 373.885 431.742C373.885 431.742 366.297 419.103 367.818 412.019C369.051 406.24 381.743 385.639 386.092 375.518C386.315 374.994 386.518 374.495 386.695 374.03C387.201 372.94 387.486 371.76 387.534 370.56C387.318 368.356 380.405 363.011 372.37 356.662C361.928 348.397 349.591 338.474 347.623 331.613C344.082 319.472 331.823 271.422 331.823 271.422C331.823 271.422 362.283 278.013 370.881 285.595C379.48 293.178 416.387 356.386 417.909 372.567C418.007 374.625 417.688 376.682 416.971 378.614Z" fill="#E75755"/>
<path d="M416.971 378.614C410.989 396.927 378.391 428.574 373.885 431.742C373.885 431.742 366.297 419.103 367.818 412.019C369.13 405.945 383.094 383.461 386.695 374.03C392.113 373.072 404.83 371.891 416.971 378.614Z" fill="#FC9290"/>
<path d="M331.797 267.198V270.93C331.797 270.93 332.813 282.605 318.443 284.303C304.072 286.002 293.25 280.801 293.643 271.796C294.955 264.823 296.267 258.986 296.385 253.221C296.418 250.88 296.247 248.54 295.873 246.229L323.723 245.671L331.921 247.016L331.797 267.198Z" fill="#FC9290"/>
<path d="M331.882 247.016L331.777 267.198C328.636 268.667 325.209 269.425 321.742 269.415C308.945 269.415 300.668 260.029 296.346 253.221C296.379 250.88 296.208 248.54 295.834 246.229L323.683 245.671L331.882 247.016Z" fill="#EA8888"/>
<path d="M307.253 762.043C307.253 762.043 305.902 751.549 302.773 745.259C299.645 738.969 279.725 742.983 279.725 742.983C279.725 742.983 275.737 746.393 274.885 762.332L307.253 762.043Z" fill="#060632"/>
<path d="M375.118 762.01C370.435 759.157 373.098 737.84 373.098 737.84C373.098 737.84 394.907 720.394 397.911 733.754C400.915 747.115 418.63 753.11 428.738 754.743C435.703 755.871 437.861 759.728 438.53 762.01H375.118Z" fill="#060632"/>
<path d="M329.914 604.635C330.684 608.535 331.22 612.478 331.521 616.441C333.548 655.985 364.808 746.406 370.396 748.518C379.054 751.798 392.696 744.839 399.806 742.57C402.758 741.625 404.752 738.634 404.096 735.624C388.636 664.42 382.95 561.95 380.877 501.273C379.834 470.708 374.587 449.602 374.587 449.602C374.587 449.602 298.34 429.269 297.887 454.993C297.487 477.766 323.145 567.066 329.914 604.635Z" fill="#0B0754"/>
<path d="M329.914 604.635L380.877 501.273C379.834 470.708 374.587 449.602 374.587 449.602C374.587 449.602 298.34 429.269 297.887 454.993C297.487 477.766 323.145 567.066 329.914 604.635Z" fill="#060632"/>
<path d="M346.908 455.078L306.604 747.206C306.604 747.206 288.895 751.476 275.121 748.066C275.121 748.066 263.315 592.698 264.305 555.135C265.296 517.572 255.838 454.626 266.463 447.686C277.089 440.747 346.908 455.078 346.908 455.078Z" fill="#0B0754"/>
<path d="M376.778 455.623C376.778 455.623 356.183 467.632 326.353 467.291C316.201 467.226 306.066 466.47 296.018 465.028C272.091 461.48 260.016 454.803 260.114 452.317C260.193 450.067 260.35 442.61 260.632 439.402C264.436 395.556 262.469 361.449 267.585 335.824C267.644 335.515 267.709 335.207 267.775 334.905C274.544 302.334 285.156 283.615 290.423 275.941C291.362 274.471 292.433 273.09 293.624 271.815C293.624 277.895 306.564 283.142 317.118 282.454C326.005 281.877 331.777 275.114 331.777 271.454C332.505 271.454 371.872 298.818 371.905 324.247C372.055 438.182 378.962 455.662 376.778 455.623Z" fill="#E75755"/>
<path d="M296.077 464.635C296.077 464.766 296.037 464.891 296.018 465.009C272.091 461.46 260.016 454.783 260.114 452.297C260.193 450.048 260.35 442.59 260.632 439.383C264.436 395.536 262.469 361.43 267.585 335.804C280.145 352.595 305.961 396.56 296.077 464.635Z" fill="#A83F3F"/>
<path d="M361.614 410.13L358.4 420.828L355.205 431.447L216.405 389.699C216.008 389.721 215.616 389.603 215.297 389.365C213.546 388.131 213.231 383.593 214.575 378.483C214.641 378.195 214.726 377.913 214.812 377.624C216.432 372.128 219.403 368.068 221.653 368.028C221.835 368.023 222.016 368.047 222.19 368.1C222.374 368.154 222.547 368.238 222.702 368.35L361.614 410.13Z" fill="#DEE9FD"/>
<path d="M358.4 420.827L355.205 431.446L216.405 389.699C216.008 389.721 215.616 389.603 215.297 389.364C213.546 388.131 213.231 383.592 214.575 378.483C220.249 382.74 247.37 401.57 293.597 410.733C341.406 420.204 356.202 420.801 358.4 420.827Z" fill="#ED6966"/>
<path d="M361.882 410.071C359.561 409.382 356.255 413.646 354.497 419.595C352.739 425.544 353.198 430.922 355.494 431.578C357.79 432.234 361.122 427.997 362.879 422.048C364.637 416.099 364.204 410.753 361.882 410.071Z" fill="#BED2FA"/>
<path d="M223.712 364.427L207.348 361.804C207.176 361.718 206.992 361.659 206.803 361.627C206.625 361.6 206.444 361.6 206.265 361.627C204.022 361.961 201.628 366.375 200.736 372.042C200.69 372.337 200.644 372.626 200.611 372.921C200.299 375.139 200.318 377.392 200.671 379.605C201.038 381.572 201.74 383.035 202.697 383.579L202.756 383.612C202.932 383.709 203.123 383.775 203.32 383.809C203.512 383.838 203.706 383.838 203.898 383.809L346.967 406.975L348.738 396.035L350.529 385.009L223.712 364.427Z" fill="#DEE9FD"/>
<path d="M283.182 394.513C252.578 392.545 236.358 376.365 223.712 364.427L207.348 361.804C207.176 361.718 206.992 361.659 206.803 361.627C206.625 361.6 206.444 361.6 206.265 361.627C204.022 361.961 201.628 366.375 200.736 372.042C200.69 372.337 200.644 372.626 200.611 372.921C200.299 375.139 200.318 377.392 200.671 379.605C201.438 381.776 202.232 383.251 202.697 383.579L202.756 383.612C202.932 383.709 203.123 383.775 203.32 383.809C203.512 383.838 203.706 383.838 203.898 383.809L346.967 406.975L348.738 396.035C346.561 396.291 331.816 397.642 283.182 394.513Z" fill="#ED6966"/>
<path d="M350.791 384.911C348.397 384.53 345.682 389.194 344.718 395.32C343.754 401.446 344.915 406.713 347.302 407.093C349.689 407.474 352.411 402.804 353.376 396.678C354.34 390.552 353.179 385.285 350.791 384.911Z" fill="#BED2FA"/>
<path d="M299.894 426.986C266.706 421.739 244.799 407.802 235.767 401.079C232.691 398.776 231.124 397.32 231.124 397.32C214.116 361.568 244.897 298.89 250.505 288.265C256.572 276.807 293.624 271.769 293.624 271.769C289.529 284.821 286.771 298.255 285.392 311.864C283.083 334.551 258.428 378.765 259.439 382.491C259.694 383.422 262.672 385.383 267.014 387.862C279.896 395.195 304.78 407.014 306.296 409.795C308.316 413.527 299.894 426.986 299.894 426.986Z" fill="#FC9290"/>
<path d="M306.302 409.815C306.302 409.815 324.844 402.404 329.39 405.434C333.935 408.464 341.53 413.023 341.53 416.053C341.53 419.083 331.921 427.203 323.821 429.708C315.721 432.214 299.887 426.987 299.887 426.987L306.302 409.815Z" fill="#FC9290"/>
<path d="M285.392 311.89C283.083 334.578 258.428 378.791 259.439 382.517C259.694 383.448 262.672 385.409 267.014 387.889C266.737 387.905 266.459 387.905 266.181 387.889C246.78 387.036 237.978 397.766 235.767 401.092C232.691 398.79 231.124 397.334 231.124 397.334C214.116 361.581 244.897 298.904 250.505 288.278C256.572 276.82 293.624 271.782 293.624 271.782C289.528 284.838 286.77 298.277 285.392 311.89Z" fill="#E75755"/>
<path d="M333.528 256.822C333.528 256.822 297.867 264.036 293.722 241.736C289.577 219.436 282.178 205.38 304.774 199.844C327.369 194.308 333.39 201.976 336.585 209.073C339.779 216.169 342.698 254.375 333.528 256.822Z" fill="#FC9290"/>
<path d="M294.43 248.17C294.43 248.17 287.537 233.459 281.785 226.939C276.033 220.419 279.161 187.73 304.006 188.779C328.852 189.829 337.719 207.597 337.982 210.994C338.244 214.392 318.121 211.775 312.631 216.241C307.142 220.708 312.369 228.002 306.073 230.612C299.776 233.222 294.837 233.236 295.88 238.981C296.923 244.727 294.43 248.17 294.43 248.17Z" fill="#060632"/>
<path d="M302.098 173.595C294.994 175.379 289.636 178.232 285.7 181.663C285.307 182.004 284.92 182.319 284.553 182.706C269.828 196.748 275.705 219.095 275.705 219.095C275.705 219.095 277.672 224.742 279.017 226.933C280.362 229.123 299.914 226.598 300.924 222.381C301.934 218.163 305.817 213.788 305.817 213.788C305.817 213.788 326.425 212.372 327.809 212.267C332.466 211.932 345.754 207.308 345.754 207.308C345.577 206.01 338.1 164.551 302.098 173.595Z" fill="#E75755"/>
<path d="M357.941 202.94C355.468 202.33 351.25 201.628 344.305 201.405C344.305 201.405 338.467 206.239 326.871 209.932C321.42 203.064 305.882 186.516 285.681 181.676L285.504 181.63C285.077 182.174 284.848 182.358 284.533 182.719C284.448 182.824 284.349 182.948 284.244 183.106C300.701 185.972 316.344 204.455 321.709 211.375C316.486 212.647 311.162 213.459 305.797 213.801C305.797 213.801 341.812 214.457 358.269 205.806C358.547 205.663 358.776 205.438 358.924 205.162C359.072 204.886 359.132 204.571 359.096 204.259C359.061 203.948 358.931 203.655 358.724 203.419C358.518 203.183 358.245 203.016 357.941 202.94Z" fill="#A83F3F"/>
<path d="M394.612 366.5C393.956 370.284 391.909 374.259 386.085 375.505C386.308 374.981 386.511 374.482 386.688 374.016C387.194 372.927 387.48 371.747 387.528 370.547C387.311 368.343 380.398 362.997 372.364 356.648C371.708 353.048 370.081 342.363 372.364 333.882C375.171 323.519 395.372 362.204 394.612 366.5Z" fill="#A83F3F"/>
<path d="M263.144 385.337C263.144 385.337 238.371 383.31 230.278 397.72C230.278 397.72 230.966 402.581 235.767 401.105C235.767 401.105 256.756 386.774 267.014 387.889C267.014 387.889 265.42 385.377 263.144 385.337Z" fill="#A83F3F"/>
<path d="M386.091 375.505C386.091 375.505 398.947 376.043 415.128 383.094C415.128 383.094 418.716 379.565 417.286 377.539C415.856 375.512 393.07 368.245 386.091 375.505Z" fill="#A83F3F"/>
<path d="M564.521 291.335C575.671 234.239 585.87 179.577 585.87 179.577C585.87 179.577 554.164 184.378 540.508 195.758C526.853 207.138 525.475 279.581 520.923 300.045C520.031 304.066 519.225 310.539 518.536 318.463C515.912 347.919 519.192 392.027 521.606 404.385C521.442 405.572 520.438 411.409 515.047 422.605C515.047 422.605 512.266 431.204 530.467 444.099C542.083 452.337 552.426 353.395 564.521 291.335Z" fill="#FC9290"/>
<path d="M585.87 179.577C585.87 179.577 579.967 211.06 572.28 251.233C569.84 263.971 567.21 277.581 564.521 291.335C553.613 312.723 544.247 327.265 541.355 324.53C535.451 318.961 525.095 318.272 518.536 318.476C519.192 310.572 520.031 304.079 520.923 300.058C521.284 298.438 521.625 296.497 521.953 294.286C525.77 268.523 527.935 206.233 540.508 195.758C554.164 184.378 585.87 179.577 585.87 179.577Z" fill="#6D89CF"/>
<path d="M572.28 251.207C569.84 263.944 567.21 277.554 564.521 291.308C553.613 312.697 544.247 327.238 541.355 324.503C535.451 318.934 525.095 318.246 518.536 318.449C519.192 310.546 520.031 304.052 520.923 300.032C521.284 298.412 521.625 296.47 521.953 294.26L554.669 215.284L572.28 251.207Z" fill="#3662C1"/>
<path d="M631.153 178.77C631.396 167.745 631.212 154.581 629.723 143.464L585.719 150.678C585.719 150.678 585.719 164.105 585.916 179.006H585.87C585.87 179.006 584.67 192.826 601.697 194.853C618.724 196.88 631.625 189.435 631.153 178.77Z" fill="#FC9290"/>
<path d="M585.601 153.368C585.601 153.368 595.964 174.605 607.849 174.605C619.734 174.605 630.858 154.634 630.858 154.634L585.601 153.368Z" fill="#EA8888"/>
<path d="M614.926 762.089C614.926 762.089 616.526 749.627 620.239 742.202C623.951 734.777 647.544 739.5 647.544 739.5C647.544 739.5 652.259 743.547 653.27 762.456L614.926 762.089Z" fill="#060632"/>
<path d="M534.553 761.918C540.095 758.534 536.94 733.288 536.94 733.288C536.94 733.288 511.105 712.621 507.55 728.441C503.995 744.262 483.006 751.398 471.056 753.313C462.805 754.625 460.253 759.216 459.46 761.918H534.553Z" fill="#060632"/>
<path d="M635.344 130.772C635.344 130.772 664.721 84.4594 608.315 81.3964C608.315 81.3964 587.162 83.8888 582.374 79.0942C582.374 79.0942 565.977 104.018 581.285 130.772C596.594 157.526 635.344 130.772 635.344 130.772Z" fill="#060632"/>
<path d="M587.024 154.942C591.301 158.306 603.841 161.645 607.462 162.038C607.462 162.038 626.05 157.893 629.434 155.853C634.682 152.679 634.327 146.258 634.596 137.331C634.918 126.764 635.987 118.467 634.806 112.407C633.403 105.12 628.779 100.975 615.844 99.8465C592.101 97.787 582.21 103.736 581.797 111.699C581.685 113.837 581.587 115.87 581.515 117.805C580.57 142.598 582.531 151.4 587.024 154.942Z" fill="#FC9290"/>
<path d="M588.048 574.307C587.139 578.917 586.506 583.578 586.152 588.264C583.745 635.115 546.713 742.228 540.089 744.727C529.837 748.597 513.702 740.372 505.254 737.683C501.758 736.568 499.397 733.039 500.171 729.458C518.536 645.143 525.252 523.737 527.718 451.858C528.958 415.653 535.169 390.643 535.169 390.643C535.169 390.643 625.499 366.546 626.03 397.032C626.496 424.009 596.102 529.804 588.048 574.307Z" fill="#0B0754"/>
<path d="M588.048 574.307L527.705 451.858C528.945 415.653 535.156 390.643 535.156 390.643C535.156 390.643 625.486 366.546 626.017 397.032C626.496 424.009 596.102 529.804 588.048 574.307Z" fill="#060632"/>
<path d="M567.951 397.137L615.7 743.212C615.7 743.212 636.689 748.269 652.974 744.222C652.974 744.222 666.958 560.166 665.791 515.67C664.623 471.174 675.826 396.599 663.233 388.374C650.639 380.149 567.951 397.137 567.951 397.137Z" fill="#0B0754"/>
<path d="M670.1 388.374C670.137 389.325 669.983 390.273 669.648 391.164C669.313 392.054 668.803 392.869 668.148 393.559C667.494 394.25 666.708 394.803 665.837 395.185C664.965 395.567 664.027 395.772 663.075 395.786L587.831 396.934L532.585 397.78C530.001 397.826 538.18 377.119 538.344 242.11C538.39 211.985 585.03 179.564 585.89 179.564C585.89 183.899 592.731 191.908 603.258 192.597C615.759 193.416 631.094 187.199 631.094 179.997C631.094 179.918 632.55 181.492 634.885 184.89C641.122 193.981 653.696 216.15 661.717 254.736C668.053 285.215 665.62 325.959 670.179 378.529C670.493 382.34 670.001 385.718 670.1 388.374Z" fill="white"/>
<path d="M667.319 396.205C667.319 396.205 657.323 400.685 638.61 404.568C620.298 408.26 601.665 410.132 582.984 410.156C546.411 410.386 532.559 397.78 532.559 397.78C529.975 397.826 538.154 377.119 538.318 242.11C538.364 211.985 585.004 179.564 585.863 179.564C585.863 179.564 584.67 219.678 596.804 231.478C596.804 231.478 613.857 218.36 635.902 180.915C642.146 190.006 653.67 216.15 661.691 254.736C663.362 263.198 664.503 271.757 665.108 280.362C667.24 306.984 666.761 339.497 670.152 378.529C670.487 382.327 669.995 385.705 670.093 388.368C670.257 392.382 671.333 396.16 667.319 396.205Z" fill="#6D89CF"/>
<path d="M667.319 396.205C667.319 396.205 657.323 400.685 638.61 404.568C632.707 395.589 625.309 379.388 624.279 353.861C622.541 310.683 663.554 255.09 663.554 255.09L665.115 280.375C667.247 306.997 666.768 339.51 670.159 378.542C670.493 382.34 670.001 385.718 670.1 388.38C670.257 392.381 671.333 396.159 667.319 396.205Z" fill="#3662C1"/>
<path d="M631.804 250.015L561.897 290.376L617.261 386.269L687.168 345.909L631.804 250.015Z" fill="#0B0754"/>
<path d="M675.354 194.072C666.788 187.585 646.711 182.994 636.787 181.059C633.298 180.37 631.074 180.01 631.074 180.01C632.11 184.772 634.432 192.236 637.463 201.195C650.174 238.745 675.373 302.603 670.323 303.967C665.304 305.224 660.22 306.203 655.093 306.899C632.989 310.132 603.277 311.569 600.142 311.713C599.9 311.484 589.307 301.606 585.181 301.606C581.056 301.606 568.981 305.987 567.754 309.358C566.528 312.73 566.036 318.797 569.473 320.148C572.91 321.499 587.142 324.87 590.822 325.205C591.411 325.257 592.004 325.257 592.593 325.205C614.388 331.694 636.731 336.177 659.343 338.598C683.815 341.11 698.133 339.713 698.133 339.713C715.835 301.547 686.93 202.828 675.354 194.072Z" fill="#FC9290"/>
<path d="M698.106 339.7C698.106 339.7 683.788 341.097 659.317 338.585C660.668 331.934 661.94 318.948 655.067 306.899C660.193 306.203 665.278 305.225 670.297 303.967C675.373 302.603 650.174 238.745 637.463 201.195C636.446 189.055 635.908 180.928 635.908 180.928L636.787 181.059C646.684 183.027 666.794 187.618 675.354 194.072C686.93 202.829 715.835 301.547 698.106 339.7Z" fill="#6D89CF"/>
<path d="M596.81 231.491C596.81 231.491 630.858 216.491 631.363 215.31C631.868 214.129 629.677 205.026 627.316 202.33C627.316 202.33 643.661 203.852 644.677 201.825C645.694 199.798 646.442 183.165 646.442 183.165C646.442 183.165 639.64 176.114 631.212 175.445C631.212 175.445 623.813 193.81 621.078 199.3C613.831 213.821 596.81 231.491 596.81 231.491Z" fill="#3662C1"/>
<path d="M588.717 201.825C588.717 201.825 590.907 219.357 596.81 231.491C596.81 231.491 579.022 219.101 577.507 215.054C575.992 211.007 581.777 203.176 581.777 203.176C581.777 203.176 571.158 202.92 570.909 199.385C570.66 195.85 574.188 181.938 574.188 181.938C574.188 181.938 583.325 175.268 585.85 175.524L588.717 201.825Z" fill="#3662C1"/>
<path d="M646.356 104.976L570.745 105.782C570.745 105.782 569.637 82.9836 582.735 68.4425C583.338 67.7866 583.968 67.1307 584.637 66.4748C587.64 63.6237 591.141 61.3493 594.967 59.765C610.053 53.4553 622.62 59.2797 630.451 65.2352C631.218 65.8189 631.946 66.4092 632.622 66.993C635.068 69.0365 637.293 71.3316 639.26 73.8405C639.26 73.8405 646.599 83.8625 646.356 104.976Z" fill="#E75755"/>
<path d="M625.119 105.199C624.909 102.129 623.577 75.9853 632.76 67.1176C632.363 66.7457 631.945 66.3975 631.507 66.0747C621.715 76.2673 620.934 101.998 620.973 105.245L596.804 105.5C596.089 86.9846 585.863 68.5474 584.637 66.4879C584.147 66.9382 583.683 67.4155 583.246 67.9178C585.017 71.0398 591.694 88.9063 592.331 105.553L570.745 105.782C570.745 105.782 590.881 110.99 606.052 110.8C621.223 110.61 646.356 104.976 646.356 104.976L625.119 105.199Z" fill="#A83F3F"/>
</g>
<defs>
<clipPath id="clip0">
<rect width="1190" height="764.345" fill="white"/>
</clipPath>
</defs>
</svg>
